<?xml version="1.0" encoding="utf-8"?>
<!-- Generator: Adobe Illustrator 15.1.0, SVG Export Plug-In . SVG Version: 6.00 Build 0)  -->
<!DOCTYPE svg PUBLIC "-//W3C//DTD SVG 1.1//EN" "http://www.w3.org/Graphics/SVG/1.1/DTD/svg11.dtd">
<svg version="1.1" id="Layer_1" xmlns="http://www.w3.org/2000/svg" xmlns:xlink="http://www.w3.org/1999/xlink" x="0px" y="0px"
	 width="373.14px" height="373.142px" viewBox="0 0 373.14 373.142" enable-background="new 0 0 373.14 373.142"
	 xml:space="preserve">
<path fill="none" d="M220.521,60.87c-10.809-2.915-22.163-4.492-33.887-4.499v0.413v-0.413c-0.022,0-0.045,0-0.06,0
	c-11.569,0-22.781,1.528-33.46,4.358c-22.425,5.947-42.479,17.715-58.428,33.599c-15.954,15.897-27.781,35.911-33.817,58.302
	c-2.915,10.831-4.499,22.2-4.499,33.942c0,11.569,1.529,22.787,4.362,33.462c5.947,22.422,17.712,42.471,33.603,58.428
	c15.894,15.95,35.9,27.777,58.295,33.813h0.004c10.819,2.918,22.194,4.499,33.94,4.499c11.569,0,22.783-1.529,33.458-4.359
	c22.422-5.946,42.472-17.715,58.421-33.598c15.957-15.898,27.792-35.911,33.82-58.296c2.926-10.83,4.499-22.206,4.499-33.949
	c0-11.572-1.521-22.775-4.358-33.462c-5.939-22.421-17.708-42.471-33.599-58.428C262.925,78.732,242.912,66.897,220.521,60.87z"/>
<path fill="#CBFFD1" d="M94.335,278.462L54.398,318.24c22.775,22.861,51.45,39.815,83.538,48.459l14.694-54.424
	C130.235,306.239,110.229,294.412,94.335,278.462z"/>
<polygon fill="#666666" points="152.63,312.275 137.937,366.699 152.634,312.275 "/>
<path fill="#CBFFD1" d="M60.733,220.034L6.246,234.521c8.521,32.128,25.38,60.866,48.152,83.719l39.937-39.778
	C78.445,262.505,66.68,242.456,60.733,220.034z"/>
<path fill="#00E36C" d="M278.453,278.817l39.782,39.93c22.856-22.776,39.818-51.447,48.455-83.531l-54.417-14.694
	C306.245,242.906,294.41,262.919,278.453,278.817z"/>
<path fill="#00E36C" d="M186.574,316.774c-11.746,0-23.121-1.581-33.94-4.499l-14.698,54.424c15.51,4.174,31.802,6.442,48.631,6.442
	c16.585,0,32.646-2.188,47.952-6.25l-14.487-54.477C209.357,315.245,198.144,316.774,186.574,316.774z"/>
<path fill="#00E36C" d="M220.032,312.415l14.487,54.477c32.129-8.519,60.858-25.377,83.716-48.145l-39.782-39.93
	C262.504,294.7,242.454,306.469,220.032,312.415z"/>
<path fill="#CBFFD1" d="M56.371,186.572c0-11.742,1.584-23.111,4.499-33.942L6.442,137.937C2.264,153.446,0,169.74,0,186.572
	c0,16.581,2.19,32.642,6.246,47.949l54.487-14.487C57.9,209.359,56.371,198.142,56.371,186.572z"/>
<path fill="#00E36C" d="M278.815,94.683l39.93-39.774c-22.776-22.861-51.447-39.815-83.531-48.459L220.521,60.87
	C242.912,66.897,262.925,78.732,278.815,94.683z"/>
<path fill="#00E36C" d="M312.414,153.11l54.476-14.479c-8.518-32.128-25.376-60.862-48.145-83.723l-39.93,39.774
	C294.706,110.64,306.475,130.689,312.414,153.11z"/>
<path fill="#00E36C" d="M366.89,138.631l-54.476,14.479c2.837,10.687,4.358,21.89,4.358,33.462c0,11.743-1.573,23.119-4.499,33.949
	l54.417,14.694c4.181-15.514,6.449-31.811,6.449-48.644C373.14,169.995,370.953,153.931,366.89,138.631z"/>
<path fill="#CBFFD1" d="M186.567,0c-16.578,0-32.637,2.194-47.937,6.25l14.483,54.479c10.679-2.83,21.891-4.358,33.46-4.358
	c0.015,0,0.037,0,0.06,0V0.159v56.212c11.724,0.007,23.078,1.584,33.887,4.499l14.693-54.421C219.7,2.269,203.403,0,186.567,0z"/>
<path fill="#CBFFD1" d="M153.114,60.729L138.631,6.25c-32.128,8.518-60.87,25.376-83.723,48.148l39.778,39.93
	C110.636,78.444,130.689,66.677,153.114,60.729z"/>
<path fill="#CBFFD1" d="M94.687,94.328l-39.778-39.93c-22.865,22.775-39.823,51.446-48.466,83.538L60.87,152.63
	C66.905,130.239,78.733,110.226,94.687,94.328z"/>
</svg>
