<?xml version="1.0" standalone="no"?>
<!DOCTYPE svg PUBLIC "-//W3C//DTD SVG 1.1//EN" "http://www.w3.org/Graphics/SVG/1.1/DTD/svg11.dtd" >
<svg xmlns="http://www.w3.org/2000/svg">
<metadata>
This is a custom SVG webfont generated by Font Squirrel.
Copyright   : Copyright c 2009 by The Entente AS  EH All rights reserved
Designer    : The Entente AS  EH
Foundry     : The Entente AS  EH
Foundry URL : httpwwwcolophonfoundryorg
</metadata>
<defs>
<font id="ReaderRegular" horiz-adv-x="1208" >
<font-face units-per-em="2048" ascent="1536" descent="-512" />
<missing-glyph horiz-adv-x="593" />
<glyph unicode=" "  horiz-adv-x="593" />
<glyph unicode="&#x09;" horiz-adv-x="593" />
<glyph unicode="&#xa0;" horiz-adv-x="593" />
<glyph unicode="!" horiz-adv-x="491" d="M147 0v231h197v-231h-197zM154 1026v428h184v-428l-39 -618h-109z" />
<glyph unicode="&#x22;" horiz-adv-x="757" d="M131 1227v227h188v-227l-28 -256h-133zM438 1227v227h189v-227l-29 -256h-133z" />
<glyph unicode="#" horiz-adv-x="1228" d="M-41 416v151h277l69 340h-254v152h287l82 395h155l-81 -395h362l82 395h156l-82 -395h268v-152h-301l-70 -340h279v-151h-311l-86 -416h-156l86 416h-363l-86 -416h-155l86 416h-244zM391 567h363l69 340h-362z" />
<glyph unicode="$" d="M29 281l143 75q111 -180 369 -213v531q-102 12 -176 30.5t-148 58.5t-112.5 112.5t-38.5 177.5q0 201 133 302t342 115v156h151v-160q238 -33 379 -219l-133 -82q-111 121 -246 144v-500q74 -8 128 -18.5t127 -39t119 -68.5t80 -110.5t34 -162.5q0 -186 -137.5 -301 t-350.5 -125v-152h-151v156q-184 18 -319.5 96t-192.5 197zM240 1053q0 -115 76.5 -162t224.5 -66v488q-301 -22 -301 -260zM692 137q160 10 238 87t78 186q0 68 -23.5 114.5t-72 72.5t-96.5 37t-124 21v-518z" />
<glyph unicode="%" horiz-adv-x="1546" d="M154 1124q0 57 5 102.5t23.5 93.5t48 80t82 52.5t123.5 20.5q88 0 147.5 -29t87 -83t37 -108.5t9.5 -128.5q0 -64 -5 -109.5t-22.5 -96t-47.5 -81t-82 -51t-124 -20.5q-88 0 -147.5 28.5t-87 83t-37.5 110.5t-10 136zM205 0l950 1454h164l-952 -1454h-162zM279 1124 q0 -41 2 -68.5t10 -64.5t24.5 -58.5t47 -37.5t73.5 -16q53 0 87 20.5t48.5 62.5t17.5 75.5t3 87t-3 85t-17.5 72.5t-48.5 60.5t-87 19.5t-88 -20.5t-48 -60.5t-17 -73t-4 -84zM799 340q0 57 5 102t23.5 93.5t48 80t82 52t123.5 20.5q88 0 147.5 -28.5t87 -83t37 -108.5 t9.5 -128q0 -64 -5 -110t-22.5 -96t-47.5 -80.5t-82 -51t-124 -20.5q-88 0 -147.5 28.5t-87 82.5t-37.5 110.5t-10 136.5zM924 340q0 -41 2 -68.5t10 -64.5t24.5 -58.5t47 -38t73.5 -16.5q53 0 87 20.5t48.5 62.5t17.5 76t3 87t-3 85t-17.5 73t-48 60.5t-87 19.5 t-88.5 -20.5t-48 -60.5t-17 -73t-4 -84z" />
<glyph unicode="&#x26;" horiz-adv-x="1400" d="M98 377q0 139 70 239.5t246 196.5q-156 162 -156 322q0 143 86 240.5t262 97.5q195 0 280 -96.5t85 -246.5q0 -111 -58.5 -188.5t-224.5 -181.5l311 -350q37 53 71 111.5t48 88.5l15 33l124 -135q-49 -109 -143 -227l250 -281h-231l-136 154q-186 -172 -399 -172 q-238 0 -369 110.5t-131 284.5zM285 383q0 -53 22 -98q49 -92 118 -121t173 -29q147 0 289 141l-357 402q-245 -133 -245 -295zM430 1135q0 -59 31 -108.5t110 -135.5q123 63 176.5 115.5t53.5 123.5q0 92 -53.5 140.5t-141.5 48.5q-74 0 -125 -48t-51 -136z" />
<glyph unicode="'" horiz-adv-x="450" d="M131 1227v227h188v-227l-28 -256h-133z" />
<glyph unicode="(" horiz-adv-x="645" d="M160 546.5q0 198.5 34.5 365.5t99 292t123 206t140.5 167l119 -104q-80 -88 -129 -154t-109.5 -178.5t-90.5 -261t-30 -332.5q0 -186 30 -335t90.5 -261.5t109.5 -178t129 -153.5l-119 -104q-82 86 -140.5 166.5t-123 206.5t-99 293t-34.5 365.5z" />
<glyph unicode=")" horiz-adv-x="645" d="M-31 -381q80 88 129 153.5t109.5 178t90.5 261t30 335.5q0 184 -30 332.5t-90.5 261t-109.5 178t-129 154.5l119 104q82 -86 140.5 -167t123 -206t99 -292t34.5 -365.5t-34.5 -365.5t-99 -293t-123 -206.5t-140.5 -166.5z" />
<glyph unicode="*" horiz-adv-x="1163" d="M113 1081l51 150l344 -125l-6 367h157l-6 -363l338 115l49 -154l-346 -100l213 -293l-129 -90l-203 295l-210 -291l-127 94l217 283z" />
<glyph unicode="+" horiz-adv-x="1228" d="M72 524v152h456v483h174v-483h455v-152h-455v-497h-174v497h-456z" />
<glyph unicode="," horiz-adv-x="399" d="M102 0v231h195v-217q0 -106 -20.5 -148t-114.5 -114l-53 72q92 51 92 164v12h-99z" />
<glyph unicode="-" horiz-adv-x="946" d="M123 514v174h700v-174h-700z" />
<glyph unicode="." horiz-adv-x="399" d="M102 0v231h195v-231h-195z" />
<glyph unicode="/" horiz-adv-x="1060" d="M37 0l797 1473h217l-799 -1473h-215z" />
<glyph unicode="0" d="M94 727q0 131 10.5 230.5t43 201t87 167t148.5 106.5t221 41t221.5 -41t148.5 -106.5t87 -167t43 -201t10 -230.5t-10 -230.5t-43 -200.5t-87 -167t-148.5 -106.5t-221.5 -40.5t-221 40.5t-148.5 106.5t-87 167t-43 200.5t-10.5 230.5zM274 707q0 -92 6.5 -165t28 -151 t56 -129t96 -85t143.5 -34t143.5 34t96.5 85t56.5 129t27.5 150.5t6 165.5v41q0 92 -6 164.5t-27.5 150.5t-56.5 129t-96.5 85t-143.5 34t-143.5 -34t-96 -85t-56 -129t-28 -150.5t-6.5 -164.5v-41z" />
<glyph unicode="1" d="M266 1042v164q10 0 25.5 1t51.5 7.5t66.5 22.5t63.5 42t51.5 71t18.5 104h180v-1454h-180v1042h-277z" />
<glyph unicode="2" d="M125 0v213q0 96 53 181t133 143l172 117l172 112q80 51 133.5 120.5t53.5 145.5q0 147 -66.5 212t-175.5 65q-170 0 -340 -174l-127 133q100 100 209 152.5t258 52.5q201 0 311.5 -119t110.5 -322q0 -119 -74 -218t-179 -169l-211 -137q-105 -68 -179 -155t-74 -189h762 v-164h-942z" />
<glyph unicode="3" d="M98 209l138 125q143 -188 364 -189q166 0 240.5 74t74.5 225q0 80 -34.5 135.5t-93 82t-117 38t-121.5 11.5v163q322 0 321 203q0 115 -78.5 173.5t-191.5 58.5q-86 0 -177 -46t-163 -128l-127 114q80 111 205 167.5t262 56.5q182 0 316.5 -100.5t134.5 -295.5 q0 -94 -59.5 -170t-170.5 -112q274 -86 275 -351q0 -221 -122 -341.5t-374 -120.5q-143 0 -284.5 59t-217.5 168z" />
<glyph unicode="4" d="M63 303v164l545 987h195l-545 -987h406v446h180v-446h272v-164h-272v-303h-180v303h-601z" />
<glyph unicode="5" d="M100 215l136 119q57 -78 147 -133.5t201 -55.5q158 0 239.5 96.5t81.5 272.5q0 137 -75.5 232.5t-219.5 95.5q-102 0 -186 -62.5t-119 -154.5h-168l64 829h811v-164h-654l-36 -432q53 76 143 112t180 36q182 0 311 -125t129 -367q0 -248 -127 -390t-374 -142 q-279 0 -484 233z" />
<glyph unicode="6" d="M96 657q0 391 143.5 603.5t434.5 212.5q211 0 368 -138l-104 -125q-61 55 -122.5 77t-158.5 22q-156 0 -255 -102.5t-126 -372.5q117 168 381 167q217 0 344 -136t127 -355q0 -250 -129 -389t-370 -139q-533 -1 -533 675zM283 494q0 -176 99 -262.5t247 -86.5 q164 0 241.5 97.5t77.5 251.5q0 170 -83 257t-236 87q-162 0 -254 -99.5t-92 -244.5z" />
<glyph unicode="7" d="M143 1290v164h965v-164q-424 -481 -473 -1290h-180q35 807 411 1290h-723z" />
<glyph unicode="8" d="M115 418q0 117 72.5 221t177.5 131q-90 39 -143.5 117t-53.5 176q0 197 121 303.5t315.5 106.5t315 -106.5t120.5 -303.5q0 -98 -53 -176t-143 -117q104 -27 177 -131t73 -221q0 -209 -135.5 -322.5t-354.5 -113.5t-354 113.5t-135 322.5zM295 426q0 -281 309 -281 t309 281q0 113 -85 180.5t-224 67.5t-224 -67.5t-85 -180.5zM348 1061q0 -98 67.5 -156.5t188.5 -58.5t188.5 58.5t67.5 156.5q0 115 -62.5 181.5t-193.5 66.5t-193.5 -66.5t-62.5 -181.5z" />
<glyph unicode="9" d="M80 944q0 250 129 389.5t371 139.5q532 0 532 -676q0 -391 -143.5 -603t-433.5 -212q-211 0 -369 137l104 125q61 -55 123 -77t158 -22q156 0 255 102.5t126 373.5q-117 -168 -381 -168q-217 0 -344 136t-127 355zM260 961q0 -170 83 -257.5t237 -87.5q162 0 254 99.5 t92 245.5q0 176 -99.5 262t-246.5 86q-164 0 -242 -97t-78 -251z" />
<glyph unicode=":" horiz-adv-x="399" d="M102 0v231h195v-231h-195zM102 864v232h195v-232h-195z" />
<glyph unicode=";" horiz-adv-x="399" d="M102 0v231h195v-217q0 -106 -20.5 -148t-114.5 -114l-53 72q92 51 92 164v12h-99zM102 864v232h195v-232h-195z" />
<glyph unicode="&#x3c;" horiz-adv-x="1228" d="M215 610v78l707 610l104 -120l-610 -529l610 -528l-104 -121z" />
<glyph unicode="=" horiz-adv-x="1228" d="M133 217v184h938v-184h-938zM133 678v184h938v-184h-938z" />
<glyph unicode="&#x3e;" horiz-adv-x="1228" d="M203 121l610 528l-610 529l104 120l707 -610v-78l-707 -610z" />
<glyph unicode="?" horiz-adv-x="1107" d="M59 1214q84 115 216.5 187t279.5 72q186 0 310 -98.5t124 -289.5q0 -88 -39 -156.5t-95 -114.5l-113 -91q-56 -45 -95 -107.5t-39 -142.5v-65h-182v84q0 80 27.5 145t68.5 105t90 82l90 75q41 33 69 82t28 109q0 100 -62.5 159.5t-181.5 59.5q-98 0 -201.5 -62.5 t-163.5 -148.5zM420 0v231h194v-231h-194z" />
<glyph unicode="@" horiz-adv-x="1591" d="M92 551q0 313 201 529t504 216q670 0 669 -692q0 -442 -307 -442q-39 0 -68.5 12t-44 27.5t-23.5 34t-11 28.5t-2 15q-100 -131 -258 -132q-129 0 -215 70t-86 191q0 66 24.5 113.5t61 74.5t97 43t111 22.5t123.5 8.5q119 2 119 73q0 41 -50 81t-118 40q-66 0 -132 -26.5 t-101 -73.5l-86 82q111 141 319 141q145 0 233.5 -78t88.5 -219v-313q0 -90 49 -90q72 0 95.5 69.5t23.5 247.5q0 268 -123 403.5t-389 135.5q-231 0 -389 -169t-158 -423t151.5 -423t395.5 -169q147 0 235 14.5t180 59.5l109 -107q-106 -70 -225 -95.5t-303 -25.5 q-319 0 -510 207t-191 539zM600 408q0 -61 42 -101.5t126 -40.5q61 0 106.5 18.5t70 45t37.5 67.5t17.5 75t4.5 79v45q-41 -51 -197 -51q-207 0 -207 -137z" />
<glyph unicode="A" horiz-adv-x="1327" d="M6 0l588 1454h137l590 -1454h-184l-187 471h-573l-187 -471h-184zM436 625h453l-227 567z" />
<glyph unicode="B" horiz-adv-x="1380" d="M156 0v1454h665q203 0 311.5 -111.5t108.5 -283.5q0 -106 -56.5 -179t-111.5 -100q23 -10 47.5 -25.5t74.5 -57.5t82 -112.5t32 -156.5q0 -203 -132.5 -315.5t-336.5 -112.5h-684zM328 154h506q162 0 232.5 66.5t70.5 213.5q0 123 -79 184.5t-210 61.5h-520v-526z M328 834h499q119 0 178.5 49t59.5 178q0 125 -71.5 181t-178.5 56h-487v-464z" />
<glyph unicode="C" horiz-adv-x="1378" d="M92 727q0 319 189.5 532.5t472.5 213.5q201 0 342 -90.5t215 -249.5l-146 -84q-119 270 -411 270q-209 0 -349.5 -169t-140.5 -423q0 -258 139.5 -425t350.5 -167q297 0 411 266l146 -82q-156 -338 -557 -337q-283 0 -472.5 209.5t-189.5 535.5z" />
<glyph unicode="D" horiz-adv-x="1390" d="M156 0v1454h452q94 0 181.5 -16.5t183.5 -65.5t165.5 -127t115.5 -211t46 -307t-46 -307t-115.5 -211t-165.5 -127t-183.5 -65.5t-181.5 -16.5h-452zM328 154h288q98 0 183.5 26.5t162 86t121.5 177t45 283.5t-45 283.5t-121.5 177t-161.5 86t-184 26.5h-288v-1146z" />
<glyph unicode="E" horiz-adv-x="1181" d="M156 0v1454h940v-154h-768v-469h645v-153h-645v-524h788v-154h-960z" />
<glyph unicode="F" horiz-adv-x="1146" d="M156 0v1454h956v-154h-784v-469h633v-153h-633v-678h-172z" />
<glyph unicode="G" horiz-adv-x="1464" d="M92 727q0 319 189.5 532.5t472.5 213.5q203 0 350 -88.5t221 -245.5l-143 -84q-55 125 -167 194.5t-261 69.5q-209 0 -349.5 -169t-140.5 -423q0 -258 139.5 -425t350.5 -167q184 0 297.5 106.5t113.5 325.5v39h-366v154h536v-760h-170l-43 115q-156 -133 -368 -133 q-283 0 -472.5 209.5t-189.5 535.5z" />
<glyph unicode="H" horiz-adv-x="1406" d="M156 0v1454h172v-612h751v612h172v-1454h-172v688h-751v-688h-172z" />
<glyph unicode="I" horiz-adv-x="475" d="M152 0v1454h172v-1454h-172z" />
<glyph unicode="J" horiz-adv-x="1044" d="M47 414h172q0 -279 232 -279q270 0 270 324v995h172v-991q0 -481 -442 -481q-176 0 -290 113.5t-114 318.5z" />
<glyph unicode="K" horiz-adv-x="1282" d="M156 0v1454h172v-784l700 784h221l-542 -600l575 -854h-203l-479 737l-272 -301v-436h-172z" />
<glyph unicode="L" horiz-adv-x="1171" d="M156 0v1454h172v-1300h809v-154h-981z" />
<glyph unicode="M" horiz-adv-x="1822" d="M156 0v1454h301l454 -1188l455 1188h301v-1454h-172v1309l-502 -1309h-164l-501 1309v-1309h-172z" />
<glyph unicode="N" horiz-adv-x="1415" d="M156 0v1454h172l759 -1171v1171h173v-1454h-173l-759 1171v-1171h-172z" />
<glyph unicode="O" horiz-adv-x="1585" d="M92 727q0 303 202 524.5t499 221.5t498.5 -221.5t201.5 -524.5t-201.5 -524t-498.5 -221t-499 221t-202 524zM264 727q0 -238 151.5 -414t377 -176t377 176t151.5 414t-151.5 414t-377 176t-377 -176t-151.5 -414z" />
<glyph unicode="P" horiz-adv-x="1312" d="M156 0v1454h618q272 0 395 -105.5t123 -332.5q0 -440 -518 -441h-446v-575h-172zM328 731h420q201 0 286.5 63.5t85.5 221.5q0 147 -84 215.5t-264 68.5h-444v-569z" />
<glyph unicode="Q" horiz-adv-x="1656" d="M92 727q0 303 202 524.5t499 221.5t498.5 -222.5t201.5 -523.5q0 -266 -160 -471q12 -18 39 -45q68 -57 193 -57v-172q-150 0 -248 57q-63 39 -105 92q-188 -150 -419 -149q-297 0 -499 221t-202 524zM264 727q0 -238 150.5 -410t378.5 -172q186 0 335 123 q-59 111 -114 152q-84 61 -240 61v172q240 0 369 -118q61 -53 106 -132q72 113 72 324q0 236 -151.5 413t-377 177t-377 -176t-151.5 -414z" />
<glyph unicode="R" horiz-adv-x="1349" d="M156 0v1454h618q272 0 395 -105.5t123 -332.5q0 -203 -97 -301.5t-308 -132.5l436 -582h-213l-434 575h-348v-575h-172zM328 731h420q201 0 286.5 63.5t85.5 221.5q0 147 -84 215.5t-264 68.5h-444v-569z" />
<glyph unicode="S" horiz-adv-x="1251" d="M37 281l143 75q61 -98 182 -158.5t300 -60.5q180 0 267 79t87 194q0 92 -52.5 147t-135.5 75.5t-183 30t-200.5 26t-183.5 49t-135 111.5t-52 204q0 147 78.5 244.5t195.5 136.5t264 39q297 0 467 -226l-133 -82q-135 152 -334 152q-156 0 -260 -60.5t-104 -203.5 q0 -88 52 -139.5t135 -69t182.5 -26.5t200 -25.5t183 -51t135 -118.5t52.5 -213q0 -195 -149.5 -311.5t-376.5 -116.5q-225 0 -391 82t-234 217z" />
<glyph unicode="T" horiz-adv-x="1196" d="M18 1300v154h1160v-154h-494v-1300h-172v1300h-494z" />
<glyph unicode="U" horiz-adv-x="1454" d="M143 664v790h172v-772q0 -547 406 -547q221 0 319.5 149.5t98.5 395.5v774h172v-790q0 -156 -27 -273t-90.5 -213t-182 -146t-290.5 -50q-174 0 -290 44t-178.5 137t-86 211t-23.5 290z" />
<glyph unicode="V" horiz-adv-x="1284" d="M6 1454h182l455 -1188l453 1188h182l-553 -1454h-162z" />
<glyph unicode="W" horiz-adv-x="1898" d="M6 1454h195l323 -1132l322 1132h207l323 -1132l322 1132h194l-432 -1454h-168l-342 1180l-340 -1180h-170z" />
<glyph unicode="X" horiz-adv-x="1265" d="M14 0l525 766l-459 688h205l358 -541l365 541h198l-471 -684l516 -770h-202l-412 623l-422 -623h-201z" />
<glyph unicode="Y" horiz-adv-x="1179" d="M2 1454h197l393 -713l391 713h195l-502 -907v-547h-172v549z" />
<glyph unicode="Z" horiz-adv-x="1148" d="M41 0v154l831 1146h-794v154h1007v-154l-831 -1146h856v-154h-1069z" />
<glyph unicode="[" horiz-adv-x="604" d="M174 -326v1911h461v-139h-301v-1632h301v-140h-461z" />
<glyph unicode="\" horiz-adv-x="1177" d="M72 1473h217l796 -1473h-215z" />
<glyph unicode="]" horiz-adv-x="604" d="M-31 -186h301v1632h-301v139h461v-1911h-461v140z" />
<glyph unicode="^" horiz-adv-x="1001" d="M72 971l327 483h205l326 -483h-209l-221 309l-217 -309h-211z" />
<glyph unicode="_" horiz-adv-x="905" d="M-8 0h921v-162h-921v162z" />
<glyph unicode="`" horiz-adv-x="763" d="M205 1473h188l166 -306h-141z" />
<glyph unicode="a" horiz-adv-x="1056" d="M86 326q0 131 102.5 224t327.5 93q41 0 80 5t86 17.5t75.5 41t28.5 71.5q0 86 -67.5 131t-167.5 45q-174 0 -281 -135l-118 111q4 6 14 18.5t45 42t77 52t110.5 41t146.5 18.5q205 0 302 -105.5t97 -291.5v-627q0 -49 31 -49v-29h-123q-68 0 -68 94v23 q-131 -135 -319 -135q-180 0 -279.5 93t-99.5 251zM272 309q0 -82 54.5 -134t144.5 -52q86 0 148.5 25.5t94 60.5t49 93t20.5 100t3 106v86q-53 -88 -249 -88q-92 0 -150.5 -18.5t-80 -53.5t-28 -60.5t-6.5 -64.5z" />
<glyph unicode="b" horiz-adv-x="1261" d="M143 0v1454h162v-522q125 170 348 170q229 0 378 -159t149 -398q0 -231 -150.5 -397t-376.5 -166q-186 0 -313 127l-35 -109h-162zM295 545q0 -184 100.5 -300t261.5 -116q156 0 257.5 125t101.5 291q0 164 -101.5 286.5t-257 122.5t-259 -124.5t-103.5 -284.5z" />
<glyph unicode="c" horiz-adv-x="1089" d="M82 522q0 260 139 420t389 160q154 0 259.5 -79t150.5 -179l-129 -74q-104 184 -281 184q-156 0 -261 -103t-105 -329q0 -195 108.5 -294t247.5 -99q223 0 307 172l131 -68q-45 -104 -153.5 -177.5t-284.5 -73.5q-215 0 -366.5 147t-151.5 393z" />
<glyph unicode="d" horiz-adv-x="1261" d="M82 545q0 240 148.5 398.5t377.5 158.5q223 0 348 -170v522h162v-1454h-162l-34 109q-127 -127 -314 -127q-225 0 -375.5 166t-150.5 397zM244 545q0 -164 102.5 -290t257.5 -126q162 0 262.5 115.5t100.5 300.5q0 160 -103.5 284.5t-259 124.5t-258 -122.5 t-102.5 -286.5z" />
<glyph unicode="e" horiz-adv-x="1193" d="M82 535q0 238 132 402.5t380 164.5q129 0 230.5 -47t162 -126t91 -173t30.5 -197v-61h-864q8 -164 105 -266.5t257 -102.5q190 0 318 156l127 -74q-158 -229 -445 -229q-78 0 -158.5 24.5t-167.5 80.5t-142.5 172t-55.5 276zM252 645h694q-4 35 -14 70t-36 81t-61.5 78.5 t-98 56t-142.5 23.5q-133 0 -225 -76.5t-117 -232.5z" />
<glyph unicode="f" horiz-adv-x="593" d="M10 936v147h207v78q0 311 217 312q45 0 79 -5.5t44 -9.5l12 -4v-147q-27 18 -77 18q-70 0 -91.5 -62.5t-21.5 -179.5h190v-147h-190v-936h-162v936h-207z" />
<glyph unicode="g" horiz-adv-x="1220" d="M82 539q0 254 149.5 408.5t341.5 154.5q188 0 314 -125l33 106h161v-925q0 -70 -9 -133.5t-41 -142.5t-83 -135t-146 -95t-220 -39q-281 0 -480 178l105 119q166 -150 375 -150q125 0 203.5 60.5t106.5 145.5t28 196q-127 -170 -347 -170q-213 0 -352 153.5t-139 393.5z M244 539q0 -166 84 -283t241 -117q156 0 258.5 119t102.5 281q0 180 -96.5 297.5t-264.5 117.5q-158 0 -241.5 -121.5t-83.5 -293.5z" />
<glyph unicode="h" horiz-adv-x="1204" d="M143 0v1454h162v-557q139 205 373 205q111 0 190.5 -34t122.5 -92t62.5 -124t19.5 -143v-709h-162v705q0 49 -8 85.5t-29.5 77.5t-71.5 63.5t-126 22.5q-172 0 -271.5 -110.5t-99.5 -290.5v-553h-162z" />
<glyph unicode="i" horiz-adv-x="456" d="M143 1231v223h170v-223h-170zM147 0v1083h162v-1083h-162z" />
<glyph unicode="j" horiz-adv-x="505" d="M-31 -221q47 -18 115 -19q63 0 87 59.5t24 178.5v1087h161v-1091q0 -227 -53 -304t-174 -77q-39 0 -79 5t-60 9l-21 4v148zM188 1229v225h174v-225h-174z" />
<glyph unicode="k" horiz-adv-x="1077" d="M143 0v1454h162v-881l467 510h207l-379 -409l506 -674h-199l-411 563l-191 -205v-358h-162z" />
<glyph unicode="l" horiz-adv-x="448" d="M143 0v1454h162v-1454h-162z" />
<glyph unicode="m" horiz-adv-x="1681" d="M143 0v1083h162l33 -112q104 131 250 131q225 0 307 -189q117 188 307 189q201 0 274.5 -103.5t73.5 -287.5v-711h-161v702q0 68 -9.5 116t-54.5 92t-125 44q-152 0 -207 -112.5t-55 -345.5v-496h-162v711q0 244 -190 243q-281 0 -281 -450v-504h-162z" />
<glyph unicode="n" horiz-adv-x="1200" d="M143 0v1083h162l41 -133q129 152 330 152q121 0 203 -33t120.5 -92t54 -121.5t15.5 -142.5v-713h-162v709q0 246 -233 245q-174 0 -271.5 -105.5t-97.5 -293.5v-555h-162z" />
<glyph unicode="o" horiz-adv-x="1216" d="M82 541q0 238 150.5 399.5t376 161.5t376 -162t150.5 -399q0 -236 -150.5 -397.5t-376 -161.5t-376 161.5t-150.5 397.5zM244 541q0 -166 103.5 -289t261 -123t261 123t103.5 289t-103.5 289.5t-261 123.5t-261 -123.5t-103.5 -289.5z" />
<glyph unicode="p" horiz-adv-x="1261" d="M143 -369v1452h162l35 -108q127 127 313 127q225 0 376 -166t151 -397q0 -240 -148.5 -398.5t-378.5 -158.5q-223 0 -348 170v-521h-162zM295 539q0 -160 103.5 -285t259 -125t258 123t102.5 286.5t-102.5 289.5t-258.5 126q-162 0 -262 -115.5t-100 -299.5z" />
<glyph unicode="q" horiz-adv-x="1261" d="M82 539q0 231 150.5 397t375.5 166q186 0 314 -127l34 108h162v-1452h-162v521q-125 -170 -348 -170q-229 0 -377.5 158.5t-148.5 398.5zM244 538.5q0 -163.5 102.5 -286.5t258 -123t259 125t103.5 285q0 184 -100.5 299.5t-262.5 115.5q-156 0 -258 -126t-102 -289.5z " />
<glyph unicode="r" horiz-adv-x="759" d="M143 0v1083h162l35 -118q104 137 317 137q59 0 93 -19v-147q-29 18 -70 18q-375 0 -375 -430v-524h-162z" />
<glyph unicode="s" horiz-adv-x="968" d="M53 211l140 61q31 -57 109.5 -100t199.5 -43q248 0 248 168q0 74 -69 113t-166 55t-193.5 40.5t-165 93.5t-68.5 187q0 92 41 159t106.5 98.5t127 45t122.5 13.5q70 0 132.5 -15.5t100.5 -34t71.5 -45t43 -36.5t17.5 -21l-115 -94q-12 10 -33.5 26.5t-87 44t-129.5 27.5 q-236 0 -235 -168q0 -59 49 -95t123 -49t159 -34.5t158.5 -48.5t122.5 -93.5t49 -168.5q0 -123 -98 -219t-311 -96q-170 0 -286 71.5t-163 157.5z" />
<glyph unicode="t" horiz-adv-x="653" d="M8 936v147h191v371h161v-371h267v-147h-267v-645q0 -33 3.5 -52.5t13.5 -49t41 -45t78 -15.5l131 18v-147q-45 -18 -170 -18t-191.5 65.5t-66.5 245.5v643h-191z" />
<glyph unicode="u" horiz-adv-x="1216" d="M143 1083h162v-708q0 -246 234 -246q174 0 271 105.5t97 293.5v555h162v-1083h-162l-41 133q-129 -152 -329 -151q-113 0 -193 33.5t-122 91t-60.5 123t-18.5 141.5v712z" />
<glyph unicode="v" horiz-adv-x="1073" d="M12 1083h176l349 -888l348 888h176l-447 -1083h-155z" />
<glyph unicode="w" horiz-adv-x="1581" d="M16 1083h177l260 -862l247 862h181l247 -862l261 862h176l-361 -1083h-149l-264 813l-265 -813h-149z" />
<glyph unicode="x" horiz-adv-x="946" d="M14 0l375 547l-366 536h192l262 -401l266 401h179l-357 -522l367 -561h-193l-270 428l-276 -428h-179z" />
<glyph unicode="y" horiz-adv-x="1075" d="M12 1083h178l345 -872l356 872h176l-457 -1083q-57 -137 -107 -217t-111.5 -117t-112 -45t-144.5 -8v147q147 0 205.5 48.5t116.5 199.5z" />
<glyph unicode="z" horiz-adv-x="860" d="M41 0v147l565 789h-528v147h723v-145l-568 -791h580v-147h-772z" />
<glyph unicode="{" horiz-adv-x="913" d="M174 559v141q143 2 193.5 65.5t50.5 178.5v289q0 176 68.5 264t244.5 88h131v-158h-55q-125 0 -175 -48t-50 -177v-254q0 -131 -49.5 -208.5t-174.5 -110.5q125 -35 174.5 -111t49.5 -207v-254q0 -129 50 -177t175 -48h55v-158h-131q-176 0 -244.5 88t-68.5 265v288 q0 115 -50.5 178.5t-193.5 65.5z" />
<glyph unicode="|" horiz-adv-x="499" d="M174 -369v1842h152v-1842h-152z" />
<glyph unicode="}" horiz-adv-x="913" d="M51 -168h55q125 0 175.5 48t50.5 177v254q0 131 49 207t174 111q-125 33 -174 110.5t-49 208.5v254q0 129 -50.5 177t-175.5 48h-55v158h131q176 0 245 -88t69 -264v-289q0 -115 50 -178.5t193 -65.5v-141q-143 -2 -193 -65.5t-50 -178.5v-288q0 -176 -69 -264.5 t-245 -88.5h-131v158z" />
<glyph unicode="~" horiz-adv-x="1228" d="M23 582q4 10 13 25.5t43 54t71.5 69.5t100 55.5t132.5 24.5q55 0 113.5 -23.5t92.5 -46t95 -67.5q106 -80 170 -80q47 0 97 39t77 80l29 39l149 -115q-4 -10 -13 -25.5t-41 -55.5t-68.5 -70.5t-99 -55t-130.5 -24.5q-135 0 -305 137l-29 20q-20 14 -27.5 20.5t-24.5 16.5 t-28.5 14t-27 8.5t-29.5 4.5q-45 0 -96 -43t-78 -84l-29 -43z" />
<glyph unicode="&#xa1;" horiz-adv-x="503" d="M154 854v231h196v-231h-196zM160 59l37 619h108l39 -619v-428h-184v428z" />
<glyph unicode="&#xa2;" d="M133 709q0 233 113.5 386.5t318.5 184.5v193h121v-185q143 -6 242.5 -84t142.5 -174l-129 -74q-98 170 -256 183v-822q197 12 272 170l132 -67q-43 -100 -142.5 -172t-261.5 -80v-168h-121v174q-186 29 -309 171.5t-123 363.5zM295 709q0 -164 78 -260.5t192 -122.5v804 q-270 -61 -270 -421z" />
<glyph unicode="&#xa3;" d="M102 0v164q106 47 149.5 114.5t43.5 210.5v226h-164v153h164v74q0 104 19.5 193.5t63.5 168t127 124t200 45.5q190 0 319 -160l-119 -94q-68 100 -200 100q-74 0 -122 -29.5t-71 -88t-30 -117t-7 -142.5v-74h440v-153h-440v-226q0 -133 -26.5 -209.5t-122.5 -119.5h379 q199 0 288 155l121 -106q-129 -209 -409 -209h-603z" />
<glyph unicode="&#xa4;" horiz-adv-x="1284" d="M82 106l180 160q-90 123 -90 277q0 150 90 276l-180 160l123 123l160 -182q125 92 276.5 92t273.5 -90l162 180l125 -123l-182 -162q90 -123 90 -274q0 -154 -90 -277l182 -160l-125 -124l-159 180q-125 -88 -277 -88t-276 88l-160 -180zM348 543q0 -121 86 -208t207 -87 q123 0 208 86t85 209t-86 208t-207 85t-207 -86t-86 -207z" />
<glyph unicode="&#xa5;" d="M57 1454h197l352 -713l350 713h195l-369 -723h291v-184h-383v-139h383v-181h-383v-227h-172v227h-383v181h383v139h-383v184h289z" />
<glyph unicode="&#xa6;" horiz-adv-x="477" d="M150 0v596h178v-596h-178zM150 877v596h178v-596h-178z" />
<glyph unicode="&#xa7;" d="M193 748q0 147 120 249q-121 80 -120 236q0 115 65.5 191.5t157.5 105.5t207 29q246 0 393 -177l-127 -92q-53 57 -127 86t-139 29q-139 0 -198.5 -49t-59.5 -123q0 -57 48 -94t120.5 -52.5t156.5 -40t157 -54t121 -99.5t48 -174q0 -145 -123 -250q123 -80 123 -236 q0 -115 -65.5 -191.5t-158 -105t-206.5 -28.5q-246 0 -393 176l126 92q53 -57 127 -86t140 -29q139 0 198.5 49.5t59.5 122.5q0 57 -48 94.5t-121 52.5t-157 39.5t-156.5 54.5t-120.5 100t-48 174zM365 748q0 -29 8 -52.5t30.5 -43t38 -31t56.5 -24.5l58 -18.5t70.5 -17.5 t69.5 -16q53 27 78 44t47.5 51t22.5 79q0 29 -8.5 53.5t-31 43t-38.5 29.5t-56 24.5t-59.5 18.5t-70.5 17l-68 17q-39 -18 -56.5 -28.5t-43 -32t-36.5 -49t-11 -64.5z" />
<glyph unicode="&#xa8;" horiz-adv-x="958" d="M205 1262v211h190v-211h-190zM563 1262v211h191v-211h-191z" />
<glyph unicode="&#xa9;" horiz-adv-x="1634" d="M72 727q0 309 218 527.5t527 218.5t527.5 -218.5t218.5 -527.5t-218.5 -527t-527.5 -218t-527 218t-218 527zM225 727q0 -248 172 -423t420 -175t420 175t172 423t-172 423t-420 175t-420 -175t-172 -423zM430 711q0 197 103.5 315.5t289.5 118.5q117 0 195 -58.5 t112 -134.5l-110 -59q-23 39 -38 58.5t-57 43t-102 23.5q-111 0 -183.5 -69.5t-72.5 -237.5q0 -135 74 -204t176 -69q158 0 217 119l111 -57q-35 -78 -116 -133.5t-212 -55.5q-162 0 -274.5 109t-112.5 291z" />
<glyph unicode="&#xaa;" horiz-adv-x="671" d="M20 922q0 92 73 158.5t233 66.5q193 0 192 96q0 59 -48 92t-120 33q-123 0 -198 -96l-84 78q4 4 10 13t31.5 29.5t54.5 37t78 30t104 13.5q145 0 214 -75t69 -208v-445q0 -35 22 -34v-21h-88q-47 0 -47 68v14q-94 -94 -227 -94q-129 0 -199 66.5t-70 177.5zM152 909 q0 -57 38.5 -94t102.5 -37q76 0 125 23.5t68.5 70t25.5 84t6 95.5v61q-39 -63 -178 -63q-66 0 -106.5 -13.5t-57 -38t-20.5 -43t-4 -45.5z" />
<glyph unicode="&#xab;" horiz-adv-x="1165" d="M92 559v66l383 458l135 -112l-317 -379l319 -381l-135 -113zM522 559v66l383 458l135 -112l-317 -379l319 -381l-135 -113z" />
<glyph unicode="&#xac;" horiz-adv-x="1228" d="M166 506v153h895v-528h-172v375h-723z" />
<glyph unicode="&#xad;" horiz-adv-x="946" d="M123 514v174h700v-174h-700z" />
<glyph unicode="&#xae;" horiz-adv-x="1634" d="M72 727q0 309 218 527.5t527 218.5t527.5 -218.5t218.5 -527.5t-218.5 -527t-527.5 -218t-527 218t-218 527zM225 727q0 -248 172 -423t420 -175t420 175t172 423t-172 423t-420 175t-420 -175t-172 -423zM494 322v811h344q285 0 284 -246q0 -109 -41 -163t-135 -79 l232 -323h-162l-219 311h-168v-311h-135zM629 752h162q117 0 157.5 24.5t40.5 110.5q0 80 -39 103.5t-143 23.5h-178v-262z" />
<glyph unicode="&#xb0;" horiz-adv-x="954" d="M205 1200q0 113 80 193t192.5 80t192.5 -80t80 -193t-80 -192.5t-192.5 -79.5t-192.5 79.5t-80 192.5zM360 1200q0 -47 35 -82t82 -35t82 35t35 82t-35 82t-82 35t-82 -35t-35 -82z" />
<glyph unicode="&#xb1;" horiz-adv-x="1228" d="M172 0v168h883v-168h-883zM172 639v154h350v352h187v-352h346v-154h-346v-352h-187v352h-350z" />
<glyph unicode="&#xb2;" horiz-adv-x="798" d="M92 551v133q0 70 32 129t78 97t101 77l101 69q46 30 78 69.5t32 84.5q0 70 -37 101.5t-88 31.5q-119 0 -207 -94l-86 97q123 127 293 127q127 0 195.5 -68t68.5 -195q0 -82 -43 -146.5t-105 -106.5l-124 -79q-61 -38 -104.5 -88.5t-43.5 -109.5h449v-129h-590z" />
<glyph unicode="&#xb3;" horiz-adv-x="798" d="M92 684l96 86q78 -100 218 -100q74 0 119.5 40t45.5 121q0 88 -50 118t-148 30v127q88 0 131 23.5t43 97.5q0 117 -141 116q-115 0 -199 -94l-92 84q98 139 291 140q113 0 196.5 -62.5t83.5 -183.5q0 -139 -135 -185q160 -47 160 -211q0 -131 -76 -210.5t-229 -79.5 q-90 0 -178.5 37.5t-135.5 105.5z" />
<glyph unicode="&#xb4;" horiz-adv-x="763" d="M205 1167l166 306h188l-213 -306h-141z" />
<glyph unicode="&#xb5;" horiz-adv-x="1232" d="M154 1083h161v-708q0 -246 234 -246q174 0 271.5 105.5t97.5 293.5v555h161v-1083h-161l-41 133q-129 -152 -330 -151q-141 0 -232 55v-406h-161v1452z" />
<glyph unicode="&#x3bc;" horiz-adv-x="1232" d="M154 1083h161v-708q0 -246 234 -246q174 0 271.5 105.5t97.5 293.5v555h161v-1083h-161l-41 133q-129 -152 -330 -151q-141 0 -232 55v-406h-161v1452z" />
<glyph unicode="&#xb6;" horiz-adv-x="1484" d="M147 1016q0 182 127 310t310 128h696v-170h-180v-1534h-164v1534h-186v-1534h-166v832q-182 0 -309.5 127t-127.5 307z" />
<glyph unicode="&#xb7;" horiz-adv-x="358" d="M82 545v231h194v-231h-194z" />
<glyph unicode="&#xb8;" horiz-adv-x="837" d="M205 -242l92 328l129 -33l-47 -166q39 39 88 39q82 0 124 -44t42 -122q0 -72 -52.5 -127t-144.5 -63v119q82 16 82 75q0 53 -65 54q-45 0 -83 -28t-55 -56l-16 -27z" />
<glyph unicode="&#xb9;" horiz-adv-x="798" d="M246 1190v129q10 0 21.5 1t40 9t50 22.5t39 46.5t17.5 75h139v-902h-139v619h-168z" />
<glyph unicode="&#xba;" horiz-adv-x="870" d="M61 1073q0 168 107.5 284t267.5 116t266.5 -116t106.5 -284t-106.5 -281.5t-266.5 -113.5t-267.5 114.5t-107.5 280.5zM178 1073q0 -117 73 -204t185.5 -87t185 87t72.5 204q0 119 -72.5 207t-185 88t-185.5 -88t-73 -207z" />
<glyph unicode="&#xbb;" horiz-adv-x="1165" d="M123 211l319 381l-317 379l135 112l383 -458v-66l-385 -461zM553 211l319 381l-317 379l135 112l383 -458v-66l-385 -461z" />
<glyph unicode="&#xbc;" horiz-adv-x="1740" d="M160 1190v129q10 0 21.5 1t40 9t50 22.5t39 46.5t17.5 75h139v-902h-139v619h-168zM276 0l951 1454h164l-953 -1454h-162zM905 160v129l338 610h146l-336 -610h243v274h140v-274h120v-129h-120v-160h-140v160h-391z" />
<glyph unicode="&#xbd;" horiz-adv-x="1740" d="M66 1190v129q10 0 21 1t40 9t50.5 22.5t38.5 46.5t17 75h140v-902h-140v619h-167zM182 0l951 1454h163l-952 -1454h-162zM1032 0v133q0 70 32 129.5t78 97t101 76.5l102 69q46 30 77.5 69.5t31.5 84.5q0 70 -37 102t-88 32q-119 0 -207 -95l-86 97q123 127 293 127 q127 0 195.5 -68t68.5 -195q0 -68 -30.5 -125t-77.5 -94t-101.5 -74.5l-101.5 -67.5t-77.5 -74t-30.5 -95h448v-129h-590z" />
<glyph unicode="&#xbe;" horiz-adv-x="1740" d="M61 684l97 86q78 -100 217 -100q74 0 120 40t46 121q0 88 -50.5 118t-148.5 30v127q88 0 131 23.5t43 97.5q0 117 -141 116q-115 0 -199 -94l-92 84q98 139 291 140q113 0 196.5 -62.5t83.5 -183.5q0 -139 -135 -185q160 -47 160 -211q0 -131 -76 -210.5t-229 -79.5 q-90 0 -178.5 37.5t-135.5 105.5zM373 0l950 1454h164l-952 -1454h-162zM1001 160v129l338 610h146l-336 -610h244v274h139v-274h121v-129h-121v-160h-139v160h-392z" />
<glyph unicode="&#xbf;" horiz-adv-x="1073" d="M51 0q0 88 39 156.5t95 114.5l113 91q56 45 95 107.5t39 142.5v66h182v-84q0 -80 -27.5 -145.5t-68.5 -105.5t-90 -82l-90 -75q-41 -33 -68.5 -82t-27.5 -108q0 -100 62.5 -159.5t180.5 -59.5q98 0 202 62.5t163 148.5l131 -117q-84 -115 -216 -186.5t-280 -71.5 q-186 0 -310 98.5t-124 288.5zM426 854v231h195v-231h-195z" />
<glyph unicode="&#xc0;" horiz-adv-x="1327" d="M6 0l588 1454h137l590 -1454h-184l-187 471h-573l-187 -471h-184zM340 1923h188l166 -305h-141zM436 625h453l-227 567z" />
<glyph unicode="&#xc1;" horiz-adv-x="1327" d="M6 0l588 1454h137l590 -1454h-184l-187 471h-573l-187 -471h-184zM436 625h453l-227 567zM637 1618l166 305h188l-213 -305h-141z" />
<glyph unicode="&#xc2;" horiz-adv-x="1327" d="M6 0l588 1454h137l590 -1454h-184l-187 471h-573l-187 -471h-184zM403 1618l191 305h135l193 -305h-138l-122 172l-121 -172h-138zM436 625h453l-227 567z" />
<glyph unicode="&#xc3;" horiz-adv-x="1327" d="M6 0l588 1454h137l590 -1454h-184l-187 471h-573l-187 -471h-184zM322 1712q10 16 27.5 41t71.5 65t107 40q63 0 144.5 -58.5t122.5 -58.5q57 0 114 82l97 -70q-10 -16 -27.5 -38.5t-71 -61.5t-106.5 -39q-68 0 -150 58.5t-116 58.5q-25 0 -53.5 -22.5t-45.5 -45.5 l-16 -23zM436 625h453l-227 567z" />
<glyph unicode="&#xc4;" horiz-adv-x="1327" d="M6 0l588 1454h137l590 -1454h-184l-187 471h-573l-187 -471h-184zM389 1618v211h191v-211h-191zM436 625h453l-227 567zM748 1618v211h190v-211h-190z" />
<glyph unicode="&#xc5;" horiz-adv-x="1327" d="M6 0l549 1358q-98 61 -98 176q0 84 60.5 144.5t144 60.5t145 -60.5t61.5 -144.5q0 -115 -100 -174l553 -1360h-184l-187 471h-573l-187 -471h-184zM436 625h453l-227 567zM582 1534q0 -33 20.5 -55.5t50.5 -24.5h9q35 0 58 23.5t23 56.5t-24.5 56.5t-57 23.5t-56 -23.5 t-23.5 -56.5z" />
<glyph unicode="&#xc6;" horiz-adv-x="1824" d="M-6 0l698 1454h1047v-154h-768v-469h645v-153h-645v-524h788v-154h-960v471h-393l-224 -471h-188zM475 625h324v675z" />
<glyph unicode="&#xc7;" horiz-adv-x="1378" d="M92 727q0 319 189.5 532.5t472.5 213.5q201 0 342 -90.5t215 -249.5l-146 -84q-119 270 -411 270q-209 0 -349.5 -169t-140.5 -423q0 -258 139.5 -425t350.5 -167q297 0 411 266l146 -82q-156 -338 -557 -337q-16 0 -78 4l-27 -99q39 39 88 39q82 0 124 -44t42 -122 q0 -72 -52 -127t-144 -63v119q82 16 81 75q0 53 -65 54q-45 0 -83 -28t-54 -56l-17 -27l-94 51l72 256q-205 70 -330 261.5t-125 451.5z" />
<glyph unicode="&#xc8;" horiz-adv-x="1181" d="M156 0v1454h940v-154h-768v-469h645v-153h-645v-524h788v-154h-960zM414 1923h188l166 -305h-141z" />
<glyph unicode="&#xc9;" horiz-adv-x="1181" d="M156 0v1454h940v-154h-768v-469h645v-153h-645v-524h788v-154h-960zM414 1618l166 305h188l-213 -305h-141z" />
<glyph unicode="&#xca;" horiz-adv-x="1181" d="M156 0v1454h940v-154h-768v-469h645v-153h-645v-524h788v-154h-960zM332 1618l190 305h135l193 -305h-137l-123 172l-121 -172h-137z" />
<glyph unicode="&#xcb;" horiz-adv-x="1181" d="M156 0v1454h940v-154h-768v-469h645v-153h-645v-524h788v-154h-960zM367 1618v211h190v-211h-190zM725 1618v211h190v-211h-190z" />
<glyph unicode="&#xcc;" horiz-adv-x="475" d="M59 1923h189l166 -305h-142zM152 0v1454h172v-1454h-172z" />
<glyph unicode="&#xcd;" horiz-adv-x="475" d="M59 1618l166 305h189l-213 -305h-142zM152 0v1454h172v-1454h-172z" />
<glyph unicode="&#xce;" horiz-adv-x="475" d="M-20 1638l190 306h135l193 -306h-138l-122 172l-121 -172h-137zM152 0v1454h172v-1454h-172z" />
<glyph unicode="&#xcf;" horiz-adv-x="475" d="M-37 1618v211h191v-211h-191zM152 0v1454h172v-1454h-172zM322 1618v211h190v-211h-190z" />
<glyph unicode="&#xd0;" horiz-adv-x="1431" d="M10 653v154h187v647h452q94 0 181.5 -16.5t183.5 -65.5t165.5 -127t115.5 -211t46 -307t-46 -307t-115.5 -211t-165.5 -127t-183.5 -65.5t-181.5 -16.5h-452v653h-187zM369 154h288q98 0 183.5 26.5t162 86t121.5 177t45 283.5t-45 283.5t-121.5 177t-161.5 86t-184 26.5 h-288v-493h219v-154h-219v-499z" />
<glyph unicode="&#xd1;" horiz-adv-x="1415" d="M156 0v1454h172l759 -1171v1171h173v-1454h-173l-759 1171v-1171h-172zM365 1712q10 16 27.5 41t71.5 65t107 40q63 0 144.5 -58.5t122.5 -58.5q57 0 114 82l97 -70q-10 -16 -27.5 -38.5t-71 -61.5t-106.5 -39q-68 0 -150 58.5t-116 58.5q-25 0 -53.5 -22.5t-45.5 -45.5 l-16 -23z" />
<glyph unicode="&#xd2;" horiz-adv-x="1585" d="M92 727q0 303 202 524.5t499 221.5t498.5 -221.5t201.5 -524.5t-201.5 -524t-498.5 -221t-499 221t-202 524zM264 727q0 -238 151.5 -414t377 -176t377 176t151.5 414t-151.5 414t-377 176t-377 -176t-151.5 -414zM508 1923h188l166 -305h-141z" />
<glyph unicode="&#xd3;" horiz-adv-x="1585" d="M92 727q0 303 202 524.5t499 221.5t498.5 -221.5t201.5 -524.5t-201.5 -524t-498.5 -221t-499 221t-202 524zM264 727q0 -238 151.5 -414t377 -176t377 176t151.5 414t-151.5 414t-377 176t-377 -176t-151.5 -414zM723 1618l166 305h188l-213 -305h-141z" />
<glyph unicode="&#xd4;" horiz-adv-x="1585" d="M92 727q0 303 202 524.5t499 221.5t498.5 -221.5t201.5 -524.5t-201.5 -524t-498.5 -221t-499 221t-202 524zM264 727q0 -238 151.5 -414t377 -176t377 176t151.5 414t-151.5 414t-377 176t-377 -176t-151.5 -414zM535 1618l190 305h135l193 -305h-138l-122 172 l-121 -172h-137z" />
<glyph unicode="&#xd5;" horiz-adv-x="1585" d="M92 727q0 303 202 524.5t499 221.5t498.5 -221.5t201.5 -524.5t-201.5 -524t-498.5 -221t-499 221t-202 524zM264 727q0 -238 151.5 -414t377 -176t377 176t151.5 414t-151.5 414t-377 176t-377 -176t-151.5 -414zM451 1712q10 16 27.5 41t71.5 65t107 40 q63 0 144.5 -58.5t122.5 -58.5q57 0 114 82l97 -70q-10 -16 -27.5 -38.5t-71 -61.5t-106.5 -39q-68 0 -150 58.5t-116 58.5q-25 0 -53.5 -22.5t-45.5 -45.5l-16 -23z" />
<glyph unicode="&#xd6;" horiz-adv-x="1585" d="M92 727q0 303 202 524.5t499 221.5t498.5 -221.5t201.5 -524.5t-201.5 -524t-498.5 -221t-499 221t-202 524zM264 727q0 -238 151.5 -414t377 -176t377 176t151.5 414t-151.5 414t-377 176t-377 -176t-151.5 -414zM518 1618v211h191v-211h-191zM877 1618v211h190v-211 h-190z" />
<glyph unicode="&#xd7;" horiz-adv-x="1228" d="M174 254l328 328l-328 329l111 111l329 -328l328 328l113 -111l-330 -329l330 -328l-113 -113l-328 330l-329 -330z" />
<glyph unicode="&#xd8;" horiz-adv-x="1585" d="M92 727q0 303 202 524.5t499 221.5q190 0 352 -101l127 170l155 -108l-137 -183q203 -219 203 -524q0 -303 -201.5 -524t-498.5 -221q-203 0 -367 108l-150 -203l-149 111l158 213q-193 219 -193 516zM264 727q0 -211 123 -379l662 895q-121 74 -256 74q-225 0 -377 -176 t-152 -414zM522 219q125 -82 271 -82q225 0 376.5 176t151.5 414q0 221 -131 387z" />
<glyph unicode="&#xd9;" horiz-adv-x="1454" d="M143 664v790h172v-772q0 -547 406 -547q221 0 319.5 149.5t98.5 395.5v774h172v-790q0 -156 -27 -273t-90.5 -213t-182 -146t-290.5 -50q-174 0 -290 44t-178.5 137t-86 211t-23.5 290zM549 1923h188l166 -305h-141z" />
<glyph unicode="&#xda;" horiz-adv-x="1454" d="M143 664v790h172v-772q0 -547 406 -547q221 0 319.5 149.5t98.5 395.5v774h172v-790q0 -156 -27 -273t-90.5 -213t-182 -146t-290.5 -50q-174 0 -290 44t-178.5 137t-86 211t-23.5 290zM549 1618l166 305h188l-213 -305h-141z" />
<glyph unicode="&#xdb;" horiz-adv-x="1454" d="M143 664v790h172v-772q0 -547 406 -547q221 0 319.5 149.5t98.5 395.5v774h172v-790q0 -156 -27 -273t-90.5 -213t-182 -146t-290.5 -50q-174 0 -290 44t-178.5 137t-86 211t-23.5 290zM467 1618l190 305h136l192 -305h-137l-123 172l-121 -172h-137z" />
<glyph unicode="&#xdc;" horiz-adv-x="1454" d="M143 664v790h172v-772q0 -547 406 -547q221 0 319.5 149.5t98.5 395.5v774h172v-790q0 -156 -27 -273t-90.5 -213t-182 -146t-290.5 -50q-174 0 -290 44t-178.5 137t-86 211t-23.5 290zM453 1618v211h190v-211h-190zM811 1618v211h190v-211h-190z" />
<glyph unicode="&#xdd;" horiz-adv-x="1179" d="M2 1454h197l393 -713l391 713h195l-502 -907v-547h-172v549zM412 1538l166 305h188l-213 -305h-141z" />
<glyph unicode="&#xde;" horiz-adv-x="1234" d="M156 0v1454h172v-289h352q518 0 518 -440q0 -227 -123 -332.5t-395 -105.5h-352v-287h-172zM328 440h350q197 0 272.5 65.5t75.5 219.5q0 164 -77 224.5t-296 60.5h-325v-570z" />
<glyph unicode="&#xdf;" horiz-adv-x="1142" d="M154 0v1032q0 211 103 326t314 115q174 0 273.5 -114t99.5 -306q0 -92 -50 -178.5t-136 -126.5q100 -16 182 -112.5t82 -242.5q0 -223 -122 -317t-413 -94v155q197 0 280 56.5t83 199.5q0 248 -334 248v172q111 0 183.5 63.5t72.5 176.5q0 115 -54 189.5t-157 74.5 q-236 0 -235 -285v-1032h-172z" />
<glyph unicode="&#xe0;" horiz-adv-x="1056" d="M86 326q0 131 102.5 224t327.5 93q41 0 80 5t86 17.5t75.5 41t28.5 71.5q0 86 -67.5 131t-167.5 45q-174 0 -281 -135l-118 111q4 6 14 18.5t45 42t77 52t110.5 41t146.5 18.5q205 0 302 -105.5t97 -291.5v-627q0 -49 31 -49v-29h-123q-68 0 -68 94v23 q-131 -135 -319 -135q-180 0 -279.5 93t-99.5 251zM268 1552h189l166 -305h-142zM272 309q0 -82 54.5 -134t144.5 -52q86 0 148.5 25.5t94 60.5t49 93t20.5 100t3 106v86q-53 -88 -249 -88q-92 0 -150.5 -18.5t-80 -53.5t-28 -60.5t-6.5 -64.5z" />
<glyph unicode="&#xe1;" horiz-adv-x="1056" d="M86 326q0 131 102.5 224t327.5 93q41 0 80 5t86 17.5t75.5 41t28.5 71.5q0 86 -67.5 131t-167.5 45q-174 0 -281 -135l-118 111q4 6 14 18.5t45 42t77 52t110.5 41t146.5 18.5q205 0 302 -105.5t97 -291.5v-627q0 -49 31 -49v-29h-123q-68 0 -68 94v23 q-131 -135 -319 -135q-180 0 -279.5 93t-99.5 251zM272 309q0 -82 54.5 -134t144.5 -52q86 0 148.5 25.5t94 60.5t49 93t20.5 100t3 106v86q-53 -88 -249 -88q-92 0 -150.5 -18.5t-80 -53.5t-28 -60.5t-6.5 -64.5zM481 1247l166 305h189l-213 -305h-142z" />
<glyph unicode="&#xe2;" horiz-adv-x="1056" d="M86 326q0 131 102.5 224t327.5 93q41 0 80 5t86 17.5t75.5 41t28.5 71.5q0 86 -67.5 131t-167.5 45q-174 0 -281 -135l-118 111q4 6 14 18.5t45 42t77 52t110.5 41t146.5 18.5q205 0 302 -105.5t97 -291.5v-627q0 -49 31 -49v-29h-123q-68 0 -68 94v23 q-131 -135 -319 -135q-180 0 -279.5 93t-99.5 251zM272 309q0 -82 54.5 -134t144.5 -52q86 0 148.5 25.5t94 60.5t49 93t20.5 100t3 106v86q-53 -88 -249 -88q-92 0 -150.5 -18.5t-80 -53.5t-28 -60.5t-6.5 -64.5zM287 1247l190 305h135l193 -305h-137l-123 172l-121 -172 h-137z" />
<glyph unicode="&#xe3;" horiz-adv-x="1056" d="M86 326q0 131 102.5 224t327.5 93q41 0 80 5t86 17.5t75.5 41t28.5 71.5q0 86 -67.5 131t-167.5 45q-174 0 -281 -135l-118 111q4 6 14 18.5t45 42t77 52t110.5 41t146.5 18.5q205 0 302 -105.5t97 -291.5v-627q0 -49 31 -49v-29h-123q-68 0 -68 94v23 q-131 -135 -319 -135q-180 0 -279.5 93t-99.5 251zM207 1341q10 16 27.5 41t71.5 65t108 40q63 0 144 -58.5t122 -58.5q57 0 115 82l96 -70q-10 -16 -27.5 -38.5t-71 -61.5t-106.5 -39q-68 0 -149.5 58.5t-116.5 58.5q-25 0 -53.5 -22.5t-44.5 -45.5l-17 -22zM272 309 q0 -82 54.5 -134t144.5 -52q86 0 148.5 25.5t94 60.5t49 93t20.5 100t3 106v86q-53 -88 -249 -88q-92 0 -150.5 -18.5t-80 -53.5t-28 -60.5t-6.5 -64.5z" />
<glyph unicode="&#xe4;" horiz-adv-x="1056" d="M86 326q0 131 102.5 224t327.5 93q41 0 80 5t86 17.5t75.5 41t28.5 71.5q0 86 -67.5 131t-167.5 45q-174 0 -281 -135l-118 111q4 6 14 18.5t45 42t77 52t110.5 41t146.5 18.5q205 0 302 -105.5t97 -291.5v-627q0 -49 31 -49v-29h-123q-68 0 -68 94v23 q-131 -135 -319 -135q-180 0 -279.5 93t-99.5 251zM272 309q0 -82 54.5 -134t144.5 -52q86 0 148.5 25.5t94 60.5t49 93t20.5 100t3 106v86q-53 -88 -249 -88q-92 0 -150.5 -18.5t-80 -53.5t-28 -60.5t-6.5 -64.5zM272 1247v211h191v-211h-191zM631 1247v211h190v-211h-190z " />
<glyph unicode="&#xe5;" horiz-adv-x="1056" d="M86 326q0 131 102.5 224t327.5 93q41 0 80 5t86 17.5t75.5 41t28.5 71.5q0 86 -67.5 131t-167.5 45q-174 0 -281 -135l-118 111q4 6 14 18.5t45 42t77 52t110.5 41t146.5 18.5q205 0 302 -105.5t97 -291.5v-627q0 -49 31 -49v-29h-123q-68 0 -68 94v23 q-131 -135 -319 -135q-180 0 -279.5 93t-99.5 251zM272 309q0 -82 54.5 -134t144.5 -52q86 0 148.5 25.5t94 60.5t49 93t20.5 100t3 106v86q-53 -88 -249 -88q-92 0 -150.5 -18.5t-80 -53.5t-28 -60.5t-6.5 -64.5zM340 1460q0 84 60.5 144.5t144.5 60.5t145.5 -60.5 t61.5 -144.5t-61.5 -144.5t-145.5 -60.5t-144.5 60.5t-60.5 144.5zM465 1460q0 -35 23.5 -57.5t56.5 -22.5q35 0 58.5 23.5t23.5 56.5t-24.5 56.5t-57.5 23.5t-56.5 -23.5t-23.5 -56.5z" />
<glyph unicode="&#xe6;" horiz-adv-x="1898" d="M86 326q0 131 102.5 224t327.5 93q41 0 80 5t86 17.5t75.5 41t28.5 71.5q0 86 -67.5 131t-167.5 45q-174 0 -281 -135l-118 111q4 6 14 18.5t45 42t77 52t110.5 41t146.5 18.5q262 0 356 -187q139 186 397 187q129 0 230.5 -47t162 -126t91 -173t30.5 -197v-61h-864 q8 -164 105.5 -266.5t257.5 -102.5q190 0 317 156l127 -74q-158 -229 -444 -229q-115 0 -239 52t-202 173q-115 -225 -405 -225q-180 0 -279.5 93t-99.5 251zM272 309q0 -82 54.5 -134t144.5 -52q86 0 148.5 25.5t94 60.5t49 93t20.5 100t3 106v86q-53 -88 -249 -88 q-92 0 -150.5 -18.5t-80 -53.5t-28 -60.5t-6.5 -64.5zM956 645h695q-4 35 -14.5 70t-36 81t-61.5 78.5t-98.5 56t-142.5 23.5q-133 0 -225 -76.5t-117 -232.5z" />
<glyph unicode="&#xe7;" horiz-adv-x="1089" d="M82 522q0 260 139 420t389 160q154 0 259.5 -79t150.5 -179l-129 -74q-104 184 -281 184q-160 0 -263 -102t-103 -330q0 -195 108.5 -294t247.5 -99q223 0 307 172l131 -68q-45 -104 -153.5 -177.5t-284.5 -73.5q-25 0 -70 4l-26 -99q39 39 88 39q82 0 124 -44t42 -122 q0 -72 -52.5 -127t-144.5 -63v119q82 16 82 75q0 53 -65 54q-45 0 -83 -28t-55 -56l-16 -27l-94 51l73 260q-145 57 -233 188.5t-88 315.5z" />
<glyph unicode="&#xe8;" horiz-adv-x="1193" d="M82 535q0 238 132 402.5t380 164.5q129 0 230.5 -47t162 -126t91 -173t30.5 -197v-61h-864q8 -164 105 -266.5t257 -102.5q190 0 318 156l127 -74q-158 -229 -445 -229q-78 0 -158.5 24.5t-167.5 80.5t-142.5 172t-55.5 276zM252 645h694q-4 35 -14 70t-36 81t-61.5 78.5 t-98 56t-142.5 23.5q-133 0 -225 -76.5t-117 -232.5zM309 1552h189l166 -305h-142z" />
<glyph unicode="&#xe9;" horiz-adv-x="1193" d="M82 535q0 238 132 402.5t380 164.5q129 0 230.5 -47t162 -126t91 -173t30.5 -197v-61h-864q8 -164 105 -266.5t257 -102.5q190 0 318 156l127 -74q-158 -229 -445 -229q-78 0 -158.5 24.5t-167.5 80.5t-142.5 172t-55.5 276zM252 645h694q-4 35 -14 70t-36 81t-61.5 78.5 t-98 56t-142.5 23.5q-133 0 -225 -76.5t-117 -232.5zM524 1247l166 305h189l-213 -305h-142z" />
<glyph unicode="&#xea;" horiz-adv-x="1193" d="M82 535q0 238 132 402.5t380 164.5q129 0 230.5 -47t162 -126t91 -173t30.5 -197v-61h-864q8 -164 105 -266.5t257 -102.5q190 0 318 156l127 -74q-158 -229 -445 -229q-78 0 -158.5 24.5t-167.5 80.5t-142.5 172t-55.5 276zM252 645h694q-4 35 -14 70t-36 81t-61.5 78.5 t-98 56t-142.5 23.5q-133 0 -225 -76.5t-117 -232.5zM336 1247l190 305h135l193 -305h-137l-123 172l-121 -172h-137z" />
<glyph unicode="&#xeb;" horiz-adv-x="1193" d="M82 535q0 238 132 402.5t380 164.5q129 0 230.5 -47t162 -126t91 -173t30.5 -197v-61h-864q8 -164 105 -266.5t257 -102.5q190 0 318 156l127 -74q-158 -229 -445 -229q-78 0 -158.5 24.5t-167.5 80.5t-142.5 172t-55.5 276zM252 645h694q-4 35 -14 70t-36 81t-61.5 78.5 t-98 56t-142.5 23.5q-133 0 -225 -76.5t-117 -232.5zM322 1247v211h190v-211h-190zM680 1247v211h190v-211h-190z" />
<glyph unicode="&#xec;" horiz-adv-x="456" d="M51 1552h189l166 -305h-142zM147 0v1083h162v-1083h-162z" />
<glyph unicode="&#xed;" horiz-adv-x="456" d="M51 1247l166 305h189l-213 -305h-142zM147 0v1083h162v-1083h-162z" />
<glyph unicode="&#xee;" horiz-adv-x="456" d="M-31 1247l191 305h135l192 -305h-137l-123 172l-121 -172h-137zM147 0v1083h162v-1083h-162z" />
<glyph unicode="&#xef;" horiz-adv-x="458" d="M-45 1247v211h190v-211h-190zM147 0v1083h162v-1083h-162zM313 1247v211h191v-211h-191z" />
<glyph unicode="&#xf0;" horiz-adv-x="1136" d="M82 522q0 248 127 404.5t356 156.5q123 0 213 -69q-35 94 -94 198h-389v168h283q-29 37 -41 56l147 114q68 -74 131 -170h152v-168h-58q145 -309 146 -698q0 -231 -132 -381.5t-352 -150.5q-238 0 -361.5 148t-127.5 392zM270 522q0 -176 69 -274t232 -98 q158 0 228.5 104t70.5 268q-4 395 -305 396q-295 -1 -295 -396z" />
<glyph unicode="&#xf1;" horiz-adv-x="1200" d="M143 0v1083h162l41 -133q129 152 330 152q209 0 301 -112.5t92 -276.5v-713h-162v709q0 246 -233 245q-174 0 -271.5 -105.5t-97.5 -293.5v-555h-162zM258 1341q10 16 27.5 41t72 65t107.5 40q63 0 144 -58.5t122 -58.5q57 0 115 82l96 -70q-10 -16 -27.5 -38.5 t-70.5 -61.5t-107 -39q-68 0 -149.5 58.5t-116.5 58.5q-25 0 -53.5 -22.5t-44.5 -45.5l-17 -22z" />
<glyph unicode="&#xf2;" horiz-adv-x="1216" d="M82 541q0 238 150.5 399.5t376 161.5t376 -162t150.5 -399q0 -236 -150.5 -397.5t-376 -161.5t-376 161.5t-150.5 397.5zM244 541q0 -166 103.5 -289t261 -123t261 123t103.5 289t-103.5 289.5t-261 123.5t-261 -123.5t-103.5 -289.5zM324 1552h188l166 -305h-141z" />
<glyph unicode="&#xf3;" horiz-adv-x="1216" d="M82 541q0 238 150.5 399.5t376 161.5t376 -162t150.5 -399q0 -236 -150.5 -397.5t-376 -161.5t-376 161.5t-150.5 397.5zM244 541q0 -166 103.5 -289t261 -123t261 123t103.5 289t-103.5 289.5t-261 123.5t-261 -123.5t-103.5 -289.5zM539 1247l166 305h188l-213 -305 h-141z" />
<glyph unicode="&#xf4;" horiz-adv-x="1216" d="M82 541q0 238 150.5 399.5t376 161.5t376 -162t150.5 -399q0 -236 -150.5 -397.5t-376 -161.5t-376 161.5t-150.5 397.5zM244 541q0 -166 103.5 -289t261 -123t261 123t103.5 289t-103.5 289.5t-261 123.5t-261 -123.5t-103.5 -289.5zM350 1247l191 305h135l192 -305 h-137l-123 172l-121 -172h-137z" />
<glyph unicode="&#xf5;" horiz-adv-x="1216" d="M82 541q0 238 150.5 399.5t376 161.5t376 -162t150.5 -399q0 -236 -150.5 -397.5t-376 -161.5t-376 161.5t-150.5 397.5zM244 541q0 -166 103.5 -289t261 -123t261 123t103.5 289t-103.5 289.5t-261 123.5t-261 -123.5t-103.5 -289.5zM266 1341q10 16 27.5 41t72 65 t107.5 40q63 0 144 -58.5t122 -58.5q57 0 115 82l96 -70q-10 -16 -27.5 -38.5t-70.5 -61.5t-107 -39q-68 0 -149.5 58.5t-116.5 58.5q-25 0 -53.5 -22.5t-44.5 -45.5l-16 -22z" />
<glyph unicode="&#xf6;" horiz-adv-x="1216" d="M82 541q0 238 150.5 399.5t376 161.5t376 -162t150.5 -399q0 -236 -150.5 -397.5t-376 -161.5t-376 161.5t-150.5 397.5zM244 541q0 -166 103.5 -289t261 -123t261 123t103.5 289t-103.5 289.5t-261 123.5t-261 -123.5t-103.5 -289.5zM334 1247v211h190v-211h-190z M692 1247v211h191v-211h-191z" />
<glyph unicode="&#xf7;" horiz-adv-x="1228" d="M154 449v200h923v-200h-923zM518 0v231h195v-231h-195zM518 864v232h195v-232h-195z" />
<glyph unicode="&#xf8;" horiz-adv-x="1216" d="M82 541q0 238 150.5 399.5t375.5 161.5q96 0 180 -31l82 152l168 -88l-88 -162q184 -164 185 -432q0 -236 -150.5 -397.5t-376.5 -161.5q-92 0 -178 28l-86 -160l-164 89l90 167q-188 163 -188 435zM244 541q0 -170 104 -291l369 686q-53 18 -109 18q-158 0 -261 -123.5 t-103 -289.5zM504 145q53 -16 104 -16q158 0 261.5 123t103.5 289q0 164 -101 286z" />
<glyph unicode="&#xf9;" horiz-adv-x="1216" d="M143 1083h162v-708q0 -246 234 -246q174 0 271 105.5t97 293.5v555h162v-1083h-162l-41 133q-129 -152 -329 -151q-209 0 -301.5 112.5t-92.5 276.5v712zM430 1552h188l166 -305h-141z" />
<glyph unicode="&#xfa;" horiz-adv-x="1216" d="M143 1083h162v-708q0 -246 234 -246q174 0 271 105.5t97 293.5v555h162v-1083h-162l-41 133q-129 -152 -329 -151q-209 0 -301.5 112.5t-92.5 276.5v712zM430 1247l166 305h188l-213 -305h-141z" />
<glyph unicode="&#xfb;" horiz-adv-x="1216" d="M143 1083h162v-708q0 -246 234 -246q174 0 271 105.5t97 293.5v555h162v-1083h-162l-41 133q-129 -152 -329 -151q-209 0 -301.5 112.5t-92.5 276.5v712zM348 1247l191 305h135l192 -305h-137l-123 172l-121 -172h-137z" />
<glyph unicode="&#xfc;" horiz-adv-x="1216" d="M143 1083h162v-708q0 -246 234 -246q174 0 271 105.5t97 293.5v555h162v-1083h-162l-41 133q-129 -152 -329 -151q-209 0 -301.5 112.5t-92.5 276.5v712zM332 1247v211h190v-211h-190zM690 1247v211h191v-211h-191z" />
<glyph unicode="&#xfd;" horiz-adv-x="1075" d="M12 1083h178l345 -872l356 872h176l-457 -1083q-57 -137 -107 -217t-111.5 -117t-112 -45t-144.5 -8v147q147 0 205.5 48.5t116.5 199.5zM360 1167l166 306h189l-213 -306h-142z" />
<glyph unicode="&#xfe;" horiz-adv-x="1224" d="M147 -369v1823h162v-520q53 74 151.5 121t196.5 47q225 0 376 -166t151 -397q0 -240 -148.5 -398.5t-378.5 -158.5q-223 0 -348 170v-521h-162zM299 539q0 -160 103.5 -285t259 -125t258 123t102.5 286.5t-102.5 289.5t-257.5 126q-162 0 -262.5 -115.5t-100.5 -299.5z " />
<glyph unicode="&#xff;" horiz-adv-x="1075" d="M12 1083h178l345 -872l356 872h176l-457 -1083q-57 -137 -107 -217t-111.5 -117t-112 -45t-144.5 -8v147q147 0 205.5 48.5t116.5 199.5zM262 1247v211h191v-211h-191zM621 1247v211h190v-211h-190z" />
<glyph unicode="&#x152;" horiz-adv-x="2357" d="M92 727q0 303 202 524.5t499 221.5q332 0 538 -269v250h940v-154h-768v-469h645v-153h-645v-524h789v-154h-961v250q-207 -268 -538 -268q-297 0 -499 221t-202 524zM264 727.5q0 -235.5 150.5 -404.5t378 -169t378 169t150.5 404.5t-150.5 404t-378 168.5t-378 -168.5 t-150.5 -404z" />
<glyph unicode="&#x153;" horiz-adv-x="2086" d="M82 541q0 238 150.5 399.5t375.5 161.5q139 0 256 -66.5t187 -183.5q135 250 436 250q129 0 230.5 -47t161.5 -126t91 -173t31 -197v-61h-864q8 -164 105 -266.5t257 -102.5q190 0 318 156l127 -74q-158 -229 -445 -229q-119 0 -248 57t-204 186q-70 -113 -184.5 -178 t-254.5 -65q-225 0 -375.5 161.5t-150.5 397.5zM244 541q0 -166 103.5 -289t261 -123t261 123t103.5 289t-103.5 289.5t-261 123.5t-261 -123.5t-103.5 -289.5zM1145 645h694q-4 35 -14 70t-36 81t-61.5 78.5t-98 56t-142.5 23.5q-133 0 -225 -76.5t-117 -232.5z" />
<glyph unicode="&#x178;" horiz-adv-x="1179" d="M2 1454h197l393 -713l391 713h195l-502 -907v-547h-172v549zM315 1618v211h191v-211h-191zM674 1618v211h190v-211h-190z" />
<glyph unicode="&#x2c6;" horiz-adv-x="927" d="M205 1167l190 306h135l193 -306h-137l-123 172l-121 -172h-137z" />
<glyph unicode="&#x2dc;" horiz-adv-x="1093" d="M205 1264q10 16 27.5 40.5t71.5 64.5t108 40q63 0 144 -58.5t122 -58.5q57 0 115 82l96 -69q-10 -16 -27.5 -39t-71 -62t-106.5 -39q-68 0 -149.5 58.5t-116.5 58.5q-25 0 -53.5 -22.5t-45.5 -45.5l-16 -22z" />
<glyph unicode="&#x2013;" horiz-adv-x="1169" d="M123 483v201h924v-201h-924z" />
<glyph unicode="&#x2014;" horiz-adv-x="1769" d="M123 483v201h1524v-201h-1524z" />
<glyph unicode="&#x2018;" horiz-adv-x="354" d="M82 975v217q0 111 23.5 163t111.5 99l41 -82q-51 -35 -65.5 -67.5t-14.5 -85.5v-13h98v-231h-194z" />
<glyph unicode="&#x2019;" horiz-adv-x="354" d="M82 1223v231h194v-217q0 -111 -23.5 -163t-111.5 -99l-41 82q51 35 65.5 67.5t14.5 85.5v13h-98z" />
<glyph unicode="&#x201a;" horiz-adv-x="348" d="M82 0v231h194v-217q0 -111 -23.5 -163t-111.5 -99l-41 82q51 35 65.5 67.5t14.5 86.5v12h-98z" />
<glyph unicode="&#x201c;" horiz-adv-x="661" d="M82 975v217q0 111 23.5 163t111.5 99l41 -82q-51 -35 -65.5 -67.5t-14.5 -85.5v-13h98v-231h-194zM389 975v217q0 111 23.5 163t111.5 99l41 -82q-51 -35 -65.5 -67.5t-14.5 -85.5v-13h99v-231h-195z" />
<glyph unicode="&#x201d;" horiz-adv-x="661" d="M82 1223v231h194v-217q0 -111 -23.5 -163t-111.5 -99l-41 82q51 35 65.5 67.5t14.5 85.5v13h-98zM389 1223v231h195v-217q0 -111 -23.5 -163t-111.5 -99l-41 82q51 35 65 67.5t14 85.5v13h-98z" />
<glyph unicode="&#x201e;" horiz-adv-x="655" d="M82 0v231h194v-217q0 -111 -23.5 -163t-111.5 -99l-41 82q51 35 65.5 67.5t14.5 86.5v12h-98zM389 0v231h195v-217q0 -111 -23.5 -163t-111.5 -99l-41 82q51 35 65 67.5t14 86.5v12h-98z" />
<glyph unicode="&#x2022;" horiz-adv-x="614" d="M102 590q0 84 59.5 144.5t145.5 60.5q84 0 144.5 -60.5t60.5 -144.5t-60.5 -144.5t-144.5 -60.5q-86 0 -145.5 60.5t-59.5 144.5z" />
<glyph unicode="&#x2026;" horiz-adv-x="1402" d="M123 0v231h194v-231h-194zM604 0v231h195v-231h-195zM1085 0v231h195v-231h-195z" />
<glyph unicode="&#x2039;" horiz-adv-x="679" d="M82 559v66l383 458l135 -112l-317 -379l319 -381l-135 -113z" />
<glyph unicode="&#x203a;" horiz-adv-x="679" d="M82 211l319 381l-317 379l135 112l383 -458v-66l-385 -461z" />
<glyph unicode="&#x20ac;" d="M82 522v123h113v164h-113v123h121q23 238 153.5 389.5t348.5 151.5q170 0 271 -58.5t187 -185.5l-145 -94q-98 176 -313 176q-141 0 -220 -105.5t-100 -273.5h483l-28 -123h-465v-164h426l-27 -123h-391q45 -379 322 -379q125 0 190.5 38t122.5 128l145 -86 q-150 -242 -458 -241q-451 0 -502 540h-121z" />
<glyph unicode="&#x2122;" horiz-adv-x="1421" d="M4 1350v104h590v-104h-236v-633h-118v633h-236zM653 717v737h189l196 -569l195 569h188v-737h-118v586l-218 -586h-96l-217 586v-586h-119z" />
<glyph unicode="&#xe000;" horiz-adv-x="1085" d="M0 1085h1085v-1085h-1085v1085z" />
<glyph unicode="&#xfb01;" horiz-adv-x="1009" d="M10 936v147h207v78q0 311 217 312q45 0 79 -5.5t44 -9.5l12 -4v-147q-27 18 -77 18q-70 0 -91.5 -62.5t-21.5 -179.5h190v-147h-190v-936h-162v936h-207zM696 1231v223h170v-223h-170zM700 0v1083h162v-1083h-162z" />
<glyph unicode="&#xfb02;" horiz-adv-x="1005" d="M10 936v147h207v78q0 311 217 312q45 0 79 -5.5t44 -9.5l12 -4v-147q-27 18 -77 18q-70 0 -91.5 -62.5t-21.5 -179.5h190v-147h-190v-936h-162v936h-207zM700 0v1454h162v-1454h-162z" />
<glyph unicode="&#xfb03;" horiz-adv-x="1644" d="M10 936v147h207v78q0 311 217 312q45 0 79 -5.5t44 -9.5l12 -4v-147q-27 18 -77 18q-70 0 -91.5 -62.5t-21.5 -179.5h190v-147h-190v-936h-162v936h-207zM604 936v147h207v78q0 311 217 312q45 0 79 -5.5t44 -9.5l12 -4v-147q-27 18 -78 18q-70 0 -91 -62.5t-21 -179.5 h190v-147h-190v-936h-162v936h-207zM1331 1231v223h170v-223h-170zM1335 0v1083h162v-1083h-162z" />
<glyph unicode="&#xfb04;" horiz-adv-x="1636" d="M10 936v147h207v78q0 311 217 312q45 0 79 -5.5t44 -9.5l12 -4v-147q-27 18 -77 18q-70 0 -91.5 -62.5t-21.5 -179.5h190v-147h-190v-936h-162v936h-207zM604 936v147h207v78q0 311 217 312q45 0 79 -5.5t44 -9.5l12 -4v-147q-27 18 -78 18q-70 0 -91 -62.5t-21 -179.5 h190v-147h-190v-936h-162v936h-207zM1331 0v1454h162v-1454h-162z" />
<glyph horiz-adv-x="593" />
</font>
</defs>
</svg>
