<?xml version="1.0" standalone="no"?>
<!DOCTYPE svg PUBLIC "-//W3C//DTD SVG 1.1//EN" "http://www.w3.org/Graphics/SVG/1.1/DTD/svg11.dtd" >
<svg xmlns="http://www.w3.org/2000/svg">
<metadata>
This is a custom SVG webfont generated by Font Squirrel.
Copyright   : Copyright c 2009 by The Entente AS  EH All rights reserved
Designer    : The Entente AS  EH
Foundry     : The Entente AS  EH
Foundry URL : httpwwwcolophonfoundryorg
</metadata>
<defs>
<font id="ReaderItalic" horiz-adv-x="1204" >
<font-face units-per-em="2048" ascent="1536" descent="-512" />
<missing-glyph horiz-adv-x="512" />
<glyph unicode=" "  horiz-adv-x="512" />
<glyph unicode="&#x09;" horiz-adv-x="512" />
<glyph unicode="&#xa0;" horiz-adv-x="512" />
<glyph unicode="!" horiz-adv-x="626" d="M113 0l41 231h196l-41 -231h-196zM227 408l72 618l76 428h184l-76 -428l-147 -618h-109z" />
<glyph unicode="&#x22;" horiz-adv-x="833" d="M236 971l18 256l39 227h188l-39 -227l-73 -256h-133zM543 971l18 256l39 227h188l-38 -227l-74 -256h-133z" />
<glyph unicode="#" horiz-adv-x="1228" d="M-100 416l28 151h277l129 340h-254l26 152h287l152 395h155l-151 -395h362l152 395h156l-152 -395h268l-26 -152h-301l-129 -340h278l-29 -151h-311l-158 -416h-155l158 416h-363l-158 -416h-155l157 416h-243zM360 567h363l129 340h-363z" />
<glyph unicode="$" d="M-31 281l158 75q78 -180 330 -213l96 531q-414 49 -414 307q0 35 6 72q37 201 187.5 302t363.5 115l27 156h151l-28 -160q236 -31 340 -217l-148 -82q-90 123 -221 142l-90 -500q422 -45 422 -322q0 -37 -6 -75q-33 -186 -190.5 -301t-372.5 -125l-27 -152h-152l27 156 q-182 16 -302 94t-157 197zM315 1001q0 -86 65.5 -122.5t199.5 -53.5l88 488q-305 -23 -349 -260q-4 -19 -4 -52zM606 137q164 12 255 89t110 186q6 35 6 63q0 92 -63.5 126t-213.5 54z" />
<glyph unicode="%" horiz-adv-x="1710" d="M174 0l1208 1454h164l-1210 -1454h-162zM307 987q0 55 15 137q12 74 32.5 128.5t57.5 108.5t101.5 83t152.5 29q233 0 233 -220q0 -53 -14 -129q-29 -168 -102.5 -263t-241.5 -95q-234 0 -234 221zM434 1014q0 -135 127 -135q53 0 91 20.5t58.5 62.5t31 75.5t18.5 86.5 q14 86 14 111q0 127 -127 127q-53 0 -91 -19.5t-59.5 -60.5t-30.5 -72.5t-20 -85.5q-12 -73 -12 -110zM815 203q0 55 14 137q27 156 103 252t242 96q231 0 231 -221q0 -61 -12 -127q-14 -80 -34 -136.5t-57.5 -111.5t-101 -82.5t-151.5 -27.5q-234 0 -234 221zM940 225 q0 -131 127 -131q53 0 91 20.5t59.5 62.5t30.5 75t20 88q12 70 12 109q0 129 -127 129q-53 0 -91 -20.5t-58.5 -59.5t-30.5 -73t-19 -85q-14 -86 -14 -115z" />
<glyph unicode="&#x26;" horiz-adv-x="1386" d="M51 307q0 172 105.5 290t294.5 216q-104 131 -105 258q0 166 119 284t295 118q143 0 225 -82t82 -203q0 -78 -26.5 -141.5t-85 -116.5t-106.5 -86t-134 -84l250 -350q47 53 90 111.5t63 88.5l21 33l100 -135q-68 -109 -182 -227l200 -281h-231l-108 154 q-219 -172 -431 -172q-217 0 -326.5 87.5t-109.5 237.5zM236 334q0 -199 278 -199q150 0 313 141l-284 402q-121 -61 -214 -149.5t-93 -194.5zM520 1098q0 -33 14.5 -68t32 -60.5l56.5 -78.5q61 29 95 47t83 55t72.5 82t23.5 101q0 70 -44 106.5t-120 36.5 q-90 0 -151.5 -62.5t-61.5 -158.5z" />
<glyph unicode="'" horiz-adv-x="526" d="M236 971l18 256l39 227h188l-39 -227l-73 -256h-133z" />
<glyph unicode="(" horiz-adv-x="704" d="M102 229q0 143 31 318q35 199 99.5 365.5t150.5 291.5t159.5 206t170.5 167l100 -104q-96 -86 -156.5 -153t-140.5 -179.5t-136 -261t-89 -332.5q-27 -160 -27 -297q0 -156 37 -283t75 -190.5t109 -157.5l-127 -100q-55 72 -90 128t-79 146t-65.5 199.5t-21.5 236.5z" />
<glyph unicode=")" horiz-adv-x="704" d="M-123 -381q76 70 123 118t117.5 136t117 175t92.5 218t72 281q29 164 29 309q0 209 -55.5 346t-153.5 271l123 104q244 -322 244 -719q0 -152 -29 -311q-35 -199 -99.5 -366t-151.5 -293t-159.5 -206.5t-169.5 -166.5z" />
<glyph unicode="*" horiz-adv-x="1120" d="M154 1081l77 150l322 -125l59 367h158l-72 -363l359 115l22 -154l-364 -100l162 -293l-146 -90l-149 295l-263 -291l-110 94l266 283z" />
<glyph unicode="+" horiz-adv-x="1351" d="M111 524v152h456v483h174v-483h455v-152h-455v-497h-174v497h-456z" />
<glyph unicode="," horiz-adv-x="522" d="M2 -176q100 51 121 164l2 12h-98l41 231h194l-39 -217q-18 -106 -45.5 -148t-134.5 -114z" />
<glyph unicode="-" horiz-adv-x="983" d="M104 514l31 174h701l-31 -174h-701z" />
<glyph unicode="." horiz-adv-x="526" d="M31 0l41 231h194l-41 -231h-194z" />
<glyph unicode="/" horiz-adv-x="1058" d="M-82 0l1057 1473h217l-1059 -1473h-215z" />
<glyph unicode="0" d="M63 438q0 133 29 289q23 131 51.5 230.5t77.5 201t115.5 167t168 106.5t228.5 41q408 0 408 -457q0 -133 -29 -289q-23 -131 -51.5 -230.5t-77.5 -200.5t-115.5 -167t-168 -106.5t-228.5 -40.5q-408 -1 -408 456zM238 430q0 -135 57 -211t203 -76q82 0 149.5 34t111.5 85 t78.5 129t54 151.5t36.5 164.5l8 41q31 172 31 272q0 137 -58.5 214t-203.5 77q-82 0 -150 -34t-112 -85t-78.5 -129t-53 -150.5t-35.5 -164.5l-8 -41q-30 -177 -30 -277z" />
<glyph unicode="1" d="M338 1042l29 164q14 0 34.5 1t69.5 14.5t88 37t77 74.5t50 121h180l-256 -1454h-180l184 1042h-276z" />
<glyph unicode="2" d="M-8 0l37 213q18 109 92 199t170 147l205 121l197 118q89 54 148.5 139t59.5 185q0 186 -203 187q-170 0 -370 -174l-105 133q119 100 237 152.5t267 52.5q170 0 262 -91.5t92 -240.5q0 -43 -10 -109q-23 -127 -114 -229.5t-208 -170.5l-235 -132q-117 -63 -206 -148.5 t-107 -187.5h762l-29 -164h-942z" />
<glyph unicode="3" d="M20 209l160 125q53 -92 124 -140.5t208 -48.5q315 0 369 299q4 18 4 52q0 63 -30 108t-81 66.5t-103.5 31t-109.5 9.5l29 163q360 0 360 254q0 90 -62.5 135.5t-170.5 45.5q-186 0 -371 -174l-106 114q98 111 233 167.5t272 56.5q156 0 268.5 -87.5t112.5 -238.5 q0 -33 -6 -70q-18 -96 -87.5 -172t-184.5 -110q98 -33 157.5 -115t59.5 -184q0 -14 -4 -52q-33 -219 -179.5 -340.5t-398.5 -121.5q-143 0 -274.5 59t-188.5 168z" />
<glyph unicode="4" d="M-10 303l28 164l719 987h195l-717 -987h403l80 446h181l-80 -446h272l-29 -164h-272l-53 -303h-180l53 303h-600z" />
<glyph unicode="5" d="M31 215l155 119q45 -78 125 -133.5t191 -55.5q158 0 257 96.5t130 272.5q10 61 10 109q0 219 -248 219q-100 0 -195.5 -63.5t-146.5 -153.5h-168l209 829h811l-28 -164h-654l-112 -432q68 76 163 112t185 36q145 0 254.5 -97.5t109.5 -281.5q0 -47 -10 -113 q-45 -248 -196.5 -390t-399.5 -142q-152 0 -256 58t-186 175z" />
<glyph unicode="6" d="M61 444q0 102 21 213q68 391 248 603.5t471 212.5q213 0 346 -138l-127 -125q-53 57 -106.5 78t-157.5 21q-156 0 -272.5 -102.5t-190.5 -372.5q145 168 409 167q182 0 289 -105t107 -280q0 -45 -11 -106q-41 -248 -194.5 -388t-394.5 -140q-207 0 -322 113t-115 349z M231 397q0 -252 293 -252q164 0 259.5 97.5t121.5 251.5q10 66 10 108q0 119 -65.5 177.5t-204.5 58.5q-162 0 -270.5 -98.5t-134.5 -245.5q-9 -48 -9 -97z" />
<glyph unicode="7" d="M207 1290l29 164h964l-29 -164q-506 -471 -700 -1290h-180q176 809 639 1290h-723z" />
<glyph unicode="8" d="M72 334q0 27 8 84q23 121 107.5 220t205.5 132q-63 31 -105 102.5t-42 151.5q0 201 154.5 325t355.5 124q162 0 267 -85t105 -241q0 -27 -8 -84q-18 -98 -84.5 -176t-163.5 -117q84 -39 138.5 -119t54.5 -176q0 -227 -167 -360t-404 -133q-182 0 -302 92t-120 260z M256 352q0 -109 63.5 -158t202.5 -49q164 0 263.5 89.5t99.5 236.5q0 94 -73 148.5t-198 54.5q-139 0 -235 -67.5t-117 -180.5q-6 -41 -6 -74zM424 1012q0 -166 221 -166q143 0 222 73.5t79 206.5q0 182 -219 183q-137 0 -220 -84t-83 -213z" />
<glyph unicode="9" d="M37 119l127 125q53 -55 110.5 -77t153.5 -22q156 0 272.5 102.5t192.5 373.5q-147 -168 -412 -168q-174 0 -282.5 108.5t-108.5 284.5q0 51 8 98q43 250 197 389.5t395 139.5q434 0 434 -457q0 -104 -20 -219q-70 -391 -250 -603t-471 -212q-213 0 -346 137zM270 850 q0 -233 269 -234q162 0 271.5 99.5t135.5 245.5q8 47 8 94q0 254 -292 254q-164 0 -259.5 -97.5t-121.5 -250.5q-11 -52 -11 -111z" />
<glyph unicode=":" horiz-adv-x="579" d="M61 0l41 231h195l-41 -231h-195zM213 864l41 232h195l-41 -232h-195z" />
<glyph unicode=";" horiz-adv-x="579" d="M35 -176q100 51 121 164l2 12h-99l41 231h195l-39 -217q-18 -106 -46 -148t-134 -114zM213 864l41 232h195l-41 -232h-195z" />
<glyph unicode="&#x3c;" horiz-adv-x="1021" d="M76 610v78l706 610l105 -120l-611 -529l611 -528l-105 -121z" />
<glyph unicode="=" horiz-adv-x="1370" d="M184 217v184h938v-184h-938zM184 678v184h938v-184h-938z" />
<glyph unicode="&#x3e;" horiz-adv-x="1036" d="M154 121l610 528l-610 529l104 120l707 -610v-78l-707 -610z" />
<glyph unicode="?" horiz-adv-x="1028" d="M92 1214q104 115 248.5 187t292.5 72q158 0 264.5 -79t106.5 -231q0 -37 -7 -78q-14 -88 -66 -156.5t-116 -114.5l-128 -91q-65 -45 -115 -107.5t-64 -142.5l-10 -65h-183l15 84q16 94 68.5 167.5t114.5 119.5l125 88q62 42 110.5 97.5t60.5 125.5q4 18 4 55 q0 164 -209 164q-98 0 -213 -62.5t-190 -148.5zM238 0l41 231h194l-41 -231h-194z" />
<glyph unicode="@" horiz-adv-x="1646" d="M113 385q0 86 14 166q55 313 293.5 529t542.5 216q264 0 414.5 -131t150.5 -381q0 -78 -17 -180q-80 -442 -387 -442q-53 0 -92 26.5t-39 81.5q-115 -123 -278 -123q-102 0 -180 56.5t-78 152.5q0 92 40 157t111.5 96.5t145 45t170.5 15.5q68 2 101.5 21.5t33.5 70.5 q0 43 -35 72.5t-115 29.5q-66 0 -137.5 -26.5t-114.5 -73.5l-69 82q131 141 344 141q127 0 200.5 -60.5t73.5 -170.5q0 -31 -6 -66q-61 -350 -61 -358q0 -45 39 -45q66 0 105.5 73.5t70.5 243.5q18 98 18 176q0 182 -102.5 272.5t-333.5 90.5t-418.5 -169t-232.5 -423 q-14 -74 -15 -152q0 -205 114 -328.5t343 -123.5q250 0 422 100l76 -127q-135 -72 -250 -93.5t-279 -21.5q-272 0 -427.5 158t-155.5 422zM608 379q0 -113 144 -113q131 0 198.5 83t87.5 202l9 45q-49 -51 -207 -51q-90 0 -161 -39t-71 -127z" />
<glyph unicode="A" horiz-adv-x="1337" d="M-119 0l848 1454h145l330 -1454h-184l-102 471h-574l-270 -471h-193zM430 625h453l-125 567z" />
<glyph unicode="B" horiz-adv-x="1435" d="M78 0l256 1454h665q178 0 268.5 -85t90.5 -226q0 -45 -8 -84q-18 -106 -88 -179t-129 -100q180 -96 180 -284q0 -31 -6 -68q-37 -203 -188.5 -315.5t-356.5 -112.5h-684zM276 154h506q162 0 244 66.5t109 213.5q6 29 6 55q0 94 -67.5 142.5t-184.5 48.5h-520zM397 834 h500q119 0 186.5 49t90.5 178q6 31 6 59q0 94 -60.5 136t-152.5 42h-488z" />
<glyph unicode="C" horiz-adv-x="1402" d="M84 565q0 82 14 162q57 319 284.5 532.5t510.5 213.5q201 0 325.5 -90.5t170.5 -249.5l-160 -84q-35 133 -119 201.5t-246 68.5q-209 0 -379 -169t-215 -423q-14 -74 -14 -154q0 -203 103.5 -320.5t295.5 -117.5q297 0 459 266l131 -82q-213 -338 -616 -337 q-244 0 -394.5 160.5t-150.5 422.5z" />
<glyph unicode="D" horiz-adv-x="1454" d="M78 0l258 1454h452q82 0 157 -12t155 -49t137 -94.5t95 -154.5t38 -224q0 -84 -18 -193q-31 -176 -92.5 -308t-137 -211t-177 -127t-199 -64.5t-216.5 -16.5h-452zM279 154h288q100 0 189.5 25.5t177.5 87t152.5 178t93.5 282.5q16 98 16 166q0 117 -36 200t-99.5 126 t-135 62t-155.5 19h-289z" />
<glyph unicode="E" horiz-adv-x="1253" d="M78 0l256 1454h940l-27 -154h-768l-84 -469h645l-26 -153h-645l-93 -524h789l-27 -154h-960z" />
<glyph unicode="F" horiz-adv-x="1228" d="M78 0l256 1454h956l-26 -154h-785l-84 -469h633l-27 -153h-632l-119 -678h-172z" />
<glyph unicode="G" horiz-adv-x="1495" d="M82 567q0 82 14 160q57 319 284.5 532.5t510.5 213.5q203 0 335 -88.5t177 -245.5l-158 -84q-35 125 -133 194.5t-248 69.5q-209 0 -380 -169t-216 -423q-14 -74 -14 -154q0 -203 103.5 -320.5t295.5 -117.5q420 0 490 432l6 39h-367l27 154h537l-134 -760h-170l-20 100 q-160 -119 -395 -118q-246 0 -395.5 161.5t-149.5 423.5z" />
<glyph unicode="H" horiz-adv-x="1511" d="M78 0l260 1454h172l-111 -612h752l111 612h172l-260 -1454h-173l123 688h-751l-123 -688h-172z" />
<glyph unicode="I" horiz-adv-x="587" d="M78 0l260 1454h172l-260 -1454h-172z" />
<glyph unicode="J" horiz-adv-x="1073" d="M-31 309q0 43 11 105h172q-10 -57 -11 -92q0 -186 191 -187q270 0 330 324l178 995h172l-178 -991q-86 -481 -529 -481q-152 0 -244 84.5t-92 242.5z" />
<glyph unicode="K" horiz-adv-x="1380" d="M78 0l260 1454h172l-141 -784l848 784h221l-654 -600l420 -854h-203l-346 737l-327 -301l-78 -436h-172z" />
<glyph unicode="L" horiz-adv-x="1200" d="M78 0l260 1454h172l-234 -1300h809l-26 -154h-981z" />
<glyph unicode="M" horiz-adv-x="1927" d="M78 0l260 1454h301l242 -1188l667 1188h301l-260 -1454h-172l236 1309l-738 -1309h-163l-267 1309l-235 -1309h-172z" />
<glyph unicode="N" horiz-adv-x="1519" d="M78 0l260 1454h172l549 -1171l211 1171h172l-260 -1454h-172l-549 1171l-211 -1171h-172z" />
<glyph unicode="O" horiz-adv-x="1593" d="M82 588q0 68 12 139q55 309 285.5 527.5t548.5 218.5q262 0 421.5 -167t159.5 -429q0 -59 -14 -150q-53 -303 -291.5 -524t-539.5 -221q-285 0 -433.5 170t-148.5 436zM254 596q0 -201 111.5 -330t324.5 -129q227 0 409.5 176t223.5 414q12 63 12 129q0 201 -113.5 331 t-322.5 130q-223 0 -406.5 -177t-226.5 -413q-12 -68 -12 -131z" />
<glyph unicode="P" horiz-adv-x="1404" d="M78 0l260 1454h618q453 0 453 -319q0 -53 -12 -119q-78 -440 -598 -441h-447l-102 -575h-172zM381 731h420q201 0 298 63.5t126 221.5q6 41 6 74q0 211 -303 210h-445z" />
<glyph unicode="Q" horiz-adv-x="1593" d="M82 594q0 66 12 133q55 303 296 524.5t538 221.5q254 0 416.5 -176.5t162.5 -434.5q0 -68 -12 -135q-47 -276 -238 -475q4 -8 31 -45q53 -53 178 -53l-30 -172q-147 0 -238 57q-66 45 -88 84q-205 -141 -446 -141q-256 0 -419 176t-163 436zM256 604q0 -201 113.5 -330 t322.5 -129q186 0 359 123q-41 113 -88 152q-72 61 -230 61l31 172q240 0 348 -118q53 -57 82 -132q92 113 129 324q12 63 12 125q0 203 -118.5 334t-317.5 131q-225 0 -407.5 -176t-225.5 -414q-10 -51 -10 -123z" />
<glyph unicode="R" horiz-adv-x="1460" d="M78 0l258 1454h616q233 0 343 -78t110 -241q0 -53 -12 -119q-37 -203 -151 -301.5t-331 -132.5l334 -582h-213l-334 575h-346l-102 -575h-172zM381 731h418q201 0 298 63.5t124 221.5q8 53 8 76q0 109 -75 158.5t-230 49.5h-443z" />
<glyph unicode="S" horiz-adv-x="1339" d="M39 281l156 75q43 -98 153.5 -158.5t288.5 -60.5q162 0 284.5 86t122.5 230q0 53 -26.5 91t-67.5 59.5t-103.5 37.5t-119.5 23.5t-134 19.5t-128 27q-117 29 -186.5 101.5t-69.5 184.5q0 160 96 271.5t230.5 158t285.5 46.5q172 0 289 -74t156 -142l-146 -81 q-100 141 -323 141q-168 0 -291 -78t-123 -227q0 -68 46 -103t134 -55q51 -12 158.5 -28.5t180.5 -33t153 -49t122 -96t42 -158.5q0 -248 -174.5 -377.5t-434.5 -129.5q-225 0 -376.5 82t-194.5 217z" />
<glyph unicode="T" horiz-adv-x="1208" d="M123 1300l27 154h1159l-27 -154h-489l-234 -1300h-172l231 1300h-495z" />
<glyph unicode="U" horiz-adv-x="1515" d="M133 397q0 94 29 267l139 790h172l-135 -772q-33 -186 -33 -270q0 -135 76 -206t264 -71q221 0 346 149.5t168 395.5l137 774h172l-139 -790q-29 -156 -76 -273t-128 -213t-207.5 -146t-299.5 -50q-264 0 -374.5 103t-110.5 312z" />
<glyph unicode="V" horiz-adv-x="1265" d="M119 1454h182l246 -1188l661 1188h183l-816 -1454h-143z" />
<glyph unicode="W" horiz-adv-x="1957" d="M143 1454h195l117 -1159l528 1159h207l117 -1159l528 1159h195l-691 -1454h-157l-131 1221l-559 -1221h-160z" />
<glyph unicode="X" horiz-adv-x="1245" d="M-113 0l660 766l-338 688h205l264 -541l459 541h198l-592 -684l381 -770h-202l-304 623l-530 -623h-201z" />
<glyph unicode="Y" horiz-adv-x="1165" d="M117 1454h190l266 -729l525 729h194l-661 -907l-96 -547h-173l97 549z" />
<glyph unicode="Z" horiz-adv-x="1255" d="M-41 0l27 154l1034 1146h-795l27 154h1008l-27 -154l-1034 -1146h856l-27 -154h-1069z" />
<glyph unicode="[" horiz-adv-x="720" d="M41 -326l338 1911h461l-25 -139h-301l-289 -1632h301l-24 -140h-461z" />
<glyph unicode="\" horiz-adv-x="1075" d="M147 1473h218l536 -1473h-215z" />
<glyph unicode="]" horiz-adv-x="720" d="M-139 -326l24 140h301l289 1632h-301l25 139h460l-337 -1911h-461z" />
<glyph unicode="^" horiz-adv-x="1114" d="M141 971l412 483h205l241 -483h-208l-168 309l-271 -309h-211z" />
<glyph unicode="_" horiz-adv-x="911" d="M-154 0h922v-162h-922v162z" />
<glyph unicode="`" horiz-adv-x="372" d="M133 1473h189l112 -306h-141z" />
<glyph unicode="a" horiz-adv-x="1103" d="M41 250q0 182 143.5 287.5t347.5 105.5q297 0 297 168q0 143 -206 143q-174 0 -306 -135l-98 111q6 6 17.5 18.5t52.5 42t86 52t117.5 41t150.5 18.5q338 0 338 -291q0 -47 -121 -733q-2 -10 -2 -21q0 -29 25 -28l-4 -29h-123q-55 0 -56 63q0 10 9 54 q-154 -135 -344 -135q-158 0 -241 71.5t-83 196.5zM211 270q0 -68 46 -107.5t138 -39.5q106 0 181 33.5t115 99.5t56.5 119t30.5 133l15 80q-63 -82 -265 -82q-129 0 -223 -56.5t-94 -179.5z" />
<glyph unicode="b" horiz-adv-x="1329" d="M57 0l256 1454h162l-92 -522q70 76 175.5 123t223.5 47q170 0 294 -130t124 -325q0 -166 -82 -318.5t-231.5 -249.5t-327.5 -97q-182 0 -287 127l-53 -109h-162zM295 434q0 -141 77 -223t222 -82q188 0 314 154.5t126 353.5q0 139 -74.5 228t-220.5 89 q-186 0 -315 -161.5t-129 -358.5z" />
<glyph unicode="c" horiz-adv-x="1148" d="M53 428q0 281 182.5 477.5t452.5 196.5q139 0 233.5 -76t135.5 -180l-131 -70q-72 178 -260 178q-141 0 -247 -83t-156 -202.5t-50 -252.5q0 -145 82 -216t215 -71q221 0 338 172l119 -68q-63 -104 -185.5 -177.5t-298.5 -73.5q-178 0 -304 123.5t-126 322.5z" />
<glyph unicode="d" horiz-adv-x="1300" d="M55 449q0 270 185.5 461.5t447.5 191.5q100 0 188.5 -49t129.5 -121l92 522h162l-256 -1454h-162l-17 109q-76 -66 -151.5 -96.5t-184.5 -30.5q-184 0 -309 136t-125 331zM217 465q0 -141 80 -238.5t215 -97.5q197 0 319.5 145.5t122.5 346.5q0 145 -72.5 239t-224.5 94 q-190 0 -315 -153.5t-125 -335.5z" />
<glyph unicode="e" horiz-adv-x="1214" d="M53 403q0 127 42 250t119 223.5t196.5 163t263.5 62.5q215 0 321.5 -122t106.5 -304q0 -53 -21 -178h-864q-6 -49 -6 -92q0 -276 303 -277q190 0 336 160l123 -78q-199 -229 -486 -229q-53 0 -107 10t-114.5 39.5t-105.5 76t-76 123t-31 172.5zM250 645h694q4 37 4 57 q0 104 -66.5 178t-234.5 74q-127 0 -235.5 -77.5t-161.5 -231.5z" />
<glyph unicode="f" horiz-adv-x="659" d="M80 936l26 147h207l15 78q55 311 272 312l131 -19l-24 -147q-25 18 -76 18q-70 0 -102.5 -62.5t-53.5 -179.5h191l-27 -147h-190l-164 -936h-162l164 936h-207z" />
<glyph unicode="g" horiz-adv-x="1222" d="M-41 -209l125 119q141 -150 348 -150q193 0 285 111t125 291q-156 -170 -377 -170q-186 0 -294 118.5t-108 315.5q0 266 172.5 471t426.5 205q188 0 294 -127l50 108h161l-163 -925q-12 -76 -32 -139.5t-64 -143.5t-104.5 -133t-162.5 -91t-233 -38q-283 0 -449 178z M223 426q0 -287 264 -287q195 0 320 155t125 365q0 295 -293 295q-182 0 -299 -166.5t-117 -361.5z" />
<glyph unicode="h" horiz-adv-x="1284" d="M57 0l256 1454h162l-98 -557q176 205 409 205q336 0 336 -291q0 -45 -10 -102l-125 -709h-162l123 705q8 49 8 75q0 174 -198 174q-172 0 -292 -110.5t-151 -290.5l-96 -553h-162z" />
<glyph unicode="i" horiz-adv-x="522" d="M57 0l191 1083h162l-191 -1083h-162zM270 1231l39 223h170l-39 -223h-170z" />
<glyph unicode="j" horiz-adv-x="516" d="M-246 -369l27 148q43 -18 110 -19q63 0 97.5 59.5t54.5 178.5l193 1087h161l-192 -1091q-41 -227 -107.5 -304t-187.5 -77q-39 0 -78 5t-57 9zM256 1229l39 225h174l-39 -225h-174z" />
<glyph unicode="k" horiz-adv-x="1097" d="M57 0l256 1454h162l-156 -881l558 510h206l-450 -415l387 -668h-199l-313 557l-225 -205l-64 -352h-162z" />
<glyph unicode="l" horiz-adv-x="565" d="M57 0l256 1454h162l-256 -1454h-162z" />
<glyph unicode="m" horiz-adv-x="1765" d="M57 0l191 1083h162l12 -112q131 131 274 131q106 0 179 -52.5t96 -136.5q147 188 340 189q147 0 219 -69.5t72 -188.5q0 -61 -13 -133l-125 -711h-161l122 702q10 51 11 95q0 68 -37 112.5t-117 44.5q-152 0 -227.5 -112.5t-116.5 -345.5l-86 -496h-162q133 760 133 793 q0 72 -37.5 116.5t-117.5 44.5q-281 0 -361 -450l-88 -504h-162z" />
<glyph unicode="n" horiz-adv-x="1280" d="M57 0l191 1083h162l18 -133q156 152 356 152q176 0 254 -83t78 -214q0 -51 -8 -92l-125 -713h-162l125 709q6 33 6 69q0 176 -196 176q-174 0 -290 -105.5t-149 -293.5l-98 -555h-162z" />
<glyph unicode="o" horiz-adv-x="1255" d="M53 434q0 160 82 313.5t231.5 254t321.5 100.5q195 0 316.5 -127t121.5 -324q0 -162 -80.5 -315.5t-229 -253.5t-324.5 -100q-193 0 -316 127.5t-123 324.5zM217 446q0 -139 76 -228t223 -89q186 0 316.5 158.5t130.5 355.5q0 137 -74 224t-225 87q-184 0 -315.5 -156.5 t-131.5 -351.5z" />
<glyph unicode="p" horiz-adv-x="1312" d="M-20 -369l256 1452h161l17 -108q147 127 336 127q184 0 309 -136.5t125 -332.5q0 -51 -8 -94q-43 -250 -217.5 -403.5t-407.5 -153.5q-104 0 -190.5 47t-127.5 123l-92 -521h-161zM283 451q0 -137 76.5 -229.5t222.5 -92.5q156 0 279.5 123t152.5 287q6 39 6 79 q0 141 -79 238.5t-214 97.5q-162 0 -282.5 -115.5t-153.5 -299.5q-8 -39 -8 -88z" />
<glyph unicode="q" horiz-adv-x="1318" d="M53 422q0 66 10 117q41 231 219.5 397t407.5 166q162 0 293 -127l51 108h162l-256 -1452h-162l92 521q-156 -170 -378 -170q-199 0 -319 121.5t-120 318.5zM215 434q0 -135 72.5 -220t226.5 -85q170 0 287 122t147 288q10 61 10 106q0 143 -76.5 226t-222.5 83 q-156 0 -280.5 -126t-153.5 -289q-10 -58 -10 -105z" />
<glyph unicode="r" horiz-adv-x="837" d="M57 0l191 1083h162l14 -118q129 137 342 137q59 0 88 -19l-27 -147q-29 18 -65 18q-375 0 -451 -430l-92 -524h-162z" />
<glyph unicode="s" horiz-adv-x="1075" d="M31 211l149 61q23 -57 93.5 -100t191.5 -43q117 0 198.5 49t81.5 152q0 68 -61 96.5t-185 52t-198 56.5q-137 63 -137 208q0 180 136 269.5t321 89.5q207 0 340 -158l-134 -88q-8 10 -26.5 26.5t-78.5 44t-128 27.5q-109 0 -187.5 -47t-78.5 -143q0 -74 100 -109 q37 -12 100 -27l110 -26q46 -10 100.5 -31.5t89 -47t58 -67.5t23.5 -98q0 -180 -138 -278t-333 -98q-170 0 -273 71.5t-134 157.5z" />
<glyph unicode="t" horiz-adv-x="722" d="M61 936l27 147h191l65 371h162l-66 -371h267l-27 -147h-266l-113 -645q-6 -29 -6 -64q0 -98 113 -98l133 18l-25 -147q-49 -18 -174 -18q-104 0 -159.5 42t-55.5 154q0 51 12 115l113 643h-191z" />
<glyph unicode="u" horiz-adv-x="1284" d="M92 279q0 51 8 92l125 712h162l-125 -708q-6 -35 -6 -70q0 -176 197 -176q174 0 289.5 105.5t148.5 293.5l98 555h162l-190 -1083h-162l-15 131q-154 -150 -360 -149q-176 0 -254 83t-78 214z" />
<glyph unicode="v" horiz-adv-x="1067" d="M51 1083h166l201 -888l506 888h176l-637 -1083h-156z" />
<glyph unicode="w" horiz-adv-x="1685" d="M131 1083h166l119 -862l399 862h180l97 -862l411 862h170l-545 -1083h-151l-107 838l-411 -838h-158z" />
<glyph unicode="x" horiz-adv-x="1011" d="M-82 0l467 561l-266 522h192l193 -401l336 401h188l-455 -532l265 -551h-193l-194 424l-353 -424h-180z" />
<glyph unicode="y" horiz-adv-x="1058" d="M-102 -387l24 147q147 0 215 48.5t152 199.5l-254 1075h178l188 -872l504 872h193l-649 -1083q-68 -113 -121.5 -183.5t-96.5 -113.5t-99 -61.5t-102 -23.5t-132 -5z" />
<glyph unicode="z" horiz-adv-x="962" d="M-31 0l25 147l706 789h-530l27 147h723l-25 -145l-717 -791h588l-25 -147h-772z" />
<glyph unicode="{" horiz-adv-x="831" d="M72 559l24 141q145 2 205.5 65.5t81.5 178.5l51 289q31 176 116 264t261 88h131l-29 -158h-55q-135 0 -188.5 -46t-75.5 -179l-45 -254q-25 -133 -87.5 -210t-193.5 -109q178 -49 178 -219q0 -41 -10 -99l-45 -254q-10 -66 -10 -98q0 -72 43 -99.5t151 -27.5h56l-27 -158 h-131q-141 0 -202.5 57.5t-61.5 170.5q0 57 12 125l51 288q8 41 9 80q0 78 -46 120t-163 44z" />
<glyph unicode="|" horiz-adv-x="544" d="M197 -369v1842h151v-1842h-151z" />
<glyph unicode="}" horiz-adv-x="831" d="M-127 -326l27 158h55q137 0 189.5 46t76.5 179l45 254q23 131 85.5 207t193.5 111q-176 51 -176 219q0 39 10 100l45 254q10 66 10 98q0 72 -43 99.5t-153 27.5h-56l29 158h131q141 0 201.5 -57.5t60.5 -169.5q0 -57 -12 -125l-51 -289q-8 -53 -9 -78q0 -78 47.5 -121 t161.5 -45l-24 -141q-143 -2 -205.5 -65.5t-81.5 -178.5l-51 -288q-31 -176 -115 -264.5t-260 -88.5h-131z" />
<glyph unicode="~" horiz-adv-x="1478" d="M109 582q4 10 13 25.5t43 54t71.5 69.5t100 55.5t132.5 24.5q55 0 113.5 -23.5t92.5 -46t95 -67.5q106 -80 170 -80q47 0 97 39t77 80l29 39l149 -115q-4 -10 -13 -25.5t-41 -55.5t-68.5 -70.5t-99 -55t-130.5 -24.5q-135 0 -305 137l-29 20q-20 14 -27.5 20.5 t-24.5 16.5t-28.5 14t-27 8.5t-29.5 4.5q-45 0 -96 -43t-78 -84l-29 -43z" />
<glyph unicode="&#xa1;" horiz-adv-x="647" d="M61 -369l76 426l148 619h108l-71 -619l-76 -426h-185zM270 852l41 231h197l-41 -231h-197z" />
<glyph unicode="&#xa2;" d="M102 604q0 43 11 105q41 233 181 386.5t351 184.5l35 193h121l-33 -185q143 -6 228 -84t112 -174l-143 -74q-14 37 -25.5 57.5t-36 52.5t-65.5 50.5t-97 22.5l-145 -822q195 12 303 170l119 -67q-61 -100 -173 -172t-276 -80l-28 -168h-121l31 174q-145 18 -247 130 t-102 300zM264 596q0 -229 213 -270l141 804q-281 -61 -344 -421q-10 -52 -10 -113z" />
<glyph unicode="&#xa3;" d="M-14 0l28 164q115 47 170.5 114.5t79.5 210.5l39 226h-164l29 153h164l12 74q96 530 504 531q190 0 291 -160l-135 -94q-49 100 -183 100q-74 0 -127 -29.5t-86 -88t-51 -117t-33 -142.5l-12 -74h440l-28 -153h-441l-39 -226q-12 -66 -23 -105.5t-32.5 -87.5t-59.5 -81 t-93 -55h378q201 0 318 155l102 -106q-166 -209 -446 -209h-602z" />
<glyph unicode="&#xa4;" horiz-adv-x="1304" d="M92 106l180 160q-90 123 -90 277q0 150 90 276l-180 160l123 123l160 -182q125 92 276.5 92t274.5 -90l161 180l125 -123l-182 -162q90 -123 90 -274q0 -154 -90 -277l182 -160l-125 -124l-159 180q-125 -88 -276.5 -88t-276.5 88l-160 -180zM358 543q0 -121 86 -208 t207 -87q123 0 208 86t85 209t-86 208t-207 85t-207 -86t-86 -207z" />
<glyph unicode="&#xa5;" d="M12 227l33 181h383l25 139h-383l32 184h289l-239 723h196l227 -713l476 713h194l-495 -723h290l-32 -184h-383l-25 -139h383l-33 -181h-383l-39 -227h-172l39 227h-383z" />
<glyph unicode="&#xa6;" horiz-adv-x="567" d="M195 0v596h178v-596h-178zM195 877v596h178v-596h-178z" />
<glyph unicode="&#xa7;" d="M66 84l143 92q43 -57 111.5 -86t134.5 -29q115 0 202.5 47.5t87.5 147.5q0 57 -58 91t-142 53.5t-167 46t-141.5 87t-58.5 156.5q0 180 170 307q-86 66 -86 174q0 129 77 220.5t184.5 129.5t232.5 38q102 0 204.5 -45.5t157.5 -131.5l-143 -92q-43 57 -111.5 86 t-134.5 29q-127 0 -201.5 -51t-87.5 -121q-2 -8 -2 -23q0 -57 58.5 -91t142.5 -52t168 -43t142.5 -84t58.5 -156q0 -182 -174 -315q88 -68 88 -176q0 -193 -144.5 -289t-349.5 -96q-100 0 -203.5 45t-158.5 131zM352 717q0 -31 13.5 -54.5t31 -38t51 -26.5t59.5 -18l73 -18 l71 -17q88 43 134 87t46 113q0 25 -7 44.5t-26.5 35t-36 26.5t-51 22.5t-53 16.5l-62.5 16.5t-63 15.5q-41 -18 -60 -28.5t-49 -32t-46.5 -49.5t-22.5 -64q-2 -13 -2 -31z" />
<glyph unicode="&#xa8;" horiz-adv-x="995" d="M205 1262l37 211h190l-37 -211h-190zM563 1262l37 211h191l-37 -211h-191z" />
<glyph unicode="&#xa9;" horiz-adv-x="1773" d="M141 727q0 309 218.5 527.5t527.5 218.5t527 -218.5t218 -527.5t-218 -527t-527 -218t-527.5 218t-218.5 527zM295 727q0 -248 172 -423t420 -175t420 175t172 423t-172 423t-420 175t-420 -175t-172 -423zM500 711q0 197 103.5 315.5t289.5 118.5q117 0 194.5 -58.5 t112.5 -134.5l-110 -59q-23 39 -38.5 58.5t-57.5 43t-101 23.5q-111 0 -183.5 -69.5t-72.5 -237.5q0 -135 73.5 -204t176.5 -69q158 0 217 119l110 -57q-35 -78 -115.5 -133.5t-211.5 -55.5q-162 0 -274.5 109t-112.5 291z" />
<glyph unicode="&#xaa;" horiz-adv-x="876" d="M133 922q0 92 73 158.5t232 66.5q193 0 193 96q0 59 -48 92t-120 33q-123 0 -199 -96l-84 78q4 4 10.5 13t32 29.5t54 37t77.5 30t105 13.5q145 0 213.5 -75t68.5 -208v-445q0 -35 23 -34v-21h-88q-47 0 -47 68v14q-94 -94 -228 -94q-129 0 -198.5 66.5t-69.5 177.5z M264 909q0 -57 39 -94t103 -37q76 0 125 23.5t68 70t25.5 84t6.5 95.5v61q-39 -63 -178 -63q-66 0 -107 -13.5t-57.5 -38t-20.5 -43t-4 -45.5z" />
<glyph unicode="&#xab;" horiz-adv-x="1148" d="M70 559l12 66l465 458l115 -112l-386 -379l252 -381l-153 -113zM500 559l12 66l465 458l115 -112l-385 -379l251 -381l-153 -113z" />
<glyph unicode="&#xac;" horiz-adv-x="1228" d="M166 506v153h895v-528h-172v375h-723z" />
<glyph unicode="&#xad;" horiz-adv-x="983" d="M104 514l31 174h701l-31 -174h-701z" />
<glyph unicode="&#xae;" horiz-adv-x="1773" d="M141 727q0 309 218.5 527.5t527.5 218.5t527 -218.5t218 -527.5t-218 -527t-527 -218t-527.5 218t-218.5 527zM295 727q0 -248 172 -423t420 -175t420 175t172 423t-172 423t-420 175t-420 -175t-172 -423zM563 322v811h344q285 0 285 -246q0 -109 -41 -163t-135 -79 l231 -323h-162l-219 311h-168v-311h-135zM698 752h162q117 0 158 24.5t41 110.5q0 80 -39 103.5t-143 23.5h-179v-262z" />
<glyph unicode="&#xb0;" horiz-adv-x="806" d="M205 1200q0 113 80 193t192.5 80t192.5 -80t80 -193t-80 -192.5t-192.5 -79.5t-192.5 79.5t-80 192.5zM360 1200q0 -47 35 -82t82 -35t82 35t35 82t-35 82t-82 35t-82 -35t-35 -82z" />
<glyph unicode="&#xb1;" horiz-adv-x="1228" d="M172 0v168h883v-168h-883zM172 639v154h350v352h187v-352h346v-154h-346v-352h-187v352h-350z" />
<glyph unicode="&#xb2;" horiz-adv-x="808" d="M63 551l23 133q14 82 69.5 149.5t125.5 110.5l139 83q70 40 121 86t61 97q4 25 4 35q0 98 -106 98q-119 0 -224 -94l-69 97q147 127 315 127q102 0 162.5 -53.5t60.5 -151.5q0 -37 -4 -58q-18 -98 -98 -175t-166 -119t-161.5 -103t-88.5 -133h449l-23 -129h-590z" />
<glyph unicode="&#xb3;" horiz-adv-x="808" d="M55 684l111 86q61 -100 199 -100q88 0 143 53t55 147q0 63 -45 86t-131 23l23 127q201 0 200 151q0 86 -125 86q-115 0 -215 -94l-77 84q121 139 315 140q94 0 168 -51.5t74 -149.5q0 -78 -47.5 -139.5t-124.5 -90.5q125 -39 124 -168q0 -147 -102 -240t-258 -93 q-84 0 -169 37.5t-118 105.5z" />
<glyph unicode="&#xb4;" horiz-adv-x="819" d="M205 1167l219 306h190l-268 -306h-141z" />
<glyph unicode="&#xb5;" horiz-adv-x="1232" d="M154 1083h161v-708q0 -246 234 -246q174 0 271.5 105.5t97.5 293.5v555h161v-1083h-161l-41 133q-129 -152 -330 -151q-141 0 -232 55v-406h-161v1452z" />
<glyph unicode="&#x3bc;" horiz-adv-x="1232" d="M154 1083h161v-708q0 -246 234 -246q174 0 271.5 105.5t97.5 293.5v555h161v-1083h-161l-41 133q-129 -152 -330 -151q-141 0 -232 55v-406h-161v1452z" />
<glyph unicode="&#xb6;" horiz-adv-x="1423" d="M170 938q0 37 6 78q33 182 182.5 310t331.5 128h696l-30 -170h-180l-271 -1534h-164l271 1534h-187l-270 -1534h-166l146 832q-160 0 -262.5 101t-102.5 255z" />
<glyph unicode="&#xb7;" horiz-adv-x="542" d="M133 545l41 231h195l-41 -231h-195z" />
<glyph unicode="&#xb8;" horiz-adv-x="837" d="M205 -242l92 328l129 -33l-47 -166q39 39 88 39q82 0 124 -44t42 -122q0 -72 -52.5 -127t-144.5 -63v119q82 16 82 75q0 53 -65 54q-45 0 -83 -28t-55 -56l-16 -27z" />
<glyph unicode="&#xb9;" horiz-adv-x="808" d="M246 1190l24 129q10 0 21.5 1t42.5 9t54.5 22.5t46 46.5t30.5 75h139l-160 -902h-139l109 619h-168z" />
<glyph unicode="&#xba;" horiz-adv-x="999" d="M160 1073q0 168 107.5 284t267 116t266 -116t106.5 -284t-106.5 -281.5t-266 -113.5t-267 114.5t-107.5 280.5zM276 1073q0 -117 73 -204t185.5 -87t185.5 87t73 204q0 119 -73 207t-185.5 88t-185.5 -88t-73 -207z" />
<glyph unicode="&#xbb;" horiz-adv-x="1148" d="M25 211l387 381l-250 379l155 112l301 -458l-12 -66l-465 -461zM455 211l387 381l-250 379l156 112l301 -458l-13 -66l-465 -461z" />
<glyph unicode="&#xbc;" horiz-adv-x="1839" d="M195 0l1206 1454h164l-1209 -1454h-161zM287 1190l24 129q10 0 21.5 1t42.5 9t54.5 22.5t46 46.5t30.5 75h139l-160 -902h-139l109 619h-168zM850 160l22 129l447 610h145l-444 -610h244l49 274h139l-49 -274h121l-23 -129h-121l-26 -160h-140l27 160h-391z" />
<glyph unicode="&#xbd;" horiz-adv-x="1839" d="M113 0l1206 1454h164l-1209 -1454h-161zM205 1190l24 129q10 0 21.5 1t42.5 9t54.5 22.5t46 46.5t30.5 75h139l-160 -902h-139l109 619h-168zM963 0l22 133q14 82 69.5 149.5t125.5 110.5l139 83q70 40 121 86t61 97q4 25 4 35q0 98 -106 99q-119 0 -223 -95l-70 97 q147 127 315 127q102 0 163 -53.5t61 -151.5q0 -37 -5 -58q-18 -98 -98 -174.5t-166 -118.5t-161.5 -103.5t-88.5 -133.5h449l-23 -129h-589z" />
<glyph unicode="&#xbe;" horiz-adv-x="1839" d="M92 684l111 86q61 -100 198 -100q88 0 143.5 53t55.5 147q0 63 -45 86t-131 23l22 127q201 0 201 151q0 86 -125 86q-115 0 -215 -94l-78 84q121 139 316 140q94 0 167.5 -51.5t73.5 -149.5q0 -78 -47 -139.5t-125 -90.5q125 -39 125 -168q0 -147 -102 -240t-258 -93 q-84 0 -169 37.5t-118 105.5zM283 0l1206 1454h164l-1209 -1454h-161zM938 160l23 129l446 610h145l-444 -610h244l49 274h139l-49 -274h121l-23 -129h-121l-26 -160h-139l26 160h-391z" />
<glyph unicode="&#xbf;" horiz-adv-x="1048" d="M25 -78q0 37 6 78q14 88 66.5 156.5t115.5 114.5l128 91q65 45 115 107.5t64 142.5l10 66h183l-15 -84q-16 -94 -68 -168t-115 -120l-125 -88q-62 -42 -110.5 -97t-60.5 -125q-4 -18 -4 -55q0 -164 209 -164q98 0 213 62.5t190 148.5l109 -117q-104 -115 -248.5 -186.5 t-292.5 -71.5q-158 0 -264 78.5t-106 230.5zM555 854l41 231h195l-41 -231h-195z" />
<glyph unicode="&#xc0;" horiz-adv-x="1337" d="M-119 0l848 1454h145l330 -1454h-184l-102 471h-574l-270 -471h-193zM430 625h453l-125 567zM551 1923h188l113 -305h-141z" />
<glyph unicode="&#xc1;" horiz-adv-x="1343" d="M-119 0l848 1454h145l330 -1454h-184l-102 471h-574l-270 -471h-193zM430 625h453l-125 567zM801 1618l219 305h190l-268 -305h-141z" />
<glyph unicode="&#xc2;" horiz-adv-x="1337" d="M-119 0l848 1454h145l330 -1454h-184l-102 471h-574l-270 -471h-193zM430 625h453l-125 567zM565 1618l244 305h135l139 -305h-137l-94 172l-150 -172h-137z" />
<glyph unicode="&#xc3;" horiz-adv-x="1337" d="M-119 0l848 1454h145l330 -1454h-184l-102 471h-574l-270 -471h-193zM430 625h453l-125 567zM504 1712q10 16 27.5 41t71.5 65t108 40q63 0 144 -58.5t122 -58.5q57 0 115 82l96 -70q-10 -16 -27.5 -38.5t-71 -61.5t-106.5 -39q-68 0 -149.5 58.5t-116.5 58.5 q-25 0 -53.5 -22.5t-45.5 -45.5l-16 -23z" />
<glyph unicode="&#xc4;" horiz-adv-x="1337" d="M-119 0l848 1454h145l330 -1454h-184l-102 471h-574l-270 -471h-193zM430 625h453l-125 567zM571 1618l37 211h191l-37 -211h-191zM930 1618l37 211h190l-37 -211h-190z" />
<glyph unicode="&#xc5;" horiz-adv-x="1337" d="M-119 0l789 1358q-63 43 -64 133q0 14 4 43q16 86 84 145.5t158 59.5q68 0 120 -49.5t52 -124.5q0 -127 -133 -205l313 -1360h-184l-105 471h-573l-268 -471h-193zM430 625h453l-127 567zM733 1518q0 -27 16.5 -45.5t43.5 -18.5h8q39 0 68.5 26.5t29.5 67.5 q0 29 -19.5 47.5t-50.5 18.5q-37 0 -66.5 -28.5t-29.5 -67.5z" />
<glyph unicode="&#xc6;" horiz-adv-x="1888" d="M-133 0l954 1454h1047l-27 -154h-768l-84 -469h645l-26 -153h-645l-93 -524h789l-27 -154h-960l82 471h-394l-305 -471h-188zM459 625h323l119 675z" />
<glyph unicode="&#xc7;" horiz-adv-x="1400" d="M84 578q0 78 14 149q57 319 282.5 532.5t508.5 213.5q188 0 320 -92.5t177 -247.5l-157 -82q-68 268 -367 268q-209 0 -379 -169t-215 -423q-14 -74 -14 -154q0 -201 103.5 -319.5t293.5 -118.5q299 0 459 266l131 -82q-213 -338 -616 -337q-16 0 -78 4l-43 -99 q45 39 94 39q141 0 141 -123q0 -14 -4 -43q-12 -72 -73.5 -127t-155.5 -63l20 119q39 8 68 31.5t29 60.5t-58 37q-92 0 -170 -107l-4 -4l-84 51l117 256q-147 51 -243.5 205t-96.5 359z" />
<glyph unicode="&#xc8;" horiz-adv-x="1253" d="M78 0l256 1454h940l-27 -154h-768l-84 -469h645l-26 -153h-645l-93 -524h789l-27 -154h-960zM618 1923h189l113 -305h-142z" />
<glyph unicode="&#xc9;" horiz-adv-x="1253" d="M78 0l256 1454h940l-27 -154h-768l-84 -469h645l-26 -153h-645l-93 -524h789l-27 -154h-960zM688 1618l219 305h191l-269 -305h-141z" />
<glyph unicode="&#xca;" horiz-adv-x="1253" d="M78 0l256 1454h940l-27 -154h-768l-84 -469h645l-26 -153h-645l-93 -524h789l-27 -154h-960zM584 1618l243 305h136l139 -305h-137l-95 172l-149 -172h-137z" />
<glyph unicode="&#xcb;" horiz-adv-x="1253" d="M78 0l256 1454h940l-27 -154h-768l-84 -469h645l-26 -153h-645l-93 -524h789l-27 -154h-960zM571 1618l37 211h191l-37 -211h-191zM930 1618l37 211h190l-37 -211h-190z" />
<glyph unicode="&#xcc;" horiz-adv-x="581" d="M78 0l260 1454h172l-260 -1454h-172zM244 1923h188l113 -305h-142z" />
<glyph unicode="&#xcd;" horiz-adv-x="583" d="M78 0l260 1454h172l-260 -1454h-172zM252 1618l219 305h191l-269 -305h-141z" />
<glyph unicode="&#xce;" horiz-adv-x="569" d="M78 0l260 1454h172l-260 -1454h-172zM195 1638l243 306h135l140 -306h-138l-94 172l-149 -172h-137z" />
<glyph unicode="&#xcf;" horiz-adv-x="604" d="M78 0l260 1454h172l-260 -1454h-172zM178 1618l37 211h191l-37 -211h-191zM537 1618l36 211h191l-37 -211h-190z" />
<glyph unicode="&#xd0;" horiz-adv-x="1478" d="M33 653l26 154h187l114 647h453q82 0 156.5 -12t154.5 -49t137.5 -94.5t95.5 -154.5t38 -224q0 -84 -19 -193q-127 -727 -819 -727h-453l115 653h-186zM303 154h289q512 0 612 573q18 109 19 193q0 213 -109.5 296.5t-318.5 83.5h-289l-88 -493h219l-27 -154h-219z" />
<glyph unicode="&#xd1;" horiz-adv-x="1519" d="M78 0l260 1454h172l549 -1171l211 1171h172l-260 -1454h-172l-549 1171l-211 -1171h-172zM578 1712q10 16 27.5 41t71.5 65t107 40q63 0 144.5 -58.5t122.5 -58.5q57 0 114 82l97 -70q-10 -16 -27.5 -38.5t-71 -61.5t-106.5 -39q-68 0 -150 58.5t-116 58.5 q-25 0 -53.5 -22.5t-45.5 -45.5l-16 -23z" />
<glyph unicode="&#xd2;" horiz-adv-x="1593" d="M82 588q0 68 12 139q55 309 285.5 527.5t548.5 218.5q262 0 421.5 -167t159.5 -429q0 -59 -14 -150q-53 -303 -291.5 -524t-539.5 -221q-285 0 -433.5 170t-148.5 436zM254 596q0 -201 111.5 -330t324.5 -129q227 0 409.5 176t223.5 414q12 63 12 129q0 201 -113.5 331 t-322.5 130q-223 0 -406.5 -177t-226.5 -413q-12 -68 -12 -131zM725 1923h188l113 -305h-141z" />
<glyph unicode="&#xd3;" horiz-adv-x="1593" d="M82 588q0 68 12 139q55 309 285.5 527.5t548.5 218.5q262 0 421.5 -167t159.5 -429q0 -59 -14 -150q-53 -303 -291.5 -524t-539.5 -221q-285 0 -433.5 170t-148.5 436zM254 596q0 -201 111.5 -330t324.5 -129q227 0 409.5 176t223.5 414q12 63 12 129q0 201 -113.5 331 t-322.5 130q-223 0 -406.5 -177t-226.5 -413q-12 -68 -12 -131zM821 1618l219 305h191l-268 -305h-142z" />
<glyph unicode="&#xd4;" horiz-adv-x="1593" d="M82 588q0 68 12 139q55 309 285.5 527.5t548.5 218.5q262 0 421.5 -167t159.5 -429q0 -59 -14 -150q-53 -303 -291.5 -524t-539.5 -221q-285 0 -433.5 170t-148.5 436zM254 596q0 -201 111.5 -330t324.5 -129q227 0 409.5 176t223.5 414q12 63 12 129q0 201 -113.5 331 t-322.5 130q-223 0 -406.5 -177t-226.5 -413q-12 -68 -12 -131zM692 1618l244 305h135l139 -305h-137l-94 172l-150 -172h-137z" />
<glyph unicode="&#xd5;" horiz-adv-x="1593" d="M82 588q0 68 12 139q55 309 285.5 527.5t548.5 218.5q262 0 421.5 -167t159.5 -429q0 -59 -14 -150q-53 -303 -291.5 -524t-539.5 -221q-285 0 -433.5 170t-148.5 436zM254 596q0 -201 111.5 -330t324.5 -129q227 0 409.5 176t223.5 414q12 63 12 129q0 201 -113.5 331 t-322.5 130q-223 0 -406.5 -177t-226.5 -413q-12 -68 -12 -131zM647 1712q10 16 27.5 41t72 65t107.5 40q63 0 144 -58.5t122 -58.5q57 0 115 82l96 -70q-10 -16 -27.5 -38.5t-70.5 -61.5t-107 -39q-68 0 -149.5 58.5t-116.5 58.5q-25 0 -53.5 -22.5t-44.5 -45.5l-17 -23z " />
<glyph unicode="&#xd6;" horiz-adv-x="1593" d="M82 588q0 68 12 139q55 309 285.5 527.5t548.5 218.5q262 0 421.5 -167t159.5 -429q0 -59 -14 -150q-53 -303 -291.5 -524t-539.5 -221q-285 0 -433.5 170t-148.5 436zM254 596q0 -201 111.5 -330t324.5 -129q227 0 409.5 176t223.5 414q12 63 12 129q0 201 -113.5 331 t-322.5 130q-223 0 -406.5 -177t-226.5 -413q-12 -68 -12 -131zM719 1618l37 211h190l-37 -211h-190zM1077 1618l37 211h191l-37 -211h-191z" />
<glyph unicode="&#xd7;" horiz-adv-x="1228" d="M174 254l328 328l-328 329l111 111l329 -328l328 328l113 -111l-330 -329l330 -328l-113 -113l-328 330l-329 -330z" />
<glyph unicode="&#xd8;" horiz-adv-x="1720" d="M82 -2l194 213q-113 160 -112 377q0 68 12 139q53 303 295 524.5t539 221.5q188 0 333 -101l158 170l135 -108l-168 -183q121 -162 121 -387q0 -66 -12 -137q-53 -303 -294 -524t-538 -221q-205 0 -348 108l-184 -203zM336 600q0 -135 67 -252l822 895 q-57 39 -107.5 56.5t-136.5 17.5q-225 0 -407.5 -176t-225.5 -414q-12 -68 -12 -127zM516 219q111 -82 256 -82q227 0 409.5 176t223.5 414q14 82 14 135q0 135 -76 252z" />
<glyph unicode="&#xd9;" horiz-adv-x="1515" d="M133 397q0 94 29 267l139 790h172l-135 -772q-33 -186 -33 -270q0 -135 76 -206t264 -71q221 0 346 149.5t168 395.5l137 774h172l-139 -790q-29 -156 -76 -273t-128 -213t-207.5 -146t-299.5 -50q-264 0 -374.5 103t-110.5 312zM707 1923h188l113 -305h-142z" />
<glyph unicode="&#xda;" horiz-adv-x="1515" d="M133 397q0 94 29 267l139 790h172l-135 -772q-33 -186 -33 -270q0 -135 76 -206t264 -71q221 0 346 149.5t168 395.5l137 774h172l-139 -790q-29 -156 -76 -273t-128 -213t-207.5 -146t-299.5 -50q-264 0 -374.5 103t-110.5 312zM772 1618l219 305h191l-269 -305h-141z " />
<glyph unicode="&#xdb;" horiz-adv-x="1515" d="M133 397q0 94 29 267l139 790h172l-135 -772q-33 -186 -33 -270q0 -135 76 -206t264 -71q221 0 346 149.5t168 395.5l137 774h172l-139 -790q-29 -156 -76 -273t-128 -213t-207.5 -146t-299.5 -50q-264 0 -374.5 103t-110.5 312zM635 1618l244 305h135l139 -305h-137 l-94 172l-150 -172h-137z" />
<glyph unicode="&#xdc;" horiz-adv-x="1515" d="M133 397q0 94 29 267l139 790h172l-135 -772q-33 -186 -33 -270q0 -135 76 -206t264 -71q221 0 346 149.5t168 395.5l137 774h172l-139 -790q-29 -156 -76 -273t-128 -213t-207.5 -146t-299.5 -50q-264 0 -374.5 103t-110.5 312zM639 1618l37 211h190l-37 -211h-190z M997 1618l37 211h191l-37 -211h-191z" />
<glyph unicode="&#xdd;" horiz-adv-x="1165" d="M117 1454h190l266 -729l525 729h194l-661 -907l-96 -547h-173l97 549zM623 1618l219 305h190l-268 -305h-141z" />
<glyph unicode="&#xde;" horiz-adv-x="1304" d="M74 0l256 1454h172l-51 -289h352q223 0 336.5 -88t113.5 -252q0 -43 -10 -100q-41 -227 -182 -332.5t-414 -105.5h-352l-49 -287h-172zM324 440h350q188 0 279 66.5t118 218.5q10 61 10 96q0 104 -73.5 146.5t-257.5 42.5h-326z" />
<glyph unicode="&#xdf;" horiz-adv-x="1132" d="M31 0l182 1032q80 440 496 441q135 0 222 -87.5t87 -232.5q0 -43 -10 -100q-18 -92 -84 -179.5t-158 -125.5q84 -14 146.5 -91t62.5 -194q0 -33 -6 -70q-41 -223 -179.5 -317t-429.5 -94l27 155q199 2 307.5 66.5t108.5 245.5q0 193 -297 192l31 172q145 6 226 88t81 232 q0 184 -174 184q-236 0 -285 -285l-182 -1032h-172z" />
<glyph unicode="&#xe0;" horiz-adv-x="1103" d="M41 250q0 182 143.5 287.5t347.5 105.5q297 0 297 168q0 143 -206 143q-174 0 -306 -135l-98 111q6 6 17.5 18.5t52.5 42t86 52t117.5 41t150.5 18.5q338 0 338 -291q0 -47 -121 -733q-2 -10 -2 -21q0 -29 25 -28l-4 -29h-123q-55 0 -56 63q0 10 9 54 q-154 -135 -344 -135q-158 0 -241 71.5t-83 196.5zM211 270q0 -68 46 -107.5t138 -39.5q106 0 181 33.5t115 99.5t56.5 119t30.5 133l15 80q-63 -82 -265 -82q-129 0 -223 -56.5t-94 -179.5zM449 1552h188l113 -305h-142z" />
<glyph unicode="&#xe1;" horiz-adv-x="1103" d="M41 250q0 182 143.5 287.5t347.5 105.5q297 0 297 168q0 143 -206 143q-174 0 -306 -135l-98 111q6 6 17.5 18.5t52.5 42t86 52t117.5 41t150.5 18.5q338 0 338 -291q0 -47 -121 -733q-2 -10 -2 -21q0 -29 25 -28l-4 -29h-123q-55 0 -56 63q0 10 9 54 q-154 -135 -344 -135q-158 0 -241 71.5t-83 196.5zM211 270q0 -68 46 -107.5t138 -39.5q106 0 181 33.5t115 99.5t56.5 119t30.5 133l15 80q-63 -82 -265 -82q-129 0 -223 -56.5t-94 -179.5zM598 1247l219 305h191l-269 -305h-141z" />
<glyph unicode="&#xe2;" horiz-adv-x="1103" d="M41 250q0 182 143.5 287.5t347.5 105.5q297 0 297 168q0 143 -206 143q-174 0 -306 -135l-98 111q6 6 17.5 18.5t52.5 42t86 52t117.5 41t150.5 18.5q338 0 338 -291q0 -47 -121 -733q-2 -10 -2 -21q0 -29 25 -28l-4 -29h-123q-55 0 -56 63q0 10 9 54 q-154 -135 -344 -135q-158 0 -241 71.5t-83 196.5zM211 270q0 -68 46 -107.5t138 -39.5q106 0 181 33.5t115 99.5t56.5 119t30.5 133l15 80q-63 -82 -265 -82q-129 0 -223 -56.5t-94 -179.5zM416 1247l243 305h136l139 -305h-137l-95 172l-149 -172h-137z" />
<glyph unicode="&#xe3;" horiz-adv-x="1179" d="M41 250q0 182 143.5 287.5t347.5 105.5q297 0 297 168q0 143 -206 143q-174 0 -306 -135l-98 111q6 6 17.5 18.5t52.5 42t86 52t117.5 41t150.5 18.5q338 0 338 -291q0 -47 -121 -733q-2 -10 -2 -21q0 -29 25 -28l-4 -29h-123q-55 0 -56 63q0 10 9 54 q-154 -135 -344 -135q-158 0 -241 71.5t-83 196.5zM211 270q0 -68 46 -107.5t138 -39.5q106 0 181 33.5t115 99.5t56.5 119t30.5 133l15 80q-63 -82 -265 -82q-129 0 -223 -56.5t-94 -179.5zM373 1341q10 16 27.5 41t71.5 65t108 40q63 0 144 -58.5t122 -58.5q57 0 115 82 l96 -70q-10 -16 -27.5 -38.5t-71 -61.5t-106.5 -39q-68 0 -149.5 58.5t-116.5 58.5q-25 0 -53.5 -22.5t-45.5 -45.5l-16 -22z" />
<glyph unicode="&#xe4;" horiz-adv-x="1103" d="M41 250q0 182 143.5 287.5t347.5 105.5q297 0 297 168q0 143 -206 143q-174 0 -306 -135l-98 111q6 6 17.5 18.5t52.5 42t86 52t117.5 41t150.5 18.5q338 0 338 -291q0 -47 -121 -733q-2 -10 -2 -21q0 -29 25 -28l-4 -29h-123q-55 0 -56 63q0 10 9 54 q-154 -135 -344 -135q-158 0 -241 71.5t-83 196.5zM211 270q0 -68 46 -107.5t138 -39.5q106 0 181 33.5t115 99.5t56.5 119t30.5 133l15 80q-63 -82 -265 -82q-129 0 -223 -56.5t-94 -179.5zM422 1247l37 211h190l-37 -211h-190zM780 1247l37 211h191l-37 -211h-191z" />
<glyph unicode="&#xe5;" horiz-adv-x="1103" d="M41 250q0 182 143.5 287.5t347.5 105.5q297 0 297 168q0 143 -206 143q-174 0 -306 -135l-98 111q6 6 17.5 18.5t52.5 42t86 52t117.5 41t150.5 18.5q338 0 338 -291q0 -47 -121 -733q-2 -10 -2 -21q0 -29 25 -28l-4 -29h-123q-55 0 -56 63q0 10 9 54 q-154 -135 -344 -135q-158 0 -241 71.5t-83 196.5zM211 270q0 -68 46 -107.5t138 -39.5q106 0 181 33.5t115 99.5t56.5 119t30.5 133l15 80q-63 -82 -265 -82q-129 0 -223 -56.5t-94 -179.5zM489 1460q0 84 60.5 144.5t144.5 60.5t145.5 -60.5t61.5 -144.5t-61.5 -144.5 t-145.5 -60.5t-144.5 60.5t-60.5 144.5zM614 1460q0 -35 22.5 -57.5t57.5 -22.5t58.5 23.5t23.5 56.5t-24.5 56.5t-57 23.5t-56.5 -23.5t-24 -56.5z" />
<glyph unicode="&#xe6;" horiz-adv-x="1937" d="M41 260q0 31 6 66q23 131 142.5 224t345.5 93q270 0 292 135q4 25 4 33q0 70 -58 106.5t-148 36.5q-176 0 -306 -135l-98 111q6 6 17.5 18.5t52.5 42t86 52t116.5 41t149.5 18.5q264 0 324 -187q170 186 430 187q205 0 316.5 -124t111.5 -302q0 -51 -10 -117l-11 -61 h-864q-4 -31 -4 -64q0 -143 73.5 -224t227.5 -81q190 0 346 156l113 -74q-195 -229 -484 -229q-115 0 -229.5 52t-171.5 173q-154 -225 -444 -225q-152 0 -239 75.5t-87 202.5zM221 272q0 -68 46 -108.5t130 -40.5q86 0 151.5 24.5t103.5 58.5t65.5 89t39 98t21.5 105l17 96 q-68 -88 -265 -88q-129 0 -219 -55.5t-90 -178.5zM975 645h694v19q0 47 -10 90t-39 92t-92.5 78.5t-155.5 29.5q-133 0 -238.5 -76.5t-158.5 -232.5z" />
<glyph unicode="&#xe7;" horiz-adv-x="1148" d="M53 418q0 55 8 104q43 260 212 420t419 160q150 0 238 -77t127 -181l-144 -74q-16 39 -28.5 61.5t-40 56.5t-72.5 50t-106 16q-160 0 -281 -102t-162 -330q-8 -47 -8 -98q0 -150 81 -222.5t214 -72.5q221 0 338 172l119 -68q-63 -104 -185.5 -177.5t-298.5 -73.5 q-25 0 -69 4l-43 -99q41 39 94 39q141 0 141 -123q0 -14 -4 -43q-12 -72 -74.5 -127t-156.5 -63l22 119q96 25 96 92q0 37 -57 37q-92 0 -170 -107l-4 -4l-84 51l119 260q-111 49 -175.5 154t-64.5 246z" />
<glyph unicode="&#xe8;" horiz-adv-x="1214" d="M53 403q0 127 42 250t119 223.5t196.5 163t263.5 62.5q215 0 321.5 -122t106.5 -304q0 -53 -21 -178h-864q-6 -49 -6 -92q0 -276 303 -277q190 0 336 160l123 -78q-199 -229 -486 -229q-53 0 -107 10t-114.5 39.5t-105.5 76t-76 123t-31 172.5zM250 645h694q4 37 4 57 q0 104 -66.5 178t-234.5 74q-127 0 -235.5 -77.5t-161.5 -231.5zM461 1552h188l113 -305h-141z" />
<glyph unicode="&#xe9;" horiz-adv-x="1214" d="M53 403q0 127 42 250t119 223.5t196.5 163t263.5 62.5q215 0 321.5 -122t106.5 -304q0 -53 -21 -178h-864q-6 -49 -6 -92q0 -276 303 -277q190 0 336 160l123 -78q-199 -229 -486 -229q-53 0 -107 10t-114.5 39.5t-105.5 76t-76 123t-31 172.5zM250 645h694q4 37 4 57 q0 104 -66.5 178t-234.5 74q-127 0 -235.5 -77.5t-161.5 -231.5zM621 1247l219 305h190l-268 -305h-141z" />
<glyph unicode="&#xea;" horiz-adv-x="1214" d="M53 403q0 127 42 250t119 223.5t196.5 163t263.5 62.5q215 0 321.5 -122t106.5 -304q0 -53 -21 -178h-864q-6 -49 -6 -92q0 -276 303 -277q190 0 336 160l123 -78q-199 -229 -486 -229q-53 0 -107 10t-114.5 39.5t-105.5 76t-76 123t-31 172.5zM250 645h694q4 37 4 57 q0 104 -66.5 178t-234.5 74q-127 0 -235.5 -77.5t-161.5 -231.5zM459 1247l243 305h136l139 -305h-137l-95 172l-149 -172h-137z" />
<glyph unicode="&#xeb;" horiz-adv-x="1214" d="M53 403q0 127 42 250t119 223.5t196.5 163t263.5 62.5q215 0 321.5 -122t106.5 -304q0 -53 -21 -178h-864q-6 -49 -6 -92q0 -276 303 -277q190 0 336 160l123 -78q-199 -229 -486 -229q-53 0 -107 10t-114.5 39.5t-105.5 76t-76 123t-31 172.5zM250 645h694q4 37 4 57 q0 104 -66.5 178t-234.5 74q-127 0 -235.5 -77.5t-161.5 -231.5zM471 1247l37 211h190l-36 -211h-191zM829 1247l37 211h191l-37 -211h-191z" />
<glyph unicode="&#xec;" horiz-adv-x="530" d="M57 0l191 1083h162l-191 -1083h-162zM168 1552h188l113 -305h-141z" />
<glyph unicode="&#xed;" horiz-adv-x="528" d="M57 0l191 1083h162l-191 -1083h-162zM176 1247l219 305h191l-269 -305h-141z" />
<glyph unicode="&#xee;" horiz-adv-x="544" d="M57 0l191 1083h162l-191 -1083h-162zM88 1247l244 305h135l139 -305h-137l-94 172l-150 -172h-137z" />
<glyph unicode="&#xef;" horiz-adv-x="550" d="M57 0l191 1083h162l-191 -1083h-162zM86 1247l37 211h190l-37 -211h-190zM444 1247l37 211h191l-37 -211h-191z" />
<glyph unicode="&#xf0;" horiz-adv-x="1196" d="M57 412q0 59 9 110q45 248 199.5 404.5t383.5 156.5q123 0 201 -69q-18 98 -59 198h-390l31 168h281l-31 56l168 114q49 -92 84 -170h170l-31 -168h-76q66 -207 66 -424q0 -129 -25 -274q-41 -231 -199.5 -381.5t-377.5 -150.5q-190 0 -297 117.5t-107 312.5zM240 385 q0 -115 57 -175t192 -60q158 0 247 104t118 268q14 92 14 148q0 121 -57 184.5t-193 63.5q-295 0 -364 -396q-14 -86 -14 -137z" />
<glyph unicode="&#xf1;" horiz-adv-x="1286" d="M57 0l191 1083h162l18 -133q156 152 356 152q176 0 254 -83t78 -214q0 -51 -8 -92l-125 -713h-162l125 709q6 33 6 69q0 176 -196 176q-174 0 -290 -105.5t-149 -293.5l-98 -555h-162zM442 1341q10 16 27.5 41t72 65t107.5 40q63 0 144 -58.5t122 -58.5q57 0 115 82 l96 -70q-10 -16 -27.5 -38.5t-70.5 -61.5t-106 -39q-68 0 -150 58.5t-117 58.5q-25 0 -53.5 -22.5t-44.5 -45.5l-16 -22z" />
<glyph unicode="&#xf2;" horiz-adv-x="1255" d="M53 434q0 160 82 313.5t231.5 254t321.5 100.5q195 0 316.5 -127t121.5 -324q0 -162 -80.5 -315.5t-229 -253.5t-324.5 -100q-193 0 -316 127.5t-123 324.5zM217 446q0 -139 76 -228t223 -89q186 0 316.5 158.5t130.5 355.5q0 137 -74 224t-225 87q-184 0 -315.5 -156.5 t-131.5 -351.5zM467 1552h188l113 -305h-141z" />
<glyph unicode="&#xf3;" horiz-adv-x="1255" d="M53 434q0 160 82 313.5t231.5 254t321.5 100.5q195 0 316.5 -127t121.5 -324q0 -162 -80.5 -315.5t-229 -253.5t-324.5 -100q-193 0 -316 127.5t-123 324.5zM217 446q0 -139 76 -228t223 -89q186 0 316.5 158.5t130.5 355.5q0 137 -74 224t-225 87q-184 0 -315.5 -156.5 t-131.5 -351.5zM627 1247l219 305h190l-268 -305h-141z" />
<glyph unicode="&#xf4;" horiz-adv-x="1255" d="M53 434q0 160 82 313.5t231.5 254t321.5 100.5q195 0 316.5 -127t121.5 -324q0 -162 -80.5 -315.5t-229 -253.5t-324.5 -100q-193 0 -316 127.5t-123 324.5zM217 446q0 -139 76 -228t223 -89q186 0 316.5 158.5t130.5 355.5q0 137 -74 224t-225 87q-184 0 -315.5 -156.5 t-131.5 -351.5zM475 1247l244 305h135l139 -305h-137l-94 172l-150 -172h-137z" />
<glyph unicode="&#xf5;" horiz-adv-x="1255" d="M53 434q0 160 82 313.5t231.5 254t321.5 100.5q195 0 316.5 -127t121.5 -324q0 -162 -80.5 -315.5t-229 -253.5t-324.5 -100q-193 0 -316 127.5t-123 324.5zM217 446q0 -139 76 -228t223 -89q186 0 316.5 158.5t130.5 355.5q0 137 -74 224t-225 87q-184 0 -315.5 -156.5 t-131.5 -351.5zM455 1341q10 16 27.5 41t71.5 65t107 40q63 0 144.5 -58.5t122.5 -58.5q57 0 114 82l97 -70q-10 -16 -27.5 -38.5t-71 -61.5t-106.5 -39q-68 0 -150 58.5t-116 58.5q-25 0 -53.5 -22.5t-45.5 -45.5l-16 -22z" />
<glyph unicode="&#xf6;" horiz-adv-x="1255" d="M53 434q0 160 82 313.5t231.5 254t321.5 100.5q195 0 316.5 -127t121.5 -324q0 -162 -80.5 -315.5t-229 -253.5t-324.5 -100q-193 0 -316 127.5t-123 324.5zM217 446q0 -139 76 -228t223 -89q186 0 316.5 158.5t130.5 355.5q0 137 -74 224t-225 87q-184 0 -315.5 -156.5 t-131.5 -351.5zM463 1247l37 211h190l-37 -211h-190zM821 1247l37 211h191l-37 -211h-191z" />
<glyph unicode="&#xf7;" horiz-adv-x="1228" d="M154 449v200h923v-200h-923zM518 0v231h195v-231h-195zM518 864v232h195v-232h-195z" />
<glyph unicode="&#xf8;" horiz-adv-x="1255" d="M53 430q0 45 10 111q41 238 221.5 399.5t405.5 161.5q96 0 174 -31l109 152l153 -88l-116 -162q117 -123 116 -320q0 -47 -10 -112q-41 -238 -220 -398.5t-404 -160.5q-92 0 -175 28l-112 -160l-150 89l121 167q-123 123 -123 324zM217 455q0 -115 62 -205l489 686 q-49 18 -104 18q-158 0 -284 -123.5t-155 -289.5q-8 -41 -8 -86zM416 145q49 -16 102 -16q158 0 283 123t153 289q6 41 7 80q0 121 -56 206z" />
<glyph unicode="&#xf9;" horiz-adv-x="1284" d="M92 279q0 51 8 92l125 712h162l-125 -708q-6 -35 -6 -70q0 -176 197 -176q174 0 289.5 105.5t148.5 293.5l98 555h162l-190 -1083h-162l-15 131q-154 -150 -360 -149q-176 0 -254 83t-78 214zM483 1552h189l112 -305h-141z" />
<glyph unicode="&#xfa;" horiz-adv-x="1284" d="M92 279q0 51 8 92l125 712h162l-125 -708q-6 -35 -6 -70q0 -176 197 -176q174 0 289.5 105.5t148.5 293.5l98 555h162l-190 -1083h-162l-15 131q-154 -150 -360 -149q-176 0 -254 83t-78 214zM614 1247l220 305h190l-268 -305h-142z" />
<glyph unicode="&#xfb;" horiz-adv-x="1284" d="M92 279q0 51 8 92l125 712h162l-125 -708q-6 -35 -6 -70q0 -176 197 -176q174 0 289.5 105.5t148.5 293.5l98 555h162l-190 -1083h-162l-15 131q-154 -150 -360 -149q-176 0 -254 83t-78 214zM459 1247l243 305h136l139 -305h-137l-95 172l-149 -172h-137z" />
<glyph unicode="&#xfc;" horiz-adv-x="1284" d="M92 279q0 51 8 92l125 712h162l-125 -708q-6 -35 -6 -70q0 -176 197 -176q174 0 289.5 105.5t148.5 293.5l98 555h162l-190 -1083h-162l-15 131q-154 -150 -360 -149q-176 0 -254 83t-78 214zM440 1247l37 211h191l-37 -211h-191zM799 1247l37 211h190l-37 -211h-190z " />
<glyph unicode="&#xfd;" horiz-adv-x="1058" d="M-102 -387l24 147q147 0 215 48.5t152 199.5l-254 1075h178l188 -872l504 872h193l-649 -1083q-68 -113 -121.5 -183.5t-96.5 -113.5t-99 -61.5t-102 -23.5t-132 -5zM471 1247l219 305h191l-269 -305h-141z" />
<glyph unicode="&#xfe;" horiz-adv-x="1323" d="M-16 -369l321 1823h162l-92 -520q68 74 175 121t204 47q199 0 317.5 -130t118.5 -327q0 -45 -10 -106q-43 -244 -216 -400.5t-409 -156.5q-100 0 -188 48t-129 122l-93 -521h-161zM287 451q0 -137 76.5 -229.5t222.5 -92.5q156 0 279.5 123t152.5 287q10 57 10 102 q0 137 -72.5 225t-224.5 88q-162 0 -282.5 -115.5t-153.5 -299.5q-8 -39 -8 -88z" />
<glyph unicode="&#xff;" horiz-adv-x="1058" d="M-102 -387l24 147q147 0 215 48.5t152 199.5l-254 1075h178l188 -872l504 872h193l-649 -1083q-68 -113 -121.5 -183.5t-96.5 -113.5t-99 -61.5t-102 -23.5t-132 -5zM313 1247l37 211h191l-37 -211h-191zM672 1247l37 211h190l-37 -211h-190z" />
<glyph unicode="&#x152;" horiz-adv-x="2381" d="M82 590q0 66 12 137q53 303 294 524.5t538 221.5q164 0 290.5 -73t200.5 -196l45 250h940l-26 -154h-768l-84 -469h645l-27 -153h-645l-94 -524h788l-26 -154h-961l45 250q-254 -268 -585 -268q-262 0 -422 175t-160 433zM256 604q0 -197 114.5 -323.5t321.5 -126.5 q227 0 407.5 169t223.5 404q12 63 12 129q0 197 -112.5 320.5t-325.5 123.5q-227 0 -407.5 -168.5t-223.5 -404.5q-10 -51 -10 -123z" />
<glyph unicode="&#x153;" horiz-adv-x="2107" d="M53 434q0 45 10 107q41 238 220.5 399.5t404.5 161.5q135 0 242.5 -67.5t156.5 -182.5q180 250 480 250q209 0 318.5 -126t109.5 -310q0 -49 -10 -107l-11 -61h-864q-4 -25 -4 -72q0 -139 74.5 -218t226.5 -79q190 0 346 156l113 -74q-195 -229 -484 -229 q-115 0 -233.5 63.5t-171.5 194.5q-100 -123 -214 -190.5t-271 -67.5q-193 0 -316 127.5t-123 324.5zM217 444q0 -137 76 -226t223 -89q158 0 283 123t155 289q8 43 9 98q0 139 -75 227t-224 88q-158 0 -284 -123.5t-155 -289.5q-8 -44 -8 -97zM1145 645h694v35q0 49 -9 89 t-37 86t-91.5 72.5t-159.5 26.5q-133 0 -238.5 -76.5t-158.5 -232.5z" />
<glyph unicode="&#x178;" horiz-adv-x="1165" d="M117 1454h190l266 -729l525 729h194l-661 -907l-96 -547h-173l97 549zM446 1618l37 211h191l-37 -211h-191zM805 1618l37 211h190l-37 -211h-190z" />
<glyph unicode="&#x2c6;" horiz-adv-x="927" d="M205 1167l244 306h135l139 -306h-137l-94 172l-150 -172h-137z" />
<glyph unicode="&#x2dc;" horiz-adv-x="1093" d="M205 1260q10 16 27.5 40.5t71.5 64.5t108 40q63 0 144 -58.5t122 -58.5q57 0 115 82l96 -70q-10 -16 -27.5 -38.5t-71 -61.5t-106.5 -39q-68 0 -149.5 58.5t-116.5 58.5q-25 0 -53.5 -22.5t-45.5 -45.5l-16 -22z" />
<glyph unicode="&#x2013;" horiz-adv-x="1214" d="M109 483l34 201h924l-35 -201h-923z" />
<glyph unicode="&#x2014;" horiz-adv-x="1814" d="M109 483l34 201h1524l-35 -201h-1523z" />
<glyph unicode="&#x2018;" horiz-adv-x="477" d="M172 975l37 217q20 111 53 163t129 99l27 -82q-59 -35 -79 -66.5t-28 -86.5l-2 -13h99l-41 -231h-195z" />
<glyph unicode="&#x2019;" horiz-adv-x="452" d="M188 1057q57 35 78 67.5t29 85.5l2 13h-98l41 231h194l-39 -217q-20 -111 -53 -163t-127 -99z" />
<glyph unicode="&#x201a;" horiz-adv-x="462" d="M-8 -166q57 35 77.5 67.5t28.5 86.5l2 12h-98l41 231h195l-39 -217q-20 -111 -53 -163t-128 -99z" />
<glyph unicode="&#x201c;" horiz-adv-x="782" d="M172 975l37 217q20 111 53 163t129 99l27 -82q-59 -35 -79 -66.5t-28 -86.5l-2 -13h99l-41 -231h-195zM479 975l37 217q20 111 53 163t129 99l27 -82q-59 -35 -78.5 -66.5t-28.5 -86.5l-2 -13h99l-41 -231h-195z" />
<glyph unicode="&#x201d;" horiz-adv-x="782" d="M188 1057q57 35 78 67.5t29 85.5l2 13h-98l41 231h194l-39 -217q-20 -111 -53 -163t-127 -99zM496 1057q57 35 77.5 67.5t28.5 85.5l2 13h-98l41 231h194l-39 -217q-20 -111 -53 -163t-127 -99z" />
<glyph unicode="&#x201e;" horiz-adv-x="770" d="M-8 -166q57 35 77.5 67.5t28.5 86.5l2 12h-98l41 231h195l-39 -217q-20 -111 -53 -163t-128 -99zM299 -166q57 35 77.5 67.5t29.5 86.5l2 12h-99l41 231h195l-39 -217q-20 -111 -53 -163t-127 -99z" />
<glyph unicode="&#x2022;" horiz-adv-x="778" d="M164 590q0 84 59.5 144.5t145.5 60.5q84 0 144 -60.5t60 -144.5t-60 -144.5t-144 -60.5q-86 0 -145.5 60.5t-59.5 144.5z" />
<glyph unicode="&#x2026;" horiz-adv-x="1464" d="M25 0l41 231h194l-41 -231h-194zM506 0l41 231h194l-41 -231h-194zM987 0l41 231h195l-41 -231h-195z" />
<glyph unicode="&#x2039;" horiz-adv-x="718" d="M70 559l12 66l465 458l115 -112l-386 -379l252 -381l-153 -113z" />
<glyph unicode="&#x203a;" horiz-adv-x="716" d="M23 211l387 381l-250 379l155 112l301 -458l-12 -66l-465 -461z" />
<glyph unicode="&#x20ac;" d="M4 522l23 123h112l29 164h-113l21 123h121q145 541 596 541q164 0 259 -60.5t158 -183.5l-161 -94q-37 92 -98.5 134t-184.5 42q-274 0 -387 -379h483l-49 -123h-465l-29 -164h426l-49 -123h-391q-2 -23 -2 -63q0 -152 55.5 -234t202.5 -82q125 0 197.5 38t144.5 128 l131 -86q-193 -242 -499 -241q-414 0 -414 458q0 20 4 82h-121z" />
<glyph unicode="&#x2122;" horiz-adv-x="1609" d="M143 1350l19 104h590l-19 -104h-235l-111 -633h-119l111 633h-236zM682 717l129 737h188l97 -569l295 569h188l-129 -737h-119l103 586l-320 -586h-96l-115 586l-102 -586h-119z" />
<glyph unicode="&#xe000;" horiz-adv-x="1085" d="M0 1085h1085v-1085h-1085v1085z" />
<glyph unicode="&#xfb01;" horiz-adv-x="1114" d="M80 936l26 147h207l15 78q55 311 272 312l131 -19l-24 -147q-25 18 -76 18q-70 0 -102.5 -62.5t-53.5 -179.5h191l-27 -147h-190l-164 -936h-162l164 936h-207zM649 0l191 1083h161l-190 -1083h-162zM862 1231l39 223h170l-39 -223h-170z" />
<glyph unicode="&#xfb02;" horiz-adv-x="1157" d="M80 936l26 147h207l15 78q55 311 272 312l131 -19l-24 -147q-25 18 -76 18q-70 0 -102.5 -62.5t-53.5 -179.5h191l-27 -147h-190l-164 -936h-162l164 936h-207zM649 0l256 1454h162l-256 -1454h-162z" />
<glyph unicode="&#xfb03;" horiz-adv-x="1841" d="M80 936l26 147h207l15 78q55 311 272 312l131 -19l-24 -147q-25 18 -76 18q-70 0 -102.5 -62.5t-53.5 -179.5h191l-27 -147h-190l-164 -936h-162l164 936h-207zM739 936l27 147h207l14 78q55 311 273 312l131 -19l-25 -147q-25 18 -76 18q-70 0 -102.5 -62.5 t-52.5 -179.5h190l-27 -147h-190l-164 -936h-162l164 936h-207zM1376 0l191 1083h162l-191 -1083h-162zM1589 1231l39 223h170l-39 -223h-170z" />
<glyph unicode="&#xfb04;" horiz-adv-x="1884" d="M80 936l26 147h207l15 78q55 311 272 312l131 -19l-24 -147q-25 18 -76 18q-70 0 -102.5 -62.5t-53.5 -179.5h191l-27 -147h-190l-164 -936h-162l164 936h-207zM739 936l27 147h207l14 78q55 311 273 312l131 -19l-25 -147q-25 18 -76 18q-70 0 -102.5 -62.5 t-52.5 -179.5h190l-27 -147h-190l-164 -936h-162l164 936h-207zM1376 0l256 1454h162l-256 -1454h-162z" />
<glyph horiz-adv-x="593" />
</font>
</defs>
</svg>
