<?xml version="1.0" standalone="no"?>
<!DOCTYPE svg PUBLIC "-//W3C//DTD SVG 1.1//EN" "http://www.w3.org/Graphics/SVG/1.1/DTD/svg11.dtd" >
<svg xmlns="http://www.w3.org/2000/svg">
<metadata>
This is a custom SVG webfont generated by Font Squirrel.
Copyright   : Copyright c 2009 by The Entente AS  EH All rights reserved
Designer    : The Entente AS  EH
Foundry     : The Entente AS  EH
Foundry URL : httpwwwcolophonfoundryorg
</metadata>
<defs>
<font id="ReaderBoldItalic" horiz-adv-x="1208" >
<font-face units-per-em="2048" ascent="1536" descent="-512" />
<missing-glyph horiz-adv-x="532" />
<glyph unicode=" "  horiz-adv-x="532" />
<glyph unicode="&#x09;" horiz-adv-x="532" />
<glyph unicode="&#xa0;" horiz-adv-x="532" />
<glyph unicode="!" horiz-adv-x="720" d="M123 0l49 283h301l-49 -283h-301zM242 451l77 643l64 360h293l-64 -360l-153 -643h-217z" />
<glyph unicode="&#x22;" horiz-adv-x="983" d="M225 971l23 280l35 203h239l-35 -203l-77 -280h-185zM645 971l23 280l34 203h240l-35 -203l-78 -280h-184z" />
<glyph unicode="#" horiz-adv-x="1615" d="M72 354l49 275h237l86 223h-192l49 274h250l125 328h285l-127 -328h233l125 328h283l-125 -328h213l-50 -274h-270l-86 -223h225l-49 -275h-280l-135 -354h-283l135 354h-233l-136 -354h-282l135 354h-182zM643 629h231l87 223h-234z" />
<glyph unicode="$" horiz-adv-x="1234" d="M-102 276l262 140q18 -49 82.5 -97.5t152.5 -56.5l64 363q-395 57 -396 350q0 115 46.5 206t125 148t172 90t201.5 45l29 162h262l-29 -164q113 -16 204 -70.5t126 -101.5l35 -45l-264 -149q-10 23 -49 53.5t-99 46.5l-59 -342q188 -25 308 -112t120 -232 q0 -109 -34 -196t-90 -143t-134 -97t-157 -60.5t-169 -27.5l-26 -154h-263l27 162q-352 44 -448 282zM360 1010q0 -53 36 -78t110 -39l55 311q-201 -40 -201 -194zM653 248q102 4 172 57t70 156q0 61 -46 91t-134 44z" />
<glyph unicode="%" horiz-adv-x="1544" d="M31 0l1206 1454h236l-1209 -1454h-233zM156 1030q0 51 8 94q12 68 36.5 126.5t67.5 110.5t112 82t157 30q135 0 195.5 -72t60.5 -189q0 -31 -9 -88q-63 -358 -372 -358q-131 0 -193.5 72.5t-62.5 191.5zM338 1016q0 -98 100 -98q76 0 108 52t50 154q12 74 12 105 q0 47 -21.5 70.5t-76.5 23.5q-76 0 -108.5 -51t-49.5 -148q-14 -67 -14 -108zM707 246q0 51 8 94q12 68 36.5 126t67.5 110.5t111.5 82t156.5 29.5q135 0 195.5 -71.5t60.5 -188.5q0 -31 -8 -88q-63 -358 -372 -358q-131 0 -193.5 72.5t-62.5 191.5zM889 231q0 -98 100 -98 q76 0 107.5 52.5t50.5 154.5q12 74 12 104q0 47 -21.5 71t-76.5 24q-76 0 -108.5 -51.5t-49.5 -147.5q-14 -68 -14 -109z" />
<glyph unicode="&#x26;" horiz-adv-x="1486" d="M72 346q0 168 94 277.5t272 193.5q-98 143 -98 275q0 174 140.5 277.5t328.5 103.5q143 0 242.5 -77t99.5 -208q0 -164 -81 -271.5t-245 -191.5l174 -238q63 63 166 203l152 -203q-68 -94 -174 -196l223 -291h-326l-86 125q-162 -143 -446 -143q-100 0 -195.5 35.5 t-168 121.5t-72.5 207zM338 387q0 -86 62.5 -123t152.5 -37q160 0 264 86l-237 326q-94 -33 -168 -97.5t-74 -154.5zM612 1087q0 -94 76 -186q86 41 135 93.5t49 146.5q0 84 -110 84q-63 0 -106.5 -33t-43.5 -105z" />
<glyph unicode="'" horiz-adv-x="512" d="M143 971l23 280l35 203h239l-34 -203l-78 -280h-185z" />
<glyph unicode="(" horiz-adv-x="796" d="M92 295q0 133 23 252q109 608 579 1030l162 -170q-395 -346 -485 -860q-27 -160 -27 -275q0 -332 207 -587l-211 -160q-248 342 -248 770z" />
<glyph unicode=")" horiz-adv-x="796" d="M-66 -315q397 348 488 862q25 137 24 262q0 354 -206 598l202 154q127 -135 195 -336t68 -396q0 -127 -27 -282q-109 -610 -580 -1032z" />
<glyph unicode="*" horiz-adv-x="1062" d="M51 1040l125 248l248 -92l37 277h266l-61 -277l280 92l35 -248l-279 -73l132 -224l-236 -153l-121 227l-198 -227l-183 153l209 224z" />
<glyph unicode="+" horiz-adv-x="1341" d="M113 487v226h424v446h260v-446h422v-226h-422v-460h-260v460h-424z" />
<glyph unicode="," horiz-adv-x="542" d="M10 0l51 289h308l-52 -289q-18 -104 -52 -145t-179 -142l-76 119q78 43 106.5 77t35.5 77l2 14h-144z" />
<glyph unicode="-" horiz-adv-x="954" d="M100 483l41 236h701l-41 -236h-701z" />
<glyph unicode="." horiz-adv-x="655" d="M102 0l52 289h307l-51 -289h-308z" />
<glyph unicode="/" horiz-adv-x="1187" d="M-41 0l1057 1473h305l-1059 -1473h-303z" />
<glyph unicode="0" d="M39 496q0 111 22 241q20 119 49 215.5t82.5 197.5t122 168.5t176 111t240.5 43.5q223 0 328.5 -139.5t105.5 -360.5q0 -113 -22 -238q-23 -129 -52.5 -230.5t-83 -202.5t-123 -168.5t-176 -109.5t-239.5 -42q-225 0 -327.5 139t-102.5 375zM315 455q0 -100 44 -155.5 t155 -55.5q68 0 122 28.5t87 69.5t58.5 109.5t39 124t27.5 139.5l6 39q31 162 31 245q0 94 -50.5 152.5t-148.5 58.5q-70 0 -123 -27.5t-85 -66.5t-57.5 -106.5t-38.5 -120.5t-28 -135l-6 -39q-33 -180 -33 -260z" />
<glyph unicode="1" d="M240 944l47 262q18 0 43.5 1t89 14.5t114 37t96.5 74.5t58 121h283l-256 -1454h-291l166 944h-350z" />
<glyph unicode="2" d="M-14 0l37 213q25 143 115.5 249.5t205.5 168t226.5 115t195.5 122t100 156.5q4 29 4 43q0 143 -196 143q-172 0 -314 -123l-147 187q231 199 508 199q203 0 322.5 -103.5t119.5 -267.5q0 -37 -6 -78q-23 -123 -111 -224.5t-199.5 -167t-222 -121.5t-191.5 -118.5 t-91 -130.5h680l-45 -262h-991z" />
<glyph unicode="3" d="M-20 219l210 158q78 -133 295 -133q268 0 312 200q6 27 6 54q0 168 -303 168l45 254q51 0 85 2t81 12t76.5 28.5t50 54.5t20.5 85q0 53 -51 82.5t-135 29.5q-92 0 -167 -29.5t-159 -107.5l-156 174q201 221 512 222q180 0 305.5 -91.5t125.5 -246.5q0 -252 -263 -342 q109 -35 164.5 -116t55.5 -177q0 -242 -188.5 -380t-461.5 -138q-139 0 -275 60t-185 177z" />
<glyph unicode="4" d="M-51 256l45 262l708 936h330l-708 -936h311l72 395h290l-71 -395h243l-45 -262h-243l-45 -256h-291l45 256h-641z" />
<glyph unicode="5" d="M-35 203l234 170q37 -61 120.5 -95t176.5 -34q117 0 199.5 73.5t105.5 196.5q6 35 6 61q0 90 -54.5 136.5t-144.5 46.5q-166 0 -282 -133h-250l209 829h884l-45 -262h-641l-67 -262q113 90 278 90q158 0 282 -109.5t124 -298.5q0 -51 -8 -98q-43 -240 -206 -386 t-435 -146q-152 0 -282 57.5t-204 163.5z" />
<glyph unicode="6" d="M27 479q0 94 16 178q68 385 266.5 600.5t493.5 215.5q238 0 379 -146l-178 -199q-121 82 -267 82q-94 0 -190 -74.5t-160 -256.5q43 55 136 88.5t182 33.5q186 0 309 -116.5t123 -294.5q0 -41 -7 -80q-41 -244 -215 -386t-419 -142q-207 0 -338 126.5t-131 370.5z M315 428q0 -184 226 -184q109 0 189.5 69.5t100.5 180.5q4 18 5 53q0 90 -53.5 141t-153.5 51q-113 0 -200 -60.5t-107 -184.5q-7 -37 -7 -66z" />
<glyph unicode="7" d="M143 1192l47 262h1027l-48 -262q-268 -254 -417.5 -536.5t-237.5 -655.5h-291q53 303 211 613.5t406 578.5h-697z" />
<glyph unicode="8" d="M29 350q0 35 6 76q23 117 104.5 217t184.5 127q-66 33 -103 100.5t-37 145.5q0 16 4 45q29 197 178.5 304.5t352.5 107.5q168 0 283.5 -90.5t115.5 -245.5q0 -35 -6 -76q-16 -92 -79.5 -171t-164.5 -120q80 -37 126 -112.5t46 -163.5q0 -231 -171 -371.5t-412 -140.5 q-180 0 -304 101t-124 267zM322 385q0 -68 46 -104.5t134 -36.5q115 0 181.5 64.5t66.5 174.5q0 145 -181 146q-115 0 -181 -69t-66 -175zM459 1018q0 -127 157 -127q100 0 157.5 56.5t57.5 150.5q0 133 -153 133q-90 0 -145.5 -52.5t-69.5 -123.5q-4 -25 -4 -37z" />
<glyph unicode="9" d="M18 123l175 213q88 -92 276 -92q236 0 350 331q-117 -123 -317 -122q-178 0 -301 122.5t-123 292.5q0 250 181 427.5t452 177.5q215 0 343 -119t128 -363q0 -86 -19 -194q-72 -397 -262 -606t-498 -209q-248 0 -385 141zM371 903q0 -88 52 -138t154.5 -50t194.5 61.5 t113 184.5q6 37 6 65q0 184 -225 184q-109 0 -190 -69.5t-101 -179.5q-4 -21 -4 -58z" />
<glyph unicode=":" horiz-adv-x="657" d="M55 0l51 289h308l-52 -289h-307zM199 807l51 289h307l-51 -289h-307z" />
<glyph unicode=";" horiz-adv-x="657" d="M55 0l51 289h308l-52 -289q-18 -104 -52 -145t-179 -142l-76 119q78 43 106.5 77t35.5 77l2 14h-144zM199 807l51 289h307l-51 -289h-307z" />
<glyph unicode="&#x3c;" horiz-adv-x="1228" d="M164 590v119l680 589l168 -194l-527 -455l527 -454l-168 -195z" />
<glyph unicode="=" horiz-adv-x="1228" d="M145 154v286h938v-286h-938zM145 639v287h938v-287h-938z" />
<glyph unicode="&#x3e;" horiz-adv-x="1228" d="M217 195l526 454l-526 455l168 194l680 -589v-119l-680 -590z" />
<glyph unicode="?" horiz-adv-x="1091" d="M92 1219q102 113 259 183.5t306 70.5q162 0 292 -89.5t130 -234.5q0 -31 -6 -64q-16 -92 -68.5 -161.5t-116.5 -116.5l-128 -96q-63 -49 -115.5 -126t-71.5 -177h-280q20 137 78.5 236t127 151.5t135 94.5t110.5 94t44 124q0 53 -46 85t-130 32q-180 0 -350 -195zM211 0 l49 283h301l-49 -283h-301z" />
<glyph unicode="@" horiz-adv-x="1662" d="M117 379q0 242 105.5 450.5t304 337.5t444.5 129q260 0 414.5 -136t154.5 -392q0 -63 -14 -164q-37 -242 -129 -351.5t-271 -109.5q-72 0 -106.5 29t-34.5 59q-90 -94 -264 -94q-100 0 -181 60.5t-81 164.5q0 74 25.5 128.5t64.5 85t103.5 51t119.5 29t137 14.5 q35 2 54.5 7t36 21.5t16.5 44.5q0 59 -113 60q-131 0 -219 -90l-104 125q66 68 162 106.5t192 38.5q274 0 274 -231q0 -41 -8 -80l-47 -269q-4 -25 -4 -34q0 -35 35 -35q31 0 53.5 55t50.5 215q16 92 17 158q0 158 -87 234.5t-286 76.5q-211 0 -366.5 -146.5t-196.5 -375.5 q-16 -102 -17 -176q0 -176 92.5 -267.5t300.5 -91.5q244 0 379 80l115 -178q-170 -113 -534 -113q-268 0 -428 152t-160 422zM651 387q0 -76 121 -76q117 0 157 38t56 128l10 66q-45 -43 -157 -43q-187 0 -187 -113z" />
<glyph unicode="A" horiz-adv-x="1431" d="M-133 0l827 1454h310l315 -1454h-309l-66 319h-575l-176 -319h-326zM516 582h375l-100 491z" />
<glyph unicode="B" horiz-adv-x="1413" d="M45 0l256 1454h696q150 0 254.5 -84t104.5 -235q0 -37 -6 -80q-14 -80 -69.5 -157t-141.5 -107q51 -20 107.5 -95t56.5 -188q0 -260 -148.5 -384t-413.5 -124h-696zM385 262h406q76 0 142 42t83 138q6 31 6 58q0 68 -42 95.5t-126 27.5h-405zM496 885h383q152 0 178 153 q6 31 6 56q0 53 -31 75.5t-98 22.5h-383z" />
<glyph unicode="C" horiz-adv-x="1425" d="M76 582q0 72 12 145q57 317 281.5 531.5t531.5 214.5q182 0 314.5 -87.5t197.5 -238.5l-239 -127q-76 190 -320 190q-176 0 -309 -139t-170 -344q-14 -74 -15 -149q0 -334 324 -334q215 0 363 205l217 -142q-119 -152 -282 -238.5t-345 -86.5q-252 0 -406.5 170 t-154.5 430z" />
<glyph unicode="D" horiz-adv-x="1464" d="M45 0l256 1454h502q285 0 435.5 -155.5t150.5 -415.5q0 -393 -220.5 -638t-621.5 -245h-502zM385 262h197q262 0 389 170t127 453q0 147 -79 227t-271 80h-197z" />
<glyph unicode="E" horiz-adv-x="1294" d="M45 0l256 1454h1004l-45 -262h-713l-55 -303h575l-45 -262h-576l-65 -365h723l-45 -262h-1014z" />
<glyph unicode="F" horiz-adv-x="1204" d="M45 0l256 1454h954l-45 -262h-665l-56 -303h531l-45 -262h-531l-110 -627h-289z" />
<glyph unicode="G" horiz-adv-x="1552" d="M76 571q0 82 14 156q57 319 285.5 532.5t556.5 213.5q182 0 321.5 -86.5t208.5 -233.5l-258 -139q-78 197 -332 196q-193 0 -324.5 -137t-166.5 -346q-14 -92 -14 -149q0 -334 333 -334q311 0 367 315h-299l47 262h588l-146 -821h-286l-15 78q-72 -51 -132 -73.5 t-154 -22.5q-279 0 -436.5 164.5t-157.5 424.5z" />
<glyph unicode="H" horiz-adv-x="1458" d="M45 0l256 1454h291l-100 -573h530l100 573h291l-256 -1454h-291l109 618h-531l-108 -618h-291z" />
<glyph unicode="I" horiz-adv-x="641" d="M45 0l256 1454h295l-256 -1454h-295z" />
<glyph unicode="J" horiz-adv-x="1112" d="M-37 410h297q-4 -24 -4 -46q0 -123 154 -122q178 0 208 161l187 1051h295l-187 -1051q-41 -238 -168 -329.5t-380 -91.5q-231 0 -332 131q-77 100 -77 221q0 37 7 76z" />
<glyph unicode="K" horiz-adv-x="1413" d="M45 0l256 1454h289l-109 -618l645 618h381l-657 -614l414 -840h-349l-290 631l-215 -203l-76 -428h-289z" />
<glyph unicode="L" horiz-adv-x="1177" d="M45 0l256 1454h293l-211 -1192h678l-45 -262h-971z" />
<glyph unicode="M" horiz-adv-x="1984" d="M45 0l256 1454h481l144 -1071l522 1071h491l-256 -1454h-290l198 1120l-571 -1120h-309l-179 1122l-200 -1122h-287z" />
<glyph unicode="N" horiz-adv-x="1482" d="M45 0l256 1454h287l391 -930l162 930h295l-256 -1454h-295l-389 920l-164 -920h-287z" />
<glyph unicode="O" horiz-adv-x="1589" d="M76 575q0 80 14 152q57 315 291.5 530.5t546.5 215.5q266 0 425.5 -168t159.5 -428q0 -59 -14 -150q-57 -317 -289.5 -531t-550.5 -214q-268 0 -425.5 166.5t-157.5 426.5zM356 567q0 -324 351 -323q182 0 326.5 140t178.5 343q14 72 15 145q0 338 -346 338 q-176 0 -323.5 -141t-184.5 -342q-17 -88 -17 -160z" />
<glyph unicode="P" horiz-adv-x="1421" d="M45 0l256 1454h666q86 0 161.5 -16.5t149.5 -53t118 -113.5t44 -184q0 -43 -10 -104q-25 -141 -85.5 -237.5t-149.5 -145.5t-182 -68.5t-212 -19.5h-373l-90 -512h-293zM473 774h381q119 0 188.5 45t92.5 164q6 37 6 66q0 82 -50.5 112.5t-160.5 30.5h-381z" />
<glyph unicode="Q" horiz-adv-x="1607" d="M76 582q0 72 12 145q57 317 290.5 531.5t555.5 214.5q264 0 425 -169t161 -430q0 -61 -15 -147q-43 -240 -166 -399q43 -49 181 -52l-52 -294q-231 0 -362 129q-203 -129 -434 -129q-270 0 -433 169t-163 431zM365 588q0 -344 352 -344q139 0 260 82q-35 55 -87 75.5 t-149 20.5l52 295q248 0 387 -137q31 76 43 147q12 68 12 131q0 162 -85 257t-261 95q-186 0 -330.5 -140t-181.5 -343q-12 -73 -12 -139z" />
<glyph unicode="R" horiz-adv-x="1476" d="M45 0l256 1454h666q86 0 161.5 -15.5t149.5 -52t118 -111.5t44 -179q0 -45 -10 -113q-68 -365 -392 -446l297 -537h-362l-285 512h-260l-90 -512h-293zM473 774h381q119 0 188.5 45t92.5 164q6 31 6 66q0 82 -50.5 112.5t-160.5 30.5h-381z" />
<glyph unicode="S" horiz-adv-x="1417" d="M4 276l252 138q29 -68 132.5 -119t285.5 -51q307 0 307 219q0 80 -83 112.5t-241.5 50t-238.5 44.5q-96 33 -160.5 112.5t-64.5 180.5q0 129 58 230t156.5 160.5t214 89.5t240.5 30q307 0 471 -185l39 -51l-260 -139q-14 35 -96 73.5t-199 38.5q-127 0 -225 -45t-98 -151 q0 -94 145 -125q39 -8 126 -20.5t145.5 -22.5t135 -36t122.5 -59.5t79 -96t33 -144.5q0 -172 -95 -295t-238.5 -178t-313.5 -55q-262 0 -419 83.5t-210 210.5z" />
<glyph unicode="T" horiz-adv-x="1226" d="M92 1192l45 262h1196l-45 -262h-450l-211 -1192h-295l211 1192h-451z" />
<glyph unicode="U" horiz-adv-x="1486" d="M102 444q0 106 27 261l135 749h289l-135 -749q-31 -164 -31 -250q0 -109 54.5 -160t193.5 -51q90 0 155.5 23.5t105.5 57t68.5 101.5t42 123t31.5 156l136 749h294l-135 -749q-33 -184 -79 -306.5t-128 -222.5t-215 -147t-323 -47q-256 0 -371 117.5t-115 344.5z" />
<glyph unicode="V" horiz-adv-x="1277" d="M109 1454h305l147 -1071l533 1071h325l-762 -1454h-305z" />
<glyph unicode="W" horiz-adv-x="2207" d="M150 1454h305l90 -1083l508 1083h317l131 -1083l467 1083h332l-692 -1454h-320l-141 1040l-516 -1040h-312z" />
<glyph unicode="X" horiz-adv-x="1333" d="M-135 0l661 766l-352 688h354l217 -440l371 440h352l-602 -688l402 -766h-355l-251 522l-439 -522h-358z" />
<glyph unicode="Y" horiz-adv-x="1193" d="M82 1454h303l199 -633l428 633h336l-654 -905l-96 -549h-295l105 549z" />
<glyph unicode="Z" horiz-adv-x="1210" d="M-57 0l45 262l852 930h-658l45 262h1028l-45 -262l-852 -930h707l-45 -262h-1077z" />
<glyph unicode="[" horiz-adv-x="757" d="M16 -326l338 1911h506l-45 -256h-240l-247 -1399h239l-45 -256h-506z" />
<glyph unicode="\" horiz-adv-x="1105" d="M129 1473h305l537 -1473h-303z" />
<glyph unicode="]" horiz-adv-x="796" d="M-119 -326l45 256h240l248 1399h-240l45 256h506l-338 -1911h-506z" />
<glyph unicode="^" horiz-adv-x="1220" d="M127 971l393 483h391l226 -483h-340l-129 213l-201 -213h-340z" />
<glyph unicode="_" horiz-adv-x="1124" d="M-68 0h1033v-270h-1033v270z" />
<glyph unicode="`" horiz-adv-x="786" d="M205 1473h262l115 -306h-217z" />
<glyph unicode="a" horiz-adv-x="1144" d="M41 266q0 35 2 56q12 94 55 162.5t96.5 104.5t131 56.5t136 24.5t134.5 4q190 0 190 100q0 94 -157 94q-131 0 -260 -100l-168 143q88 94 215 142.5t254 48.5q186 0 283.5 -84t97.5 -215q0 -29 -7 -64l-114 -647q-2 -8 -2 -24l20 -68h-239q-39 14 -39 74q0 16 2 24 q-115 -117 -289 -116q-135 0 -238.5 69.5t-103.5 214.5zM303 297q0 -51 38 -81t108 -30q104 0 180 52.5t90 138.5l22 127q-82 -37 -219 -41q-217 -8 -219 -166z" />
<glyph unicode="b" horiz-adv-x="1368" d="M33 0l256 1454h284l-86 -485q143 133 328 133q193 0 320 -124t127 -319q0 -68 -11 -118q-45 -252 -209.5 -405.5t-425.5 -153.5q-63 0 -143 29.5t-117 68.5l-39 -80h-284zM381 457q0 -109 61.5 -174.5t194.5 -65.5q135 0 223 93t113 231q10 61 10 106q0 94 -56.5 155.5 t-174.5 61.5q-141 0 -239.5 -94t-123.5 -229q-8 -57 -8 -84z" />
<glyph unicode="c" horiz-adv-x="1220" d="M45 444q0 55 8 99q41 229 220.5 394t445.5 165q162 0 264 -60.5t166 -193.5l-252 -111q-51 127 -219 127q-129 0 -222.5 -93t-117.5 -228q-8 -57 -8 -84q0 -109 57 -174.5t176 -65.5q152 0 256 131l221 -123q-115 -129 -236.5 -187t-281.5 -58q-209 0 -343 131.5 t-134 330.5z" />
<glyph unicode="d" horiz-adv-x="1357" d="M45 422q0 68 10 119q45 258 219.5 409.5t413.5 151.5q96 0 177 -39t102 -94l88 485h284l-262 -1454h-284l-7 78q-135 -96 -299 -96q-199 0 -319.5 127t-122.5 313zM319 436q0 -219 230 -219q143 0 241.5 94.5t122.5 229.5q6 33 7 65q0 111 -70 184.5t-184 73.5 q-133 0 -223.5 -95t-112.5 -228q-11 -62 -11 -105z" />
<glyph unicode="e" horiz-adv-x="1255" d="M45 426q0 49 10 115q41 236 207 398.5t438 162.5q209 0 334 -134t125 -327q0 -45 -10 -100l-21 -109h-817q4 -106 55.5 -159.5t178.5 -53.5q178 0 270 119l205 -107q-94 -115 -228.5 -182t-287.5 -67q-217 0 -338 124.5t-121 319.5zM362 670h525q-14 94 -64.5 144 t-163.5 50q-197 1 -297 -194z" />
<glyph unicode="f" horiz-adv-x="737" d="M45 846l41 237h182q43 219 149.5 304.5t289.5 85.5q70 0 143 -19l-41 -237q-57 18 -123 18q-51 0 -86 -41t-47 -111h190l-41 -237h-192l-150 -846h-282l149 846h-182z" />
<glyph unicode="g" horiz-adv-x="1306" d="M-66 -193l189 150q94 -113 360 -113q160 0 226.5 55.5t81.5 143.5l8 51q-111 -102 -283 -102q-201 0 -330 127t-129 323q0 53 9 101q41 231 215 395t434 164q150 0 223 -86l37 67h285l-183 -1020q-37 -215 -196.5 -332.5t-438.5 -117.5q-102 0 -190 19.5t-141.5 44 t-96.5 55t-57.5 47t-22.5 28.5zM330 436q0 -104 51 -161.5t178 -57.5t219 95.5t117 230.5q8 41 8 90q0 231 -229 231q-129 0 -219 -92t-115 -229q-10 -62 -10 -107z" />
<glyph unicode="h" horiz-adv-x="1316" d="M33 0l256 1454h280l-90 -514q27 31 66 62.5t116.5 65.5t157.5 34q365 0 365 -307q0 -57 -13 -125l-116 -670h-285l117 668q10 66 10 80q0 117 -160 116q-123 0 -213 -90t-116 -235l-95 -539h-280z" />
<glyph unicode="i" horiz-adv-x="591" d="M33 0l190 1083h285l-191 -1083h-284zM236 1186l47 268h297l-48 -268h-296z" />
<glyph unicode="j" horiz-adv-x="593" d="M-236 -369l43 242q49 -23 134 -23q41 0 60 33t34 107l194 1093h281l-195 -1093q-14 -78 -31.5 -135.5t-53 -118t-96 -92t-144.5 -31.5q-171 0 -226 18zM242 1186l47 268h293l-47 -268h-293z" />
<glyph unicode="k" horiz-adv-x="1177" d="M33 0l256 1454h280l-135 -764l406 393h372l-446 -405l354 -678h-334l-229 487l-188 -170l-56 -317h-280z" />
<glyph unicode="l" horiz-adv-x="589" d="M33 0l256 1454h284l-256 -1454h-284z" />
<glyph unicode="m" horiz-adv-x="1861" d="M33 0l190 1083h281l16 -79q98 98 260 98q115 0 187.5 -37t115.5 -127q139 164 330 164q152 0 235 -58.5t83 -224.5q0 -72 -15 -151l-117 -668h-284l117 668q10 66 10 82q0 121 -137 120q-174 0 -224 -290l-102 -580h-285l117 668q8 45 8 71q0 131 -155 131 q-199 0 -252 -307l-99 -563h-280z" />
<glyph unicode="n" horiz-adv-x="1314" d="M33 0l190 1083h285l20 -100q143 119 291 119q365 0 365 -307q0 -57 -13 -127l-116 -668h-285l117 668q8 45 8 71q0 131 -154 131q-127 0 -214 -86t-115 -249l-95 -535h-284z" />
<glyph unicode="o" horiz-adv-x="1300" d="M45 440q0 53 8 101q41 236 226.5 398.5t437.5 162.5q209 0 342 -133t133 -332q0 -53 -8 -96q-41 -236 -224.5 -397.5t-439.5 -161.5q-213 0 -344 135t-131 323zM324 442q0 -223 237 -223q135 0 226.5 92t115.5 230q8 41 8 90q0 233 -235 233q-135 0 -226.5 -94 t-115.5 -229q-10 -58 -10 -99z" />
<glyph unicode="p" horiz-adv-x="1372" d="M-37 -369l256 1452h285l16 -73q127 92 291 92q211 0 332 -124t121 -323q0 -47 -11 -112q-45 -258 -220 -409.5t-421 -151.5q-90 0 -166.5 34.5t-113.5 98.5l-84 -484h-285zM377 459q0 -109 61.5 -174.5t194.5 -65.5q141 0 226 93.5t110 230.5q10 57 10 102 q0 96 -54.5 158.5t-176.5 62.5q-143 0 -240.5 -93t-122.5 -230q-8 -39 -8 -84z" />
<glyph unicode="q" horiz-adv-x="1368" d="M45 424q0 68 10 119q45 256 205 407.5t430 151.5q158 0 262 -98l37 79h285l-256 -1452h-285l84 484q-139 -133 -325 -133q-197 0 -322 119.5t-125 322.5zM322 438q0 -219 231 -219q137 0 237.5 94.5t124.5 229.5q6 39 7 78q0 111 -62.5 178t-191.5 67q-135 0 -223.5 -93 t-112.5 -230q-10 -58 -10 -105z" />
<glyph unicode="r" horiz-adv-x="911" d="M33 0l190 1083h279l22 -104q137 123 295 123q53 0 101 -19l-43 -247q-51 31 -138 30q-139 -2 -223 -97t-115 -265l-88 -504h-280z" />
<glyph unicode="s" horiz-adv-x="1099" d="M-18 221l237 101q2 -4 7 -11.5t26.5 -25t51.5 -30.5t83 -24.5t117 -11.5q186 0 186 105q0 45 -64.5 70.5t-181 51t-180.5 54.5q-68 31 -108.5 90t-40.5 137q0 14 4 47q8 45 35.5 96.5t83 105.5t156 90t231.5 36q240 0 389 -162l-187 -143q-8 8 -24.5 19t-78.5 29.5 t-140 18.5q-72 0 -127.5 -24.5t-55.5 -83.5q0 -66 101 -97l92 -26l107 -31q42 -12 99.5 -36.5t92.5 -51.5t59.5 -69t24.5 -93q0 -182 -147.5 -276t-350.5 -94q-90 0 -166.5 13t-127 34.5t-89.5 46t-59.5 50.5t-33.5 47.5t-17 35.5z" />
<glyph unicode="t" horiz-adv-x="843" d="M47 846l43 237h193l65 371h281l-66 -371h260l-43 -237h-260l-86 -486q-6 -37 -6 -51q0 -90 119 -90l127 19l-43 -238q-123 -18 -246 -18q-244 0 -244 245q0 49 15 140l84 479h-193z" />
<glyph unicode="u" horiz-adv-x="1308" d="M61 295q0 53 13 121l119 667h284l-119 -667q-10 -61 -10 -78q0 -125 158 -125q268 0 330 336l94 534h284l-192 -1083h-285l-16 98q-135 -117 -293 -116q-72 0 -133.5 14t-115.5 48t-86 98.5t-32 152.5z" />
<glyph unicode="v" horiz-adv-x="1177" d="M47 1083h281l178 -774l434 774h307l-635 -1083h-311z" />
<glyph unicode="w" horiz-adv-x="1748" d="M102 1083h285l53 -739l322 739h319l68 -739l315 739h305l-512 -1083h-321l-72 733l-329 -733h-310z" />
<glyph unicode="x" horiz-adv-x="1073" d="M-123 0l477 551l-272 532h328l137 -307l244 307h327l-459 -540l273 -543h-326l-141 311l-252 -311h-336z" />
<glyph unicode="y" horiz-adv-x="1202" d="M-25 -387l41 237h146q37 0 71.5 30t42.5 79q4 16 5 31q0 10 -5 35l-221 1058h291l150 -804l450 804h301l-663 -1169q-88 -158 -173 -229.5t-212 -71.5h-224z" />
<glyph unicode="z" horiz-adv-x="1032" d="M-41 0l41 238l606 608h-467l41 237h821l-40 -237l-607 -608h523l-41 -238h-877z" />
<glyph unicode="{" horiz-adv-x="804" d="M80 516l41 227q246 0 282 222l48 268q31 166 116.5 259t259.5 93h131l-40 -231h-56q-80 0 -108.5 -38t-48.5 -159l-37 -205q-47 -270 -306 -323q201 -57 201 -240q0 -25 -8 -78q-55 -313 -55 -334q0 -41 23.5 -56t82.5 -15h56l-41 -232h-132q-262 0 -262 240q0 47 11 113 l47 266q6 35 6 65q0 76 -42 117t-169 41z" />
<glyph unicode="|" horiz-adv-x="602" d="M170 -369v1842h262v-1842h-262z" />
<glyph unicode="}" horiz-adv-x="804" d="M-164 -326l41 232h55q78 0 107 38t51 158l37 209q43 250 303 318q-96 20 -146.5 85.5t-50.5 164.5q0 35 7 73l36 205q16 106 17 121q0 43 -22.5 59.5t-82.5 16.5h-55l41 231h131q260 0 260 -242q0 -61 -10 -110l-47 -268q-6 -31 -6 -62q0 -156 211 -160l-41 -227 q-143 -2 -203.5 -62.5t-79.5 -160.5l-47 -266q-61 -352 -375 -353h-131z" />
<glyph unicode="~" horiz-adv-x="1486" d="M104 573l18 30q11 19 49 66.5t80 84.5t107.5 66.5t135.5 29.5q78 0 150.5 -34t117.5 -72.5t99 -72.5t100 -34q47 0 97 40t77 81l28 39l189 -158l-18 -30q-11 -19 -49 -66t-80 -83t-107.5 -65.5t-132.5 -29.5q-82 0 -157 32.5t-121 73.5t-99 74t-94 33q-92 0 -191 -146 l-8 -12z" />
<glyph unicode="&#xa1;" horiz-adv-x="733" d="M31 -369l63 361l154 643h217l-78 -643l-63 -361h-293zM233 803l50 282h301l-49 -282h-302z" />
<glyph unicode="&#xa2;" d="M74 629q0 33 8 98q29 213 179.5 362.5t367.5 186.5l35 197h210l-32 -193q240 -33 336 -248l-252 -110q-39 96 -129 114l-109 -618q96 31 160 117l221 -123q-188 -213 -424 -242l-33 -188h-211l33 196q-162 31 -261 159t-99 292zM358 643q0 -168 121 -217l107 598 q-180 -70 -219 -297q-9 -57 -9 -84z" />
<glyph unicode="&#xa3;" d="M-49 0l47 270q88 33 131 83t57 128l29 166h-125l47 262h123q18 111 63.5 208t116 178t177 129.5t233.5 48.5q229 0 348 -195l-240 -168q-18 39 -59 69.5t-96 30.5q-113 0 -166 -79.5t-84 -221.5h408l-48 -262h-405l-31 -178q-16 -90 -36.5 -133t-78.5 -74h277 q78 0 133 26.5t115 92.5l166 -176q-104 -111 -215 -160q-96 -45 -244 -45h-643z" />
<glyph unicode="&#xa4;" horiz-adv-x="1155" d="M25 918l184 184l123 -141q119 70 252 69q131 0 250 -69l127 141l184 -184l-141 -125q70 -119 69 -250q0 -133 -69 -252l141 -123l-184 -186l-125 141q-115 -70 -252 -70q-139 0 -250 70l-125 -141l-184 186l139 123q-68 117 -68 252t70 250zM356 543q0 -94 66.5 -161 t161.5 -67q96 0 161.5 65.5t65.5 162.5q0 94 -66.5 160.5t-161 66.5t-161 -66.5t-66.5 -160.5z" />
<glyph unicode="&#xa5;" d="M39 203l41 225h328l16 102h-328l41 226h217l-219 698h336l150 -655l378 655h336l-465 -698h217l-40 -226h-328l-17 -102h328l-41 -225h-327l-35 -203h-295l35 203h-328z" />
<glyph unicode="&#xa6;" horiz-adv-x="600" d="M172 0v604h256v-604h-256zM172 868v605h256v-605h-256z" />
<glyph unicode="&#xa7;" d="M51 102l207 160q70 -84 217 -84q90 0 148.5 29t58.5 88q0 25 -15.5 43t-49 31.5t-63.5 20.5l-82 18.5t-83 19.5q-98 27 -163.5 90.5t-65.5 157.5q0 41 8 80q20 111 127 217q-55 55 -55 174q0 102 51 186t133 133.5t174 75t182 25.5q119 0 220.5 -47t160.5 -131l-198 -162 q-59 78 -215 78q-78 0 -143.5 -28t-65.5 -89q0 -41 54 -62.5t165 -40.5q305 -55 305 -278q0 -41 -8 -80q-18 -102 -129 -221q55 -55 55 -152q0 -33 -6 -69q-66 -369 -545 -369q-119 0 -223.5 51t-155.5 135zM428 743q0 -23 13.5 -39t43 -27t55 -18.5t75 -16.5t75.5 -15 q104 41 105 112q0 14 -6.5 26.5t-21.5 22t-30.5 16.5t-42 14t-46 11.5l-54.5 12.5t-55 12q-45 -14 -78 -44t-33 -67z" />
<glyph unicode="&#xa8;" horiz-adv-x="1064" d="M205 1227l43 246h239l-43 -246h-239zM578 1227l43 246h239l-43 -246h-239z" />
<glyph unicode="&#xa9;" horiz-adv-x="1695" d="M102 727q0 309 218.5 527.5t527.5 218.5t527 -218.5t218 -527.5t-218 -527t-527 -218t-527.5 218t-218.5 527zM317 727q0 -219 156 -378t375 -159t374.5 159t155.5 378t-155.5 378t-374.5 159t-375 -159t-156 -378zM424 729q0 170 112.5 293t311.5 123q125 0 208 -46 t144 -145l-184 -86q-59 100 -168 101q-98 0 -154.5 -70t-56.5 -170q0 -102 55.5 -171t155.5 -69q113 0 172 97l180 -90q-129 -184 -352 -185q-184 0 -304 122t-120 296z" />
<glyph unicode="&#xaa;" horiz-adv-x="917" d="M154 907q0 72 26.5 123t61 77t90 40t94.5 17t90 3q125 0 125 56q0 31 -27.5 57.5t-99.5 26.5q-96 0 -180 -74l-127 104q49 66 133 101t174 35q152 0 234.5 -74t82.5 -185v-458q0 -16 6.5 -32.5t10.5 -25.5l6 -8h-174q-37 12 -39 70q-66 -82 -190 -82q-297 0 -297 229z M354 918q0 -43 31 -69t86 -26q61 0 115.5 39t54.5 96v89q-55 -29 -149 -33q-138 -4 -138 -96z" />
<glyph unicode="&#xab;" horiz-adv-x="1234" d="M70 543l16 96l453 444l161 -159l-335 -332l219 -334l-217 -160zM541 543l16 96l453 444l161 -159l-335 -332l219 -334l-217 -160z" />
<glyph unicode="&#xac;" horiz-adv-x="1228" d="M92 459v262h1018v-533h-295v271h-723z" />
<glyph unicode="&#xad;" horiz-adv-x="954" d="M100 483l41 236h701l-41 -236h-701z" />
<glyph unicode="&#xae;" horiz-adv-x="1695" d="M102 727q0 309 218.5 527.5t527.5 218.5t527 -218.5t218 -527.5t-218 -527t-527 -218t-527.5 218t-218.5 527zM317 727q0 -219 156 -378t375 -159t374.5 159t155.5 378t-155.5 378t-374.5 159t-375 -159t-156 -378zM547 322v811h309q315 0 315 -263q0 -104 -51 -167.5 t-114 -81.5l161 -299h-204l-154 284h-74v-284h-188zM735 754h117q66 0 98.5 25.5t32.5 91t-32.5 91t-98.5 25.5h-117v-233z" />
<glyph unicode="&#xb0;" horiz-adv-x="835" d="M164 1182q0 127 93 219t224 92q129 0 222.5 -92t93.5 -219q0 -129 -93.5 -219.5t-222.5 -90.5q-133 0 -225 90.5t-92 219.5zM395 1182q0 -35 25.5 -59.5t60.5 -24.5t60.5 24.5t25.5 59.5t-25.5 59.5t-60.5 24.5t-60.5 -24.5t-25.5 -59.5z" />
<glyph unicode="&#xb1;" horiz-adv-x="1228" d="M133 0v213h965v-213h-965zM133 608v215h361v322h247v-322h357v-215h-357v-321h-247v321h-361z" />
<glyph unicode="&#xb2;" horiz-adv-x="819" d="M51 553l23 133q16 90 71.5 156.5t125 105.5t138 72t121 76t62.5 98q2 10 2 27q0 90 -119 90q-41 0 -75.5 -12.5t-54 -27t-54.5 -44.5l-98 123q145 125 311 125q127 0 200.5 -62.5t73.5 -167.5q0 -14 -4 -51q-16 -94 -96 -169t-166 -115t-162 -91t-84 -102h434l-28 -164 h-621z" />
<glyph unicode="&#xb3;" horiz-adv-x="819" d="M49 682l139 109q51 -96 179 -97q154 0 176 135q4 25 4 33q0 57 -44 75.5t-130 18.5l28 156q47 0 77 3t66 14.5t53 39t17 70.5q0 84 -137 84q-113 0 -215 -100l-80 108q61 68 148.5 105t173.5 37q121 0 199.5 -52.5t78.5 -154.5q0 -172 -159 -228q102 -33 102 -159 q0 -16 -4 -50q-49 -289 -383 -288q-90 0 -172 36.5t-117 104.5z" />
<glyph unicode="&#xb4;" horiz-adv-x="892" d="M205 1167l221 306h262l-266 -306h-217z" />
<glyph unicode="&#xb5;" horiz-adv-x="1318" d="M117 -369v1452h284v-667q0 -203 183 -203q127 0 198.5 86t71.5 250v534h285v-1083h-285l-43 94q-113 -113 -264 -112q-78 0 -146 12v-363h-284z" />
<glyph unicode="&#x3bc;" horiz-adv-x="1318" d="M117 -369v1452h284v-667q0 -203 183 -203q127 0 198.5 86t71.5 250v534h285v-1083h-285l-43 94q-113 -113 -264 -112q-78 0 -146 12v-363h-284z" />
<glyph unicode="&#xb6;" horiz-adv-x="1437" d="M143 938q0 37 7 78q33 182 182 310t332 128h778l-43 -240h-180l-258 -1464h-205l258 1464h-187l-258 -1464h-207l146 832q-160 0 -262.5 101t-102.5 255z" />
<glyph unicode="&#xb7;" horiz-adv-x="645" d="M106 516l50 289h307l-49 -289h-308z" />
<glyph unicode="&#xb8;" horiz-adv-x="911" d="M205 -233l96 333l176 -47l-39 -145q31 18 105 18q82 0 123 -47t41 -119q0 -86 -67 -138t-165 -52v139q23 4 39 21.5t16 33.5q0 29 -34 29q-45 0 -82 -24.5t-52 -49.5l-14 -24z" />
<glyph unicode="&#xb9;" horiz-adv-x="819" d="M225 1157l29 162q12 0 27.5 1t54.5 9t69.5 22.5t59.5 46.5t37 75h176l-158 -902h-180l102 586h-217z" />
<glyph unicode="&#xba;" horiz-adv-x="997" d="M143 1073q0 166 115 283t289 117t288.5 -117t114.5 -283q0 -164 -114.5 -279.5t-288.5 -115.5t-289 115.5t-115 279.5zM344 1073q0 -96 53.5 -161.5t149.5 -65.5t148.5 64.5t52.5 162.5q0 96 -53.5 163t-147.5 67q-96 0 -149.5 -67t-53.5 -163z" />
<glyph unicode="&#xbb;" horiz-adv-x="1241" d="M14 258l338 334l-217 332l219 159l293 -444l-16 -96l-453 -445zM485 258l338 334l-217 332l219 159l293 -444l-16 -96l-453 -445z" />
<glyph unicode="&#xbc;" horiz-adv-x="1843" d="M141 0l1207 1454h235l-1208 -1454h-234zM201 1157l28 162q12 0 27.5 1t54.5 9t70 22.5t59.5 46.5t36.5 75h176l-159 -902h-181l105 586h-217zM809 158l29 161l438 580h201l-439 -580h193l43 246h178l-43 -246h152l-29 -161h-152l-26 -158h-178l26 158h-393z" />
<glyph unicode="&#xbd;" horiz-adv-x="1843" d="M121 0l1206 1454h236l-1209 -1454h-233zM180 1157l29 162q12 0 27.5 1t54.5 9t69.5 22.5t59.5 46.5t37 75h176l-160 -902h-180l104 586h-217zM997 0l23 133q16 90 71.5 156.5t125 105.5t138 72t121 76t62.5 98q2 10 2 27q0 90 -119 90q-41 0 -75.5 -12.5t-54 -26.5 t-54.5 -45l-98 123q145 125 311 125q127 0 200.5 -62.5t73.5 -167.5q0 -14 -4 -51q-16 -94 -96 -169t-166 -115t-161.5 -91t-84.5 -102h435l-29 -164h-621z" />
<glyph unicode="&#xbe;" horiz-adv-x="1843" d="M72 682l139 109q51 -96 178 -97q154 0 176 135q4 25 4 33q0 57 -44 75.5t-130 18.5l29 156q47 0 76.5 3t65.5 14.5t53.5 39t17.5 70.5q0 84 -137 84q-113 0 -215 -100l-80 108q127 141 321 142q121 0 200 -52.5t79 -154.5q0 -172 -160 -228q102 -33 103 -159 q0 -16 -5 -50q-49 -289 -383 -288q-90 0 -171.5 36.5t-116.5 104.5zM233 0l1207 1454h235l-1208 -1454h-234zM870 158l29 161l438 580h201l-438 -580h192l43 246h178l-43 -246h152l-29 -161h-151l-27 -158h-178l27 158h-394z" />
<glyph unicode="&#xbf;" horiz-adv-x="1110" d="M-31 -63q0 31 6 63q16 92 68.5 161.5t117.5 117.5l128 96q63 49 115.5 126t70.5 177h281q-20 -137 -79 -236.5t-127.5 -151.5t-135 -94t-110.5 -94.5t-44 -124.5q0 -53 46 -84.5t130 -31.5q180 0 350 194l170 -188q-102 -113 -258.5 -183.5t-306.5 -70.5 q-162 0 -292 89.5t-130 234.5zM487 803l50 282h301l-50 -282h-301z" />
<glyph unicode="&#xc0;" horiz-adv-x="1431" d="M-133 0l827 1454h310l315 -1454h-309l-66 319h-575l-176 -319h-326zM516 582h375l-100 491zM598 1923h262l115 -305h-217z" />
<glyph unicode="&#xc1;" horiz-adv-x="1431" d="M-133 0l827 1454h310l315 -1454h-309l-66 319h-575l-176 -319h-326zM516 582h375l-100 491zM768 1618l221 305h262l-266 -305h-217z" />
<glyph unicode="&#xc2;" horiz-adv-x="1431" d="M-133 0l827 1454h310l315 -1454h-309l-66 319h-575l-176 -319h-326zM516 582h375l-100 491zM539 1618l245 305h258l142 -305h-234l-69 121l-109 -121h-233z" />
<glyph unicode="&#xc3;" horiz-adv-x="1431" d="M-133 0l827 1454h310l315 -1454h-309l-66 319h-575l-176 -319h-326zM463 1757l33 42q20 26 82.5 68t126.5 42q70 0 151.5 -57.5t116.5 -57.5q57 0 131 88l117 -119l-33 -42q-20 -26 -85 -67.5t-126 -41.5q-68 0 -151 57t-115 57q-57 0 -131 -88zM516 582h375l-100 491z " />
<glyph unicode="&#xc4;" horiz-adv-x="1431" d="M-133 0l827 1454h310l315 -1454h-309l-66 319h-575l-176 -319h-326zM516 582h375l-100 491zM559 1618l43 246h240l-43 -246h-240zM932 1618l43 246h239l-43 -246h-239z" />
<glyph unicode="&#xc5;" horiz-adv-x="1431" d="M-133 0l772 1356q-43 59 -43 133q0 16 4 45q20 113 105.5 189.5t207.5 76.5q94 0 160 -65.5t66 -157.5q0 -14 -4 -43q-16 -92 -111 -178l295 -1356h-309l-66 319h-575l-176 -319h-326zM516 582h375l-100 491zM784 1516q0 -61 60 -62h8q39 0 68.5 27.5t29.5 68.5 q0 27 -18.5 45.5t-51 18.5t-60 -23.5t-34.5 -56.5q-2 -6 -2 -18z" />
<glyph unicode="&#xc6;" horiz-adv-x="1996" d="M-143 0l952 1454h1198l-45 -262h-713l-55 -303h575l-45 -262h-575l-66 -365h723l-45 -262h-1018l56 319h-408l-203 -319h-331zM561 582h285l108 610z" />
<glyph unicode="&#xc7;" horiz-adv-x="1425" d="M76 582q0 72 12 145q57 317 281.5 531.5t531.5 214.5q182 0 314.5 -87.5t197.5 -238.5l-239 -127q-76 190 -320 190q-176 0 -309 -139t-170 -344q-14 -74 -15 -149q0 -334 324 -334q215 0 363 205l217 -142q-119 -152 -282 -238.5t-345 -86.5q-39 0 -57 2l-35 -76 q33 18 108 18q70 0 104 -34.5t34 -90.5q0 -12 -5 -41q-14 -86 -89.5 -138t-174.5 -52l25 139q20 4 42.5 21.5t22.5 38.5q0 25 -30 24q-94 0 -164 -94l-2 -4l-129 72l121 258q-158 68 -245 215t-87 342z" />
<glyph unicode="&#xc8;" horiz-adv-x="1294" d="M45 0l256 1454h1004l-45 -262h-713l-55 -303h575l-45 -262h-576l-65 -365h723l-45 -262h-1014zM631 1923h262l115 -305h-217z" />
<glyph unicode="&#xc9;" horiz-adv-x="1294" d="M45 0l256 1454h1004l-45 -262h-713l-55 -303h575l-45 -262h-576l-65 -365h723l-45 -262h-1014zM682 1618l221 305h262l-266 -305h-217z" />
<glyph unicode="&#xca;" horiz-adv-x="1294" d="M45 0l256 1454h1004l-45 -262h-713l-55 -303h575l-45 -262h-576l-65 -365h723l-45 -262h-1014zM520 1618l246 305h258l141 -305h-233l-70 121l-108 -121h-234z" />
<glyph unicode="&#xcb;" horiz-adv-x="1294" d="M45 0l256 1454h1004l-45 -262h-713l-55 -303h575l-45 -262h-576l-65 -365h723l-45 -262h-1014zM567 1618l43 246h240l-43 -246h-240zM940 1618l43 246h240l-43 -246h-240z" />
<glyph unicode="&#xcc;" horiz-adv-x="636" d="M45 0l256 1454h295l-256 -1454h-295zM240 1923h262l114 -305h-217z" />
<glyph unicode="&#xcd;" horiz-adv-x="628" d="M45 0l256 1454h295l-256 -1454h-295zM326 1618l221 305h262l-266 -305h-217z" />
<glyph unicode="&#xce;" horiz-adv-x="630" d="M45 0l256 1454h295l-256 -1454h-295zM139 1618l246 305h258l141 -305h-233l-70 121l-108 -121h-234z" />
<glyph unicode="&#xcf;" horiz-adv-x="643" d="M45 0l256 1454h295l-256 -1454h-295zM160 1618l43 246h239l-43 -246h-239zM532 1618l43 246h240l-43 -246h-240z" />
<glyph unicode="&#xd0;" horiz-adv-x="1519" d="M25 629l34 196h187l110 629h502q285 0 435.5 -155.5t150.5 -415.5q0 -393 -220 -638t-622 -245h-502l111 629h-186zM440 262h197q262 0 389 170t127 453q0 152 -78 229.5t-272 77.5h-197l-65 -367h219l-35 -196h-219z" />
<glyph unicode="&#xd1;" horiz-adv-x="1482" d="M45 0l256 1454h287l391 -930l162 930h295l-256 -1454h-295l-389 920l-164 -920h-287zM512 1757l33 42q20 26 82.5 68t126.5 42q70 0 151.5 -57.5t116.5 -57.5q57 0 131 88l117 -119l-33 -42q-20 -26 -85 -67.5t-126 -41.5q-68 0 -150.5 57t-115.5 57q-57 0 -131 -88z" />
<glyph unicode="&#xd2;" horiz-adv-x="1589" d="M76 575q0 80 14 152q57 315 291.5 530.5t546.5 215.5q266 0 425.5 -168t159.5 -428q0 -59 -14 -150q-57 -317 -289.5 -531t-550.5 -214q-268 0 -425.5 166.5t-157.5 426.5zM356 567q0 -324 351 -323q182 0 326.5 140t178.5 343q14 72 15 145q0 338 -346 338 q-176 0 -323.5 -141t-184.5 -342q-17 -88 -17 -160zM743 1923h263l114 -305h-217z" />
<glyph unicode="&#xd3;" horiz-adv-x="1589" d="M76 575q0 80 14 152q57 315 291.5 530.5t546.5 215.5q266 0 425.5 -168t159.5 -428q0 -59 -14 -150q-57 -317 -289.5 -531t-550.5 -214q-268 0 -425.5 166.5t-157.5 426.5zM356 567q0 -324 351 -323q182 0 326.5 140t178.5 343q14 72 15 145q0 338 -346 338 q-176 0 -323.5 -141t-184.5 -342q-17 -88 -17 -160zM772 1618l221 305h262l-266 -305h-217z" />
<glyph unicode="&#xd4;" horiz-adv-x="1589" d="M76 575q0 80 14 152q57 315 291.5 530.5t546.5 215.5q266 0 425.5 -168t159.5 -428q0 -59 -14 -150q-57 -317 -289.5 -531t-550.5 -214q-268 0 -425.5 166.5t-157.5 426.5zM356 567q0 -324 351 -323q182 0 326.5 140t178.5 343q14 72 15 145q0 338 -346 338 q-176 0 -323.5 -141t-184.5 -342q-17 -88 -17 -160zM623 1618l245 305h258l142 -305h-234l-69 121l-109 -121h-233z" />
<glyph unicode="&#xd5;" horiz-adv-x="1589" d="M76 575q0 80 14 152q57 315 291.5 530.5t546.5 215.5q266 0 425.5 -168t159.5 -428q0 -59 -14 -150q-57 -317 -289.5 -531t-550.5 -214q-268 0 -425.5 166.5t-157.5 426.5zM356 567q0 -324 351 -323q182 0 326.5 140t178.5 343q14 72 15 145q0 338 -346 338 q-176 0 -323.5 -141t-184.5 -342q-17 -88 -17 -160zM608 1757l33 42q20 26 82.5 68t126.5 42q70 0 151.5 -57.5t116.5 -57.5q57 0 131 88l117 -119l-33 -42q-20 -26 -84.5 -67.5t-126.5 -41.5q-68 0 -150.5 57t-115.5 57q-57 0 -131 -88z" />
<glyph unicode="&#xd6;" horiz-adv-x="1589" d="M76 575q0 80 14 152q57 315 291.5 530.5t546.5 215.5q266 0 425.5 -168t159.5 -428q0 -59 -14 -150q-57 -317 -289.5 -531t-550.5 -214q-268 0 -425.5 166.5t-157.5 426.5zM356 567q0 -324 351 -323q182 0 326.5 140t178.5 343q14 72 15 145q0 338 -346 338 q-176 0 -323.5 -141t-184.5 -342q-17 -88 -17 -160zM657 1618l43 246h240l-43 -246h-240zM1030 1618l43 246h240l-43 -246h-240z" />
<glyph unicode="&#xd7;" horiz-adv-x="1202" d="M123 250l334 334l-334 334l147 141l330 -332l332 332l147 -141l-334 -334l334 -334l-147 -141l-332 329l-330 -329z" />
<glyph unicode="&#xd8;" horiz-adv-x="1595" d="M-57 -4l225 244q-86 147 -86 335q0 61 14 152q57 315 291 530.5t543 215.5q176 0 309 -76l199 217l188 -158l-207 -223q100 -145 101 -356q0 -59 -15 -150q-57 -317 -289.5 -531t-549.5 -214q-186 0 -328 84l-211 -230zM362 565q0 -66 11 -104l671 725q-61 25 -157 24 q-176 0 -323.5 -141t-184.5 -342q-17 -88 -17 -162zM530 274q63 -31 183 -30q182 0 326.5 140t179.5 343q14 90 14 145q0 78 -19 140z" />
<glyph unicode="&#xd9;" horiz-adv-x="1486" d="M102 444q0 106 27 261l135 749h289l-135 -749q-31 -164 -31 -250q0 -109 54.5 -160t193.5 -51q90 0 155.5 23.5t105.5 57t68.5 101.5t42 123t31.5 156l136 749h294l-135 -749q-33 -184 -79 -306.5t-128 -222.5t-215 -147t-323 -47q-256 0 -371 117.5t-115 344.5z M702 1923h263l114 -305h-217z" />
<glyph unicode="&#xda;" horiz-adv-x="1486" d="M102 444q0 106 27 261l135 749h289l-135 -749q-31 -164 -31 -250q0 -109 54.5 -160t193.5 -51q90 0 155.5 23.5t105.5 57t68.5 101.5t42 123t31.5 156l136 749h294l-135 -749q-33 -184 -79 -306.5t-128 -222.5t-215 -147t-323 -47q-256 0 -371 117.5t-115 344.5z M690 1618l221 305h263l-267 -305h-217z" />
<glyph unicode="&#xdb;" horiz-adv-x="1486" d="M102 444q0 106 27 261l135 749h289l-135 -749q-31 -164 -31 -250q0 -109 54.5 -160t193.5 -51q90 0 155.5 23.5t105.5 57t68.5 101.5t42 123t31.5 156l136 749h294l-135 -749q-33 -184 -79 -306.5t-128 -222.5t-215 -147t-323 -47q-256 0 -371 117.5t-115 344.5z M559 1618l246 305h258l141 -305h-233l-70 121l-108 -121h-234z" />
<glyph unicode="&#xdc;" horiz-adv-x="1486" d="M102 444q0 106 27 261l135 749h289l-135 -749q-31 -164 -31 -250q0 -109 54.5 -160t193.5 -51q90 0 155.5 23.5t105.5 57t68.5 101.5t42 123t31.5 156l136 749h294l-135 -749q-33 -184 -79 -306.5t-128 -222.5t-215 -147t-323 -47q-256 0 -371 117.5t-115 344.5z M582 1618l43 246h239l-43 -246h-239zM954 1618l43 246h240l-43 -246h-240z" />
<glyph unicode="&#xdd;" horiz-adv-x="1193" d="M82 1454h303l199 -633l428 633h336l-654 -905l-96 -549h-295l105 549zM604 1618l221 305h262l-266 -305h-217z" />
<glyph unicode="&#xde;" horiz-adv-x="1312" d="M41 0l256 1454h295l-45 -256h284q86 0 161 -16.5t148.5 -53t118 -113.5t44.5 -184q0 -43 -11 -104q-25 -141 -85 -237.5t-149 -145.5t-182.5 -68.5t-211.5 -19.5h-283l-45 -256h-295zM426 518h291q119 0 188.5 45t91.5 164q6 37 7 66q0 82 -50.5 112.5t-160.5 30.5h-293z " />
<glyph unicode="&#xdf;" horiz-adv-x="1216" d="M39 0l180 1012q37 215 174 338t357 123q174 0 276 -108t102 -259q0 -37 -6 -74q-12 -80 -69.5 -159.5t-143.5 -122.5q78 -29 131.5 -107t53.5 -180q0 -209 -146.5 -345t-355.5 -136h-166l45 262h111q215 0 215 215q0 125 -154 125h-80l45 262q100 0 150.5 43t66.5 137 q6 37 6 66q0 119 -126 118q-156 0 -189 -184l-182 -1026h-295z" />
<glyph unicode="&#xe0;" horiz-adv-x="1144" d="M41 266q0 35 2 56q12 94 55 162.5t96.5 104.5t131 56.5t136 24.5t134.5 4q190 0 190 100q0 94 -157 94q-131 0 -260 -100l-168 143q88 94 215 142.5t254 48.5q186 0 283.5 -84t97.5 -215q0 -29 -7 -64l-114 -647q-2 -8 -2 -24l20 -68h-239q-39 14 -39 74q0 16 2 24 q-115 -117 -289 -116q-135 0 -238.5 69.5t-103.5 214.5zM303 297q0 -51 38 -81t108 -30q104 0 180 52.5t90 138.5l22 127q-82 -37 -219 -41q-217 -8 -219 -166zM442 1552h263l114 -305h-217z" />
<glyph unicode="&#xe1;" horiz-adv-x="1144" d="M41 266q0 35 2 56q12 94 55 162.5t96.5 104.5t131 56.5t136 24.5t134.5 4q190 0 190 100q0 94 -157 94q-131 0 -260 -100l-168 143q88 94 215 142.5t254 48.5q186 0 283.5 -84t97.5 -215q0 -29 -7 -64l-114 -647q-2 -8 -2 -24l20 -68h-239q-39 14 -39 74q0 16 2 24 q-115 -117 -289 -116q-135 0 -238.5 69.5t-103.5 214.5zM303 297q0 -51 38 -81t108 -30q104 0 180 52.5t90 138.5l22 127q-82 -37 -219 -41q-217 -8 -219 -166zM571 1247l222 305h262l-267 -305h-217z" />
<glyph unicode="&#xe2;" horiz-adv-x="1144" d="M41 266q0 35 2 56q12 94 55 162.5t96.5 104.5t131 56.5t136 24.5t134.5 4q190 0 190 100q0 94 -157 94q-131 0 -260 -100l-168 143q88 94 215 142.5t254 48.5q186 0 283.5 -84t97.5 -215q0 -29 -7 -64l-114 -647q-2 -8 -2 -24l20 -68h-239q-39 14 -39 74q0 16 2 24 q-115 -117 -289 -116q-135 0 -238.5 69.5t-103.5 214.5zM303 297q0 -51 38 -81t108 -30q104 0 180 52.5t90 138.5l22 127q-82 -37 -219 -41q-217 -8 -219 -166zM393 1247l246 305h258l141 -305h-233l-70 121l-108 -121h-234z" />
<glyph unicode="&#xe3;" horiz-adv-x="1144" d="M41 266q0 35 2 56q12 94 55 162.5t96.5 104.5t131 56.5t136 24.5t134.5 4q190 0 190 100q0 94 -157 94q-131 0 -260 -100l-168 143q88 94 215 142.5t254 48.5q186 0 283.5 -84t97.5 -215q0 -29 -7 -64l-114 -647q-2 -8 -2 -24l20 -68h-239q-39 14 -39 74q0 16 2 24 q-115 -117 -289 -116q-135 0 -238.5 69.5t-103.5 214.5zM303 297q0 -51 38 -81t108 -30q104 0 180 52.5t90 138.5l22 127q-82 -37 -219 -41q-217 -8 -219 -166zM328 1386l32 42q20 26 83 68t126 42q70 0 152 -57.5t117 -57.5q57 0 131 88l116 -118l-32 -42q-20 -26 -85 -68 t-126 -42q-68 0 -151 57.5t-116 57.5q-57 0 -131 -88z" />
<glyph unicode="&#xe4;" horiz-adv-x="1144" d="M41 266q0 35 2 56q12 94 55 162.5t96.5 104.5t131 56.5t136 24.5t134.5 4q190 0 190 100q0 94 -157 94q-131 0 -260 -100l-168 143q88 94 215 142.5t254 48.5q186 0 283.5 -84t97.5 -215q0 -29 -7 -64l-114 -647q-2 -8 -2 -24l20 -68h-239q-39 14 -39 74q0 16 2 24 q-115 -117 -289 -116q-135 0 -238.5 69.5t-103.5 214.5zM303 297q0 -51 38 -81t108 -30q104 0 180 52.5t90 138.5l22 127q-82 -37 -219 -41q-217 -8 -219 -166zM406 1247l43 246h239l-43 -246h-239zM778 1247l43 246h240l-43 -246h-240z" />
<glyph unicode="&#xe5;" horiz-adv-x="1144" d="M41 266q0 35 2 56q12 94 55 162.5t96.5 104.5t131 56.5t136 24.5t134.5 4q190 0 190 100q0 94 -157 94q-131 0 -260 -100l-168 143q88 94 215 142.5t254 48.5q186 0 283.5 -84t97.5 -215q0 -29 -7 -64l-114 -647q-2 -8 -2 -24l20 -68h-239q-39 14 -39 74q0 16 2 24 q-115 -117 -289 -116q-135 0 -238.5 69.5t-103.5 214.5zM303 297q0 -51 38 -81t108 -30q104 0 180 52.5t90 138.5l22 127q-82 -37 -219 -41q-217 -8 -219 -166zM461 1462.5q0 108.5 79 187.5t187.5 79t188 -79t79.5 -187.5t-79.5 -187.5t-188 -79t-187.5 79t-79 187.5z M647 1462.5q0 -32.5 22.5 -56.5t57.5 -24t58.5 24t23.5 56.5t-24.5 56t-57.5 23.5t-56.5 -23.5t-23.5 -56z" />
<glyph unicode="&#xe6;" horiz-adv-x="1951" d="M41 266q0 35 2 56q12 94 55 162.5t96.5 104.5t131 56.5t136 24.5t134.5 4q190 0 190 100q0 94 -157 94q-131 0 -260 -100l-168 143q88 94 215 142.5t254 48.5q225 0 329 -129q166 129 398 129q209 0 333.5 -134t124.5 -327q0 -53 -10 -100l-20 -109h-817 q4 -106 55 -159.5t178 -53.5q178 0 270 119l205 -107q-94 -115 -228 -182t-288 -67q-252 0 -379 174q-80 -80 -198.5 -127t-239.5 -47q-135 0 -238.5 69.5t-103.5 214.5zM303 297q0 -51 37 -81t109 -30q98 0 175.5 50.5t94.5 140.5l22 127q-82 -35 -219 -41 q-219 -8 -219 -166zM1059 670h524q-14 94 -64.5 144t-162.5 50q-197 1 -297 -194z" />
<glyph unicode="&#xe7;" horiz-adv-x="1220" d="M45 444q0 49 8 99q41 229 220.5 394t445.5 165q162 0 264 -60.5t166 -193.5l-252 -111q-51 127 -219 127q-129 0 -222.5 -93t-117.5 -228q-8 -57 -8 -84q0 -109 57 -174.5t176 -65.5q152 0 256 131l221 -123q-115 -129 -236.5 -187t-283.5 -58q-29 0 -43 2l-33 -76 q35 18 107 18q70 0 104.5 -35.5t34.5 -91.5q0 -10 -4 -39q-14 -86 -90 -138t-174 -52l24 139q20 4 42 21.5t22 40t-29 22.5q-94 0 -164 -94l-2 -4l-129 72l121 260q-125 59 -193.5 167.5t-68.5 249.5z" />
<glyph unicode="&#xe8;" horiz-adv-x="1255" d="M45 426q0 49 10 115q41 236 207 398.5t438 162.5q209 0 334 -134t125 -327q0 -45 -10 -100l-21 -109h-817q4 -106 55.5 -159.5t178.5 -53.5q178 0 270 119l205 -107q-94 -115 -228.5 -182t-287.5 -67q-217 0 -338 124.5t-121 319.5zM362 670h525q-14 94 -64.5 144 t-163.5 50q-197 1 -297 -194zM457 1552h262l115 -305h-218z" />
<glyph unicode="&#xe9;" horiz-adv-x="1255" d="M45 426q0 49 10 115q41 236 207 398.5t438 162.5q209 0 334 -134t125 -327q0 -45 -10 -100l-21 -109h-817q4 -106 55.5 -159.5t178.5 -53.5q178 0 270 119l205 -107q-94 -115 -228.5 -182t-287.5 -67q-217 0 -338 124.5t-121 319.5zM362 670h525q-14 94 -64.5 144 t-163.5 50q-197 1 -297 -194zM616 1247l222 305h262l-266 -305h-218z" />
<glyph unicode="&#xea;" horiz-adv-x="1255" d="M45 426q0 49 10 115q41 236 207 398.5t438 162.5q209 0 334 -134t125 -327q0 -45 -10 -100l-21 -109h-817q4 -106 55.5 -159.5t178.5 -53.5q178 0 270 119l205 -107q-94 -115 -228.5 -182t-287.5 -67q-217 0 -338 124.5t-121 319.5zM362 670h525q-14 94 -64.5 144 t-163.5 50q-197 1 -297 -194zM401 1247l246 305h258l142 -305h-234l-70 121l-108 -121h-234z" />
<glyph unicode="&#xeb;" horiz-adv-x="1255" d="M45 426q0 49 10 115q41 236 207 398.5t438 162.5q209 0 334 -134t125 -327q0 -45 -10 -100l-21 -109h-817q4 -106 55.5 -159.5t178.5 -53.5q178 0 270 119l205 -107q-94 -115 -228.5 -182t-287.5 -67q-217 0 -338 124.5t-121 319.5zM362 670h525q-14 94 -64.5 144 t-163.5 50q-197 1 -297 -194zM424 1247l43 246h240l-43 -246h-240zM797 1247l43 246h239l-43 -246h-239z" />
<glyph unicode="&#xec;" horiz-adv-x="577" d="M33 0l190 1083h285l-191 -1083h-284zM137 1552h262l115 -305h-217z" />
<glyph unicode="&#xed;" horiz-adv-x="589" d="M33 0l190 1083h285l-191 -1083h-284zM250 1247l221 305h262l-266 -305h-217z" />
<glyph unicode="&#xee;" horiz-adv-x="585" d="M33 0l190 1083h285l-191 -1083h-284zM53 1247l246 305h258l141 -305h-233l-70 121l-108 -121h-234z" />
<glyph unicode="&#xef;" horiz-adv-x="591" d="M33 0l190 1083h285l-191 -1083h-284zM78 1247l43 246h239l-43 -246h-239zM451 1247l43 246h239l-43 -246h-239z" />
<glyph unicode="&#xf0;" horiz-adv-x="1234" d="M45 422q0 45 10 106q49 276 210 440.5t386 164.5q100 0 140 -39l-13 50q-10 42 -16 60h-359l43 240h252l199 117q4 -6 59 -117h164l-43 -240h-43q59 -250 60 -479q0 -94 -13 -168q-102 -575 -608 -575q-195 0 -311.5 123.5t-116.5 316.5zM315 436q0 -215 195 -215 q127 0 201.5 97.5t99.5 238.5q12 82 12 121q0 215 -194 215q-127 0 -202 -97.5t-99 -238.5q-13 -82 -13 -121z" />
<glyph unicode="&#xf1;" horiz-adv-x="1314" d="M33 0l190 1083h285l20 -100q143 119 291 119q365 0 365 -307q0 -57 -13 -127l-116 -668h-285l117 668q8 45 8 71q0 131 -154 131q-127 0 -214 -86t-115 -249l-95 -535h-284zM410 1386l32 42q20 26 83 68t126 42q70 0 152 -57.5t117 -57.5q57 0 131 88l116 -118l-32 -42 q-20 -26 -85 -68t-126 -42q-68 0 -151 57.5t-116 57.5q-57 0 -131 -88z" />
<glyph unicode="&#xf2;" horiz-adv-x="1300" d="M45 440q0 53 8 101q41 236 226.5 398.5t437.5 162.5q209 0 342 -133t133 -332q0 -53 -8 -96q-41 -236 -224.5 -397.5t-439.5 -161.5q-213 0 -344 135t-131 323zM324 442q0 -223 237 -223q135 0 226.5 92t115.5 230q8 41 8 90q0 233 -235 233q-135 0 -226.5 -94 t-115.5 -229q-10 -58 -10 -99zM487 1552h263l114 -305h-217z" />
<glyph unicode="&#xf3;" horiz-adv-x="1300" d="M45 440q0 53 8 101q41 236 226.5 398.5t437.5 162.5q209 0 342 -133t133 -332q0 -53 -8 -96q-41 -236 -224.5 -397.5t-439.5 -161.5q-213 0 -344 135t-131 323zM324 442q0 -223 237 -223q135 0 226.5 92t115.5 230q8 41 8 90q0 233 -235 233q-135 0 -226.5 -94 t-115.5 -229q-10 -58 -10 -99zM647 1247l221 305h262l-266 -305h-217z" />
<glyph unicode="&#xf4;" horiz-adv-x="1300" d="M45 440q0 53 8 101q41 236 226.5 398.5t437.5 162.5q209 0 342 -133t133 -332q0 -53 -8 -96q-41 -236 -224.5 -397.5t-439.5 -161.5q-213 0 -344 135t-131 323zM324 442q0 -223 237 -223q135 0 226.5 92t115.5 230q8 41 8 90q0 233 -235 233q-135 0 -226.5 -94 t-115.5 -229q-10 -58 -10 -99zM438 1247l246 305h258l141 -305h-233l-70 121l-108 -121h-234z" />
<glyph unicode="&#xf5;" horiz-adv-x="1300" d="M45 440q0 53 8 101q41 236 226.5 398.5t437.5 162.5q209 0 342 -133t133 -332q0 -53 -8 -96q-41 -236 -224.5 -397.5t-439.5 -161.5q-213 0 -344 135t-131 323zM324 442q0 -223 237 -223q135 0 226.5 92t115.5 230q8 41 8 90q0 233 -235 233q-135 0 -226.5 -94 t-115.5 -229q-10 -58 -10 -99zM383 1386l33 42q20 26 82.5 68t126.5 42q70 0 151.5 -57.5t116.5 -57.5q57 0 131 88l117 -118l-33 -42q-20 -26 -85 -68t-126 -42q-68 0 -150.5 57.5t-115.5 57.5q-57 0 -131 -88z" />
<glyph unicode="&#xf6;" horiz-adv-x="1300" d="M45 440q0 53 8 101q41 236 226.5 398.5t437.5 162.5q209 0 342 -133t133 -332q0 -53 -8 -96q-41 -236 -224.5 -397.5t-439.5 -161.5q-213 0 -344 135t-131 323zM324 442q0 -223 237 -223q135 0 226.5 92t115.5 230q8 41 8 90q0 233 -235 233q-135 0 -226.5 -94 t-115.5 -229q-10 -58 -10 -99zM455 1247l43 246h239l-43 -246h-239zM827 1247l43 246h240l-43 -246h-240z" />
<glyph unicode="&#xf7;" horiz-adv-x="1228" d="M94 410v282h1022v-282h-1022zM451 0v289h307v-289h-307zM451 807v289h307v-289h-307z" />
<glyph unicode="&#xf8;" horiz-adv-x="1335" d="M45 -74l139 193q-127 131 -127 323q0 51 9 99q41 236 226 398.5t443 162.5q55 0 137 -19l134 187l221 -125l-140 -193q117 -127 117 -315q0 -53 -8 -96q-41 -236 -224.5 -397.5t-439.5 -161.5q-63 0 -133 16l-141 -197zM336 442q0 -55 12 -92l365 512q-4 0 -10.5 1 t-10.5 1q-135 0 -228 -94t-118 -229q-10 -58 -10 -99zM559 219h21q131 0 221 92t114 230q8 41 9 90q0 45 -11 80z" />
<glyph unicode="&#xf9;" horiz-adv-x="1308" d="M61 295q0 53 13 121l119 667h284l-119 -667q-10 -61 -10 -78q0 -125 158 -125q268 0 330 336l94 534h284l-192 -1083h-285l-16 98q-135 -117 -293 -116q-72 0 -133.5 14t-115.5 48t-86 98.5t-32 152.5zM530 1552h263l114 -305h-217z" />
<glyph unicode="&#xfa;" horiz-adv-x="1308" d="M61 295q0 53 13 121l119 667h284l-119 -667q-10 -61 -10 -78q0 -125 158 -125q268 0 330 336l94 534h284l-192 -1083h-285l-16 98q-135 -117 -293 -116q-72 0 -133.5 14t-115.5 48t-86 98.5t-32 152.5zM516 1247l221 305h262l-266 -305h-217z" />
<glyph unicode="&#xfb;" horiz-adv-x="1308" d="M61 295q0 53 13 121l119 667h284l-119 -667q-10 -61 -10 -78q0 -125 158 -125q268 0 330 336l94 534h284l-192 -1083h-285l-16 98q-135 -117 -293 -116q-72 0 -133.5 14t-115.5 48t-86 98.5t-32 152.5zM381 1247l246 305h258l141 -305h-233l-70 121l-109 -121h-233z" />
<glyph unicode="&#xfc;" horiz-adv-x="1308" d="M61 295q0 53 13 121l119 667h284l-119 -667q-10 -61 -10 -78q0 -125 158 -125q268 0 330 336l94 534h284l-192 -1083h-285l-16 98q-135 -117 -293 -116q-72 0 -133.5 14t-115.5 48t-86 98.5t-32 152.5zM412 1247l43 246h239l-43 -246h-239zM784 1247l43 246h240l-43 -246 h-240z" />
<glyph unicode="&#xfd;" horiz-adv-x="1202" d="M-25 -387l41 237h146q37 0 71.5 30t42.5 79q4 16 5 31q0 10 -5 35l-221 1058h291l150 -804l450 804h301l-663 -1169q-88 -158 -173 -229.5t-212 -71.5h-224zM524 1247l221 305h263l-267 -305h-217z" />
<glyph unicode="&#xfe;" horiz-adv-x="1372" d="M-37 -369l322 1823h284l-86 -485q139 133 328 133q193 0 319.5 -124t126.5 -319q0 -57 -10 -118q-45 -252 -210 -405.5t-425 -153.5q-82 0 -159.5 36.5t-120.5 98.5l-84 -486h-285zM377 457q0 -109 61.5 -174.5t194.5 -65.5q135 0 223 93t113 231q10 61 10 106 q0 94 -56.5 155.5t-174.5 61.5q-141 0 -239.5 -94t-123.5 -229q-8 -57 -8 -84z" />
<glyph unicode="&#xff;" horiz-adv-x="1202" d="M-25 -387l41 237h146q37 0 71.5 30t42.5 79q4 16 5 31q0 10 -5 35l-221 1058h291l150 -804l450 804h301l-663 -1169q-88 -158 -173 -229.5t-212 -71.5h-224zM354 1247l43 246h240l-43 -246h-240zM727 1247l43 246h240l-43 -246h-240z" />
<glyph unicode="&#x152;" horiz-adv-x="2351" d="M76 590q0 66 12 137q55 313 297 529.5t551 216.5q125 0 236.5 -50.5t152.5 -128.5l29 160h1007l-45 -262h-712l-56 -303h576l-45 -262h-576l-65 -365h723l-45 -262h-1018l26 158q-70 -78 -198.5 -127t-253.5 -49q-264 0 -430 173t-166 435zM373 610q0 -160 88 -254 t260 -94q188 0 327.5 131t174.5 334q10 68 10 117q0 160 -88 254t-258 94q-188 0 -328.5 -131t-175.5 -334q-10 -51 -10 -117z" />
<glyph unicode="&#x153;" horiz-adv-x="2109" d="M45 440q0 53 8 101q41 233 228.5 397t435.5 164q256 0 387 -174q178 174 450 174q207 0 333 -134t126 -327q0 -45 -10 -100l-21 -109h-817q4 -106 55.5 -159.5t178.5 -53.5q178 0 270 119l205 -107q-94 -115 -228.5 -182t-287.5 -67q-276 0 -379 192q-184 -193 -459 -192 q-213 0 -344 135t-131 323zM324 442q0 -223 237 -223q135 0 226.5 92t115.5 230q8 41 8 90q0 233 -235 233q-135 0 -226.5 -94t-115.5 -229q-10 -58 -10 -99zM1217 670h524q-14 94 -64.5 144t-163.5 50q-196 1 -296 -194z" />
<glyph unicode="&#x178;" horiz-adv-x="1193" d="M82 1454h303l199 -633l428 633h336l-654 -905l-96 -549h-295l105 549zM414 1618l43 246h239l-43 -246h-239zM786 1618l43 246h240l-43 -246h-240z" />
<glyph unicode="&#x2c6;" horiz-adv-x="1054" d="M205 1167l246 306h258l141 -306h-234l-69 121l-109 -121h-233z" />
<glyph unicode="&#x2dc;" horiz-adv-x="1167" d="M205 1276l33 42q20 26 82.5 67.5t125.5 41.5q70 0 152 -57t117 -57q57 0 131 88l117 -119l-33 -42q-20 -26 -85 -68t-126 -42q-68 0 -151 57.5t-115 57.5q-57 0 -131 -88z" />
<glyph unicode="&#x2013;" horiz-adv-x="1277" d="M82 442l49 283h1022l-49 -283h-1022z" />
<glyph unicode="&#x2014;" horiz-adv-x="1933" d="M82 442l49 283h1677l-49 -283h-1677z" />
<glyph unicode="&#x2018;" horiz-adv-x="544" d="M150 897l49 289q20 109 65 162t176 125l56 -121q-76 -39 -98.5 -68t-30.5 -84l-5 -14h144l-49 -289h-307z" />
<glyph unicode="&#x2019;" horiz-adv-x="550" d="M152 1184l51 289h307l-51 -289q-18 -109 -63.5 -162t-176.5 -125l-55 121q76 39 97.5 67.5t31.5 83.5l2 15h-143z" />
<glyph unicode="&#x201a;" horiz-adv-x="573" d="M18 0l52 289h307l-51 -289q-18 -109 -63.5 -162t-176.5 -125l-55 121q76 39 97.5 67.5t31.5 84.5l2 14h-144z" />
<glyph unicode="&#x201c;" horiz-adv-x="985" d="M150 897l49 289q20 109 65 162t176 125l56 -121q-76 -39 -98.5 -68t-30.5 -84l-5 -14h144l-49 -289h-307zM590 897l49 289q20 109 65.5 162t176.5 125l55 -121q-76 -39 -98.5 -68t-30.5 -84l-4 -14h143l-49 -289h-307z" />
<glyph unicode="&#x201d;" horiz-adv-x="991" d="M152 1184l51 289h307l-51 -289q-18 -109 -63.5 -162t-176.5 -125l-55 121q76 39 97.5 67.5t31.5 83.5l2 15h-143zM592 1184l51 289h307l-51 -289q-18 -109 -63 -162t-177 -125l-55 121q76 39 97.5 67.5t31.5 83.5l2 15h-143z" />
<glyph unicode="&#x201e;" horiz-adv-x="1013" d="M18 0l52 289h307l-51 -289q-18 -109 -63.5 -162t-176.5 -125l-55 121q76 39 97.5 67.5t31.5 84.5l2 14h-144zM459 0l51 289h307l-51 -289q-18 -109 -63.5 -162t-176.5 -125l-55 121q76 39 97.5 67.5t31.5 84.5l2 14h-143z" />
<glyph unicode="&#x2022;" horiz-adv-x="874" d="M129 590q0 113 82 195.5t197 82.5q113 0 195.5 -83t82.5 -195q0 -115 -82 -197t-196 -82q-117 0 -198 82t-81 197z" />
<glyph unicode="&#x2026;" horiz-adv-x="1779" d="M47 0l49 289h307l-49 -289h-307zM621 0l49 289h307l-49 -289h-307zM1194 0l49 289h307l-49 -289h-307z" />
<glyph unicode="&#x2039;" horiz-adv-x="763" d="M70 543l16 96l453 444l161 -159l-335 -332l219 -334l-217 -160z" />
<glyph unicode="&#x203a;" horiz-adv-x="770" d="M14 258l338 334l-217 332l219 159l293 -444l-16 -96l-453 -445z" />
<glyph unicode="&#x20ac;" d="M-10 485l37 205h120l15 84h-121l37 205h135q162 494 612 494q342 0 457 -234l-225 -135q-82 106 -277 106q-186 0 -272 -231h508l-78 -205h-485l-15 -84h465l-78 -205h-405q-2 -16 -2 -47q0 -96 44 -145t146 -49q180 0 285 116l199 -155q-82 -123 -210 -173t-319 -50 q-438 0 -438 460v43h-135z" />
<glyph unicode="&#x2122;" horiz-adv-x="1644" d="M121 1317l24 137h607l-25 -137h-219l-105 -600h-167l104 600h-219zM678 717l129 737h262l66 -536l258 536h262l-129 -737h-168l94 538l-272 -538h-160l-80 538l-94 -538h-168z" />
<glyph unicode="&#xe000;" horiz-adv-x="1085" d="M0 1085h1085v-1085h-1085v1085z" />
<glyph unicode="&#xfb01;" horiz-adv-x="1282" d="M45 848l41 235h182q43 219 149.5 304.5t289.5 85.5q70 0 143 -19l-41 -237q-57 18 -123 18q-51 0 -86 -41t-47 -111h190l-41 -235h-192l-150 -848h-282l149 848h-182zM723 0l190 1083h285l-190 -1083h-285zM926 1186l47 268h297l-47 -268h-297z" />
<glyph unicode="&#xfb02;" horiz-adv-x="1280" d="M45 848l41 235h182q43 219 149.5 304.5t289.5 85.5q70 0 143 -19l-41 -237q-57 18 -123 18q-51 0 -86 -41t-47 -111h190l-41 -235h-192l-150 -848h-282l149 848h-182zM723 0l256 1454h285l-256 -1454h-285z" />
<glyph unicode="&#xfb03;" horiz-adv-x="2066" d="M45 846l41 237h182q43 219 149.5 304.5t289.5 85.5q70 0 143 -19l-41 -237q-57 18 -123 18q-51 0 -86 -41t-47 -111h190l-41 -237h-192l-150 -846h-282l149 846h-182zM782 846l41 237h183q43 219 149.5 304.5t288.5 85.5q70 0 143 -19l-41 -237q-57 18 -123 18 q-51 0 -85.5 -41t-47.5 -111h191l-41 -237h-193l-149 -846h-283l150 846h-183zM1507 0l191 1083h284l-190 -1083h-285zM1710 1186l47 268h297l-47 -268h-297z" />
<glyph unicode="&#xfb04;" horiz-adv-x="2064" d="M45 846l41 237h182q43 219 149.5 304.5t289.5 85.5q70 0 143 -19l-41 -237q-57 18 -123 18q-51 0 -86 -41t-47 -111h190l-41 -237h-192l-150 -846h-282l149 846h-182zM782 846l41 237h183q43 219 149.5 304.5t288.5 85.5q70 0 143 -19l-41 -237q-57 18 -123 18 q-51 0 -85.5 -41t-47.5 -111h191l-41 -237h-193l-149 -846h-283l150 846h-183zM1507 0l256 1454h285l-256 -1454h-285z" />
<glyph horiz-adv-x="628" />
</font>
</defs>
</svg>
