<?xml version="1.0" standalone="no"?>
<!DOCTYPE svg PUBLIC "-//W3C//DTD SVG 1.1//EN" "http://www.w3.org/Graphics/SVG/1.1/DTD/svg11.dtd" >
<svg xmlns="http://www.w3.org/2000/svg">
<metadata>
This is a custom SVG font generated by IcoMoon.
0
</metadata>
<defs>
<font id="Bitponics-Glyphs" horiz-adv-x="512" >
<font-face units-per-em="512" ascent="480" descent="-32" />
<missing-glyph horiz-adv-x="512" />
<glyph unicode="&#x21;" d="M 29.813-32.00c-9.898,0.00-19.796,0.298-29.813,0.894l 14.668,259.607C 160.093,219.498, 284.769,332.965, 293.117,480.00l 256.566-14.727
	C 533.942,185.214, 303.73-32.00, 29.813-32.00M 877.382-32.00c 9.898,0.00, 19.855,0.298, 29.872,0.894l-14.608,259.607C 747.101,219.498, 622.426,332.965, 614.197,480.00L 357.631,465.273
	C 373.253,185.214, 603.584-32.00, 877.382-32.00M 891.454-32.00c-9.898,0.00-19.796,0.298-29.813,0.894l 14.608,259.607c 145.425-9.003, 270.161,104.463, 278.449,251.498l 256.566-14.727
	C 1395.583,185.214, 1165.311-32.00, 891.454-32.00M 1739.023-32.00c 9.898,0.00, 19.796,0.298, 29.813,0.894l-14.608,259.607C 1608.743,219.498, 1484.067,332.965, 1475.779,480.00l-256.566-14.727
	C 1234.953,185.214, 1465.166-32.00, 1739.023-32.00" horiz-adv-x="1768.835725682082" />
<glyph unicode="&#x22;" d="M 253.33-32.00C 113.665-32.00,0.00,82.855,0.00,224.029S 113.665,480.00, 253.33,480.00l0.00-105.424 c-82.122,0.00-149.009-67.555-149.009-150.547
	c0.00-83.022, 66.887-150.547, 149.009-150.547c 82.18,0.00, 149.009,67.526, 149.009,150.547l 104.35,0.00 C 506.69,82.855, 393.054-32.00, 253.33-32.00" horiz-adv-x="506.6896419069536" />
<glyph unicode="&#x23;" d="M 146.854,225.776c-32.566,0.00-65.132,12.391-89.914,37.189c-49.597,49.597-49.597,130.265,0.00,179.845
	c 49.58,49.58, 130.248,49.58, 179.828,0.017l-32.243-32.26c-31.801,31.801-83.54,31.801-115.342,0.00c-31.801-31.801-31.801-83.54,0.00-115.342
	c 31.801-31.784, 83.54-31.801, 115.342,0.00l 32.243-32.243C 211.986,238.167, 179.42,225.776, 146.854,225.776M 184.927,83.426c-1.632,0.00-3.263,0.051-4.929,0.153l 2.414,42.373c 24.034-1.462, 44.651,17.082, 46.011,41.082
	l 42.39-2.414C 268.229,118.899, 230.173,83.426, 184.927,83.426M0.00,212.689c0.00,1.632, 0.051,3.246, 0.136,4.912l 42.39-2.414c-1.462-24.034, 17.065-44.651, 41.082-46.011L 81.195,126.803
	C 35.473,129.403,0.00,167.443,0.00,212.689M 151.681,98.197c0.00-71.795-58.402-130.197-130.197-130.197l0.00,46.691 c 46.045,0.00, 83.506,37.461, 83.506,83.506L 151.681,98.197 zM 105.449,242.892L 151.052,242.892L 151.052,96.106L 105.449,96.106z" horiz-adv-x="270.8298717537066" />
<glyph unicode="&#x24;" d="M 177.278,145.278c0.00-97.757-79.521-177.278-177.278-177.278l0.00,63.575 c 62.695,0.00, 113.703,51.008, 113.703,113.703L 177.278,145.278 zM 173.251,133.845c-44.343,0.00-88.685,16.871-122.428,50.638c-67.532,67.532-67.532,177.371,0.00,244.88c 67.509,67.509, 177.347,67.509, 244.857,0.023
	l-43.903-43.926c-43.301,43.301-113.749,43.301-157.051,0.00c-43.301-43.301-43.301-113.749,0.00-157.051c 43.301-43.278, 113.749-43.301, 157.051,0.00l 43.903-43.903
	C 261.936,150.717, 217.594,133.845, 173.251,133.845" horiz-adv-x="295.70242037209067" />
<glyph unicode="&#x25;" d="M 512.00,480.00c0.00-282.335-229.665-512.00-512.00-512.00L0.00,151.611 c 181.072,0.00, 328.455,147.317, 328.455,328.389L 512.00,480.00 z" horiz-adv-x="511.99999999999994" />
<glyph unicode="&#x26;" d="M 17.618-32.00c-5.801,0.00-11.709,0.18-17.618,0.504l 8.611,153.841c 86.18-5.332, 160.038,61.897, 164.938,148.978l 152.04-8.755
	C 316.222,96.658, 179.854-32.00, 17.618-32.00M 519.71-32.00c 5.801,0.00, 11.709,0.18, 17.618,0.504l-8.611,153.841c-86.18-5.332-160.038,61.897-164.938,148.978l-152.04-8.755
	C 221.106,96.658, 357.474-32.00, 519.71-32.00M 527.997-32.00c-5.801,0.00-11.709,0.18-17.618,0.504l 8.611,153.841c 86.18-5.332, 160.038,61.897, 164.938,148.978l 152.04-8.755
	C 826.60,96.658, 690.233-32.00, 527.997-32.00M 1030.089-32.00c 5.801,0.00, 11.709,0.18, 17.618,0.504l-8.611,153.841c-86.18-5.332-160.038,61.897-164.938,148.978l-152.04-8.755
	C 731.485,96.658, 867.853-32.00, 1030.089-32.00M0.00,480.00L 1047.707,480.00L 1047.707,321.187L0.00,321.187z" horiz-adv-x="1047.7066707003155" />
<glyph unicode="&#x27;" d="M 270.224,478.465C 265.108,478.772, 260.298,480.00, 255.181,480.00c-140.979,0.00-255.147-114.612-255.147-256.00s 114.202-256.00, 255.147-256.00
	c 5.082,0.00, 9.926,1.194, 15.009,1.501L 270.19,478.465 z" horiz-adv-x="270.224110792429" />
<glyph unicode="&#x28;" d="M 329.427,186.022c 80.926,0.00, 146.492,65.807, 146.492,146.974S 410.353,480.00, 329.427,480.00S 182.904,414.163, 182.904,332.996S 248.531,186.022, 329.427,186.022M 265.035,103.078L 406.377,103.078L 406.377-32.00L 265.035-32.00zM 99.96,35.554L 0.00,135.514L 95.503,230.987L 195.433,131.057zM 575.94,35.554L 475.949,135.484L 571.452,231.017L 671.413,131.057z" horiz-adv-x="671.4428615196078" />
<glyph unicode="&#x29;" d="M 511.826,225.603l0.00-1.614 c0.00-22.895-3.074-45.071-8.613-66.178l-244.149,65.284L 259.064,224.883 l 3.031,0.72L 511.826,225.603 zM 511.826,225.603L 262.094,225.603 l 241.14,64.586C 508.642,269.627, 511.651,247.974, 511.826,225.603M 503.234,290.189L 262.094,225.603l-3.053,0.00 l0.00,0.174 l 218.616,126.119C 488.756,332.774, 497.347,312.015, 503.234,290.189M 259.064,218.80l 124.876-216.479c-19.166-11.295-39.903-19.842-61.751-25.752l-63.125,236.125L 259.064,218.80 zM 259.064,212.738l 63.125-236.147c-20.191-5.364-41.32-8.22-63.125-8.613L 259.064,212.738 zM 322.189,471.409l-63.125-236.147L 259.064,479.978 C 280.868,479.629, 301.997,476.795, 322.189,471.409M 259.064,212.738l0.00-244.76 l-3.074,0.00 c-22.895,0.00-45.049,3.053-66.178,8.766l 66.178,247.245L 259.064,212.738zM 259.064,480.00l0.00-244.738 l-2.682-9.66l-0.72,0.00 L 189.833,471.256C 210.94,476.947, 233.116,480.00, 256.011,480.00L 259.064,480.00 zM 256.011,224.011L 34.343,96.082c-11.251,19.166-19.842,39.925-25.577,61.73L 256.011,224.011zM 256.011,224.011L 8.766,157.811C 3.053,178.897,0.00,201.116,0.00,224.011l0.00,1.614 l 249.927,0.00 L 256.011,224.011zM 255.662,225.603l-0.523,0.00 L 128.104,445.636c 19.145,11.295, 39.903,19.864, 61.73,25.621L 255.662,225.603zM 249.927,225.603L0.00,225.603 c 0.196,22.372, 3.227,44.024, 8.766,64.586L 249.927,225.603z" horiz-adv-x="511.8255460107948" />
<glyph unicode="&#x2a;" d="M 226.559-32.00c 125.117,0.00, 226.559,93.128, 226.559,208.004c0.00,19.721-2.966,38.807-8.568,56.88C 417.58,320.081, 226.559,480.00, 226.559,480.00
	S 45.778,327.33, 13.916,247.89C 4.917,225.483,0.00,201.276,0.00,176.004C0.00,61.128, 101.442-32.00, 226.559-32.00" horiz-adv-x="453.0917648249726" />
<glyph unicode="&#x2b;" d="M 515.925,480.00L 791.165,480.00L 791.165,217.071L 515.925,217.071zM 1121.178-32.059L 926.584,162.535L 1112.555,348.447L 1307.09,153.852zM 194.594-32.00L0.00,162.654L 185.911,348.565L 380.565,153.911z" horiz-adv-x="1307.1493604581003" />
<glyph unicode="&#x2c;" d="M0.00,480.00L 329.125,480.00L 329.125,265.348L0.00,265.348zM 205.413,182.528L 534.538,182.528L 534.538-32.041L 205.413-32.041zM 411.448,480.00L 740.573,480.00L 740.573,265.348L 411.448,265.348z" horiz-adv-x="740.5728820245697" />
<glyph unicode="&#x2d;" d="M 178.125,30.08c-63.003,0.00-114.154,49.812-114.154,111.025l0.00,69.598 c 43.757,0.371, 83.306,16.724, 114.154,42.576l0.00-1.137 
	c 63.003,0.00, 114.255-49.801, 114.255-111.025C 292.38,79.892, 241.127,30.08, 178.125,30.08 M 221.961,308.313c 11.536,22.892, 18.592,48.293, 18.592,75.45
	l-63.88,0.00 c0.00-60.718-50.431-110.136-112.702-110.958L 63.97,480.00 L0.00,480.00 l0.00-339.12 l 0.034,0.00 c 0.135-95.37, 79.963-172.88, 178.091-172.88
	c 98.229,0.00, 178.147,77.667, 178.147,173.116C 356.272,221.788, 298.93,289.18, 221.961,308.313" horiz-adv-x="356.27177938232137" />
<glyph unicode="&#x2e;" d="M 248.947,142.395c-43.815,0.00-79.331,36.579-79.331,81.588c0.00,45.076, 35.516,81.621, 79.331,81.621c 43.815,0.00, 79.331-36.545, 79.331-81.621
	C 328.277,178.974, 292.761,142.395, 248.947,142.395 M 497.893,196.068L 497.893,254.355 l-7.999,2.689l-60.61,20.38l-16.198,40.163l 31.135,67.713l-40.064,41.192L 396.588,422.576
	l-56.893-29.708L 300.661,409.498L 276.065,480.00L 219.405,480.00 L 216.816,471.768L 197.00,409.399L 157.965,392.769L 92.11,424.734L 52.046,383.542l 3.817-7.701l 28.878-58.519
	l-16.165-40.163L0.00,251.899l0.00-58.253 l 7.999-2.689l 60.677-20.38l 16.165-40.163l-31.102-67.713l 40.064-41.192l 7.502,3.95L 158.197,55.131l 39.068-16.663
	l 24.53-70.468l 56.66,0.00 l 2.622,8.232l 19.849,62.369l 39.068,16.63l 65.821-31.998l 40.064,41.226l-3.784,7.668l-28.911,58.519l 16.165,40.197L 497.893,196.068z" horiz-adv-x="497.8930246375652" />
<glyph unicode="&#x2f;" d="M 454.209,190.09c-95.522-134.687-251.224-222.09-424.597-222.09c-10.03,0.00-20.537,0.00-29.612,0.478l 14.328,260.298
		C 160.00,219.702, 284.657,332.896, 292.776,480.00L 453.731,470.925L 357.731,465.672C 363.463,362.507, 398.806,268.418, 454.209,190.09zM 549.731,465.672c-6.209-103.164-40.597-197.731-95.522-276.06C 398.806,268.418, 363.463,362.507, 357.731,465.672L 453.731,470.925L 549.731,465.672
		zM 876.895,228.299l-14.328-259.821c-167.164,4.776-316.657,90.269-408.358,221.612c 54.925,78.328, 89.791,172.418, 95.522,276.06
		L 453.731,470.925L 614.687,480.00C 622.806,338.627, 738.388,228.776, 876.895,228.299zM 907.94-31.522C 902.687-32.00, 897.91-32.00, 892.657-32.00c-10.03,0.00-20.06,0.00-29.612,0.478l 14.328,259.821l 12.896,0.00 
		c 1.433,0.00, 2.388,0.00, 3.821,0.478l0.00-0.478 L 907.94-31.522zM 1220.298,465.672C 1226.03,362.507, 1260.895,268.418, 1316.298,190.09C 1224.119,58.746, 1075.104-26.746, 907.94-31.522l-14.328,259.821
		C 1032.119,228.776, 1147.701,338.627, 1155.821,480.00l 160.478-9.075L 1220.298,465.672zM 893.612,228.299l 14.328-259.821C 902.687-32.00, 897.91-32.00, 892.657-32.00c-10.03,0.00-20.06,0.00-29.612,0.478l 14.328,259.821L 877.373,228.776 
		c 3.821-0.478, 7.164-0.478, 10.507-0.478L 893.612,228.299 zM 1412.298,465.672C 1406.567,362.507, 1371.701,268.418, 1316.298,190.09C 1260.895,268.418, 1226.03,362.507, 1220.298,465.672l 96.00,5.254
		L 1412.298,465.672zM 1770.507-31.522C 1760.478-32.00, 1750.925-32.00, 1740.895-32.00c-172.896,0.00-328.597,87.403-424.597,222.09
		C 1371.701,268.418, 1406.567,362.507, 1412.298,465.672L 1316.298,470.925L 1477.731,480.00c 8.597-147.104, 132.776-260.298, 278.925-251.224L 1770.507-31.522z" horiz-adv-x="1770.5074275184295" />
<glyph unicode="&#x30;" d="M 454.117,189.986C 358.639,55.124, 202.89-32.00, 29.837-32.00c-10.145,0.00-20.289,0.00-29.837,0.477l 14.322,260.297
		C 159.925,219.823, 284.643,333.203, 292.998,480.00L 453.52,471.049L 357.445,465.678C 363.413,362.443, 398.62,268.159, 454.117,189.986zM 549.594,465.678c-5.967-103.235-40.578-197.52-95.478-275.692c-55.497,78.172-90.704,172.457-96.671,275.692L 453.52,471.049L 549.594,465.678zM 876.606,228.177l-14.322-259.70c-167.086,4.893-316.27,90.227-408.168,221.389c 54.90,78.172, 89.51,172.457, 95.478,275.692L 453.52,471.049
		L 614.639,480.00C 622.396,338.573, 738.283,228.774, 876.606,228.177zM 907.636-31.523C 902.385-32.00, 897.611-32.00, 892.121-32.00c-10.145,0.00-20.289,0.00-29.837,0.477l 14.322,259.70l 13.128,0.00 
		c 1.193,0.00, 2.387,0.00, 3.58,0.597L 893.315,228.177 L 907.636-31.523zM 1219.73,465.678c 6.087-103.235, 40.578-197.52, 96.194-275.692c-92.017-131.282-241.082-216.496-408.168-221.389L 893.315,228.177
		C 1031.758,228.774, 1147.524,338.573, 1155.401,480.00l 160.522-8.951L 1219.73,465.678zM 893.315,228.177l 14.322-259.70C 902.385-32.00, 897.611-32.00, 892.121-32.00c-10.145,0.00-20.289,0.00-29.837,0.477l 14.322,259.70L 876.606,228.774 
		c 3.58-0.597, 7.161-0.597, 10.741-0.597L 893.315,228.177 zM 1411.879,465.678c-5.967-103.235-40.578-197.52-96.075-275.692c-55.616,78.172-90.107,172.457-96.194,275.692l 96.194,5.371
		L 1411.879,465.678zM 1769.921-31.523C 1759.776-32.00, 1750.228-32.00, 1740.084-32.00c-173.054,0.00-328.802,87.004-424.28,221.867
		c 55.497,78.172, 90.107,172.457, 96.075,275.692l-96.075,5.371L 1476.923,480.00c 8.354-146.797, 133.072-260.177, 278.676-251.226L 1769.921-31.523z" horiz-adv-x="1769.9207525535242" />
<glyph unicode="&#x31;" d="M 453.985,189.984c-95.40-134.753-251.021-221.805-423.934-221.805c-10.136,0.00-20.273,0.00-29.813,0.596l 14.31,259.965
		c 145.485-8.944, 270.101,104.344, 278.449,251.021l 160.391-8.944l-95.996-5.366C 363.355,362.241, 398.534,268.093, 453.985,189.984zM 549.385,465.392c-5.963-103.151-40.545-197.359-95.40-275.468c-55.451,78.109-90.63,172.316-96.593,275.468l 95.996,5.366L 549.385,465.392zM 876.13,228.084l-14.31-259.369c-166.95,4.77-316.013,90.093-407.835,221.209c 54.855,78.109, 89.438,172.316, 95.40,275.468l-95.996,5.366l 160.988,8.944
		C 622.127,338.391, 737.86,228.74, 876.13,228.084zM 907.135-31.285c-5.366-0.596-10.136-0.596-15.503-0.596c-10.136,0.00-20.273,0.00-29.813,0.596l 14.31,259.369l 13.118,0.00 
		c 1.193,0.00, 2.385,0.00, 3.578,0.596l0.00-0.596 L 907.135-31.285zM 1218.974,465.392c 5.963-103.151, 40.545-197.359, 95.996-275.468c-91.823-131.175-240.885-216.439-407.835-221.209l-14.31,259.369
		c 138.33,0.596, 254.003,110.306, 261.754,251.618l 160.391-8.944L 1218.974,465.392zM 892.825,228.084l 14.31-259.369c-5.366-0.596-10.136-0.596-15.503-0.596c-10.136,0.00-20.273,0.00-29.813,0.596l 14.31,259.369l0.00,0.596 
		c 3.578-0.596, 7.155-0.596, 10.733-0.596L 892.825,228.084 zM 1410.966,465.392c-5.963-103.151-40.545-197.359-95.937-275.468c-55.511,78.109-90.093,172.316-95.996,275.468l 95.996,5.366L 1410.966,465.392zM 1768.716-31.285c-10.136-0.596-19.676-0.596-29.813-0.596c-172.853,0.00-328.534,87.053-423.874,221.805
		c 55.451,78.109, 90.034,172.316, 95.937,275.468l-95.937,5.366l 160.928,8.944c 8.407-146.678, 132.964-259.965, 278.449-251.021L 1768.716-31.285z" horiz-adv-x="1768.835725682082" />
<glyph unicode="&#x32;" d="M 273.102,137.957
		c0.00-56.883-46.273-103.157-103.145-103.157c-56.896,0.00-103.084,46.273-103.084,103.157L 66.873,202.579 c 39.301,0.341, 75.281,14.881, 103.084,38.681l0.00-0.158 
		C 226.84,241.102, 273.102,194.828, 273.102,137.957z M 210.39,293.641c 10.196,21.111, 15.94,44.765, 15.94,69.732l-57.674,0.00 
		c0.00-56.421-45.531-102.342-101.758-103.108L 66.897,470.874 L 9.126,470.874 l0.00-333.149 l0.00,0.00c 0.146-88.58, 72.239-160.60, 160.843-160.60c 88.665,0.00, 160.831,72.154, 160.831,160.831
		C 330.80,212.678, 279.575,275.657, 210.39,293.641z" horiz-adv-x="339.92596373938795" />
<glyph unicode="&#x33;" d="M 234.687,480.00L 279.81,480.00L 279.81-32.00L 234.687-32.00zM0.00,246.547L 514.467,246.547L 514.467,201.423L0.00,201.423z" horiz-adv-x="514.466709595084" />
<glyph unicode="&#x34;" d="M 469.591,478.871L 510.871,437.591L 42.428-30.871L 1.148,10.409zM 41.299,480.00L 512.00,9.28L 470.72-32.00L 0.019,438.72z" horiz-adv-x="512.0389407417568" />
<glyph class="hidden" unicode="&#xf000;" d="M0,480L 512 -32L0 -32 z" horiz-adv-x="0" />
</font>
</defs>
</svg>
